<?xml version="1.0" encoding="utf-8" standalone="no"?>
<!DOCTYPE svg PUBLIC "-//W3C//DTD SVG 1.1//EN"
  "http://www.w3.org/Graphics/SVG/1.1/DTD/svg11.dtd">
<!-- Created with matplotlib (https://matplotlib.org/) -->
<svg height="576pt" version="1.1" viewBox="0 0 1152 576" width="1152pt" xmlns="http://www.w3.org/2000/svg" xmlns:xlink="http://www.w3.org/1999/xlink">
 <defs>
  <style type="text/css">
*{stroke-linecap:butt;stroke-linejoin:round;}
  </style>
 </defs>
 <g id="figure_1">
  <g id="patch_1">
   <path d="M 0 576 
L 1152 576 
L 1152 0 
L 0 0 
z
" style="fill:#ffffff;"/>
  </g>
  <g id="axes_1">
   <g id="patch_2">
    <path d="M 80.19 507.06 
L 1119.435 507.06 
L 1119.435 39.44 
L 80.19 39.44 
z
" style="fill:#ffffff;"/>
   </g>
   <g id="matplotlib.axis_1">
    <g id="xtick_1">
     <g id="line2d_1">
      <defs>
       <path d="M 0 0 
L 0 9 
" id="m8b7098b8d5" style="stroke:#000000;stroke-width:1.875;"/>
      </defs>
      <g>
       <use style="stroke:#000000;stroke-width:1.875;" x="80.19" xlink:href="#m8b7098b8d5" y="507.06"/>
      </g>
     </g>
     <g id="text_1">
      <!-- 0.0 -->
      <defs>
       <path d="M 31.78125 66.40625 
Q 24.171875 66.40625 20.328125 58.90625 
Q 16.5 51.421875 16.5 36.375 
Q 16.5 21.390625 20.328125 13.890625 
Q 24.171875 6.390625 31.78125 6.390625 
Q 39.453125 6.390625 43.28125 13.890625 
Q 47.125 21.390625 47.125 36.375 
Q 47.125 51.421875 43.28125 58.90625 
Q 39.453125 66.40625 31.78125 66.40625 
z
M 31.78125 74.21875 
Q 44.046875 74.21875 50.515625 64.515625 
Q 56.984375 54.828125 56.984375 36.375 
Q 56.984375 17.96875 50.515625 8.265625 
Q 44.046875 -1.421875 31.78125 -1.421875 
Q 19.53125 -1.421875 13.0625 8.265625 
Q 6.59375 17.96875 6.59375 36.375 
Q 6.59375 54.828125 13.0625 64.515625 
Q 19.53125 74.21875 31.78125 74.21875 
z
" id="DejaVuSans-48"/>
       <path d="M 10.6875 12.40625 
L 21 12.40625 
L 21 0 
L 10.6875 0 
z
" id="DejaVuSans-46"/>
      </defs>
      <g transform="translate(67.069922 532.097422)scale(0.165 -0.165)">
       <use xlink:href="#DejaVuSans-48"/>
       <use x="63.623047" xlink:href="#DejaVuSans-46"/>
       <use x="95.410156" xlink:href="#DejaVuSans-48"/>
      </g>
     </g>
    </g>
    <g id="xtick_2">
     <g id="line2d_2">
      <g>
       <use style="stroke:#000000;stroke-width:1.875;" x="288.039" xlink:href="#m8b7098b8d5" y="507.06"/>
      </g>
     </g>
     <g id="text_2">
      <!-- 0.2 -->
      <defs>
       <path d="M 19.1875 8.296875 
L 53.609375 8.296875 
L 53.609375 0 
L 7.328125 0 
L 7.328125 8.296875 
Q 12.9375 14.109375 22.625 23.890625 
Q 32.328125 33.6875 34.8125 36.53125 
Q 39.546875 41.84375 41.421875 45.53125 
Q 43.3125 49.21875 43.3125 52.78125 
Q 43.3125 58.59375 39.234375 62.25 
Q 35.15625 65.921875 28.609375 65.921875 
Q 23.96875 65.921875 18.8125 64.3125 
Q 13.671875 62.703125 7.8125 59.421875 
L 7.8125 69.390625 
Q 13.765625 71.78125 18.9375 73 
Q 24.125 74.21875 28.421875 74.21875 
Q 39.75 74.21875 46.484375 68.546875 
Q 53.21875 62.890625 53.21875 53.421875 
Q 53.21875 48.921875 51.53125 44.890625 
Q 49.859375 40.875 45.40625 35.40625 
Q 44.1875 33.984375 37.640625 27.21875 
Q 31.109375 20.453125 19.1875 8.296875 
z
" id="DejaVuSans-50"/>
      </defs>
      <g transform="translate(274.918922 532.097422)scale(0.165 -0.165)">
       <use xlink:href="#DejaVuSans-48"/>
       <use x="63.623047" xlink:href="#DejaVuSans-46"/>
       <use x="95.410156" xlink:href="#DejaVuSans-50"/>
      </g>
     </g>
    </g>
    <g id="xtick_3">
     <g id="line2d_3">
      <g>
       <use style="stroke:#000000;stroke-width:1.875;" x="495.888" xlink:href="#m8b7098b8d5" y="507.06"/>
      </g>
     </g>
     <g id="text_3">
      <!-- 0.4 -->
      <defs>
       <path d="M 37.796875 64.3125 
L 12.890625 25.390625 
L 37.796875 25.390625 
z
M 35.203125 72.90625 
L 47.609375 72.90625 
L 47.609375 25.390625 
L 58.015625 25.390625 
L 58.015625 17.1875 
L 47.609375 17.1875 
L 47.609375 0 
L 37.796875 0 
L 37.796875 17.1875 
L 4.890625 17.1875 
L 4.890625 26.703125 
z
" id="DejaVuSans-52"/>
      </defs>
      <g transform="translate(482.767922 532.097422)scale(0.165 -0.165)">
       <use xlink:href="#DejaVuSans-48"/>
       <use x="63.623047" xlink:href="#DejaVuSans-46"/>
       <use x="95.410156" xlink:href="#DejaVuSans-52"/>
      </g>
     </g>
    </g>
    <g id="xtick_4">
     <g id="line2d_4">
      <g>
       <use style="stroke:#000000;stroke-width:1.875;" x="703.737" xlink:href="#m8b7098b8d5" y="507.06"/>
      </g>
     </g>
     <g id="text_4">
      <!-- 0.6 -->
      <defs>
       <path d="M 33.015625 40.375 
Q 26.375 40.375 22.484375 35.828125 
Q 18.609375 31.296875 18.609375 23.390625 
Q 18.609375 15.53125 22.484375 10.953125 
Q 26.375 6.390625 33.015625 6.390625 
Q 39.65625 6.390625 43.53125 10.953125 
Q 47.40625 15.53125 47.40625 23.390625 
Q 47.40625 31.296875 43.53125 35.828125 
Q 39.65625 40.375 33.015625 40.375 
z
M 52.59375 71.296875 
L 52.59375 62.3125 
Q 48.875 64.0625 45.09375 64.984375 
Q 41.3125 65.921875 37.59375 65.921875 
Q 27.828125 65.921875 22.671875 59.328125 
Q 17.53125 52.734375 16.796875 39.40625 
Q 19.671875 43.65625 24.015625 45.921875 
Q 28.375 48.1875 33.59375 48.1875 
Q 44.578125 48.1875 50.953125 41.515625 
Q 57.328125 34.859375 57.328125 23.390625 
Q 57.328125 12.15625 50.6875 5.359375 
Q 44.046875 -1.421875 33.015625 -1.421875 
Q 20.359375 -1.421875 13.671875 8.265625 
Q 6.984375 17.96875 6.984375 36.375 
Q 6.984375 53.65625 15.1875 63.9375 
Q 23.390625 74.21875 37.203125 74.21875 
Q 40.921875 74.21875 44.703125 73.484375 
Q 48.484375 72.75 52.59375 71.296875 
z
" id="DejaVuSans-54"/>
      </defs>
      <g transform="translate(690.616922 532.097422)scale(0.165 -0.165)">
       <use xlink:href="#DejaVuSans-48"/>
       <use x="63.623047" xlink:href="#DejaVuSans-46"/>
       <use x="95.410156" xlink:href="#DejaVuSans-54"/>
      </g>
     </g>
    </g>
    <g id="xtick_5">
     <g id="line2d_5">
      <g>
       <use style="stroke:#000000;stroke-width:1.875;" x="911.586" xlink:href="#m8b7098b8d5" y="507.06"/>
      </g>
     </g>
     <g id="text_5">
      <!-- 0.8 -->
      <defs>
       <path d="M 31.78125 34.625 
Q 24.75 34.625 20.71875 30.859375 
Q 16.703125 27.09375 16.703125 20.515625 
Q 16.703125 13.921875 20.71875 10.15625 
Q 24.75 6.390625 31.78125 6.390625 
Q 38.8125 6.390625 42.859375 10.171875 
Q 46.921875 13.96875 46.921875 20.515625 
Q 46.921875 27.09375 42.890625 30.859375 
Q 38.875 34.625 31.78125 34.625 
z
M 21.921875 38.8125 
Q 15.578125 40.375 12.03125 44.71875 
Q 8.5 49.078125 8.5 55.328125 
Q 8.5 64.0625 14.71875 69.140625 
Q 20.953125 74.21875 31.78125 74.21875 
Q 42.671875 74.21875 48.875 69.140625 
Q 55.078125 64.0625 55.078125 55.328125 
Q 55.078125 49.078125 51.53125 44.71875 
Q 48 40.375 41.703125 38.8125 
Q 48.828125 37.15625 52.796875 32.3125 
Q 56.78125 27.484375 56.78125 20.515625 
Q 56.78125 9.90625 50.3125 4.234375 
Q 43.84375 -1.421875 31.78125 -1.421875 
Q 19.734375 -1.421875 13.25 4.234375 
Q 6.78125 9.90625 6.78125 20.515625 
Q 6.78125 27.484375 10.78125 32.3125 
Q 14.796875 37.15625 21.921875 38.8125 
z
M 18.3125 54.390625 
Q 18.3125 48.734375 21.84375 45.5625 
Q 25.390625 42.390625 31.78125 42.390625 
Q 38.140625 42.390625 41.71875 45.5625 
Q 45.3125 48.734375 45.3125 54.390625 
Q 45.3125 60.0625 41.71875 63.234375 
Q 38.140625 66.40625 31.78125 66.40625 
Q 25.390625 66.40625 21.84375 63.234375 
Q 18.3125 60.0625 18.3125 54.390625 
z
" id="DejaVuSans-56"/>
      </defs>
      <g transform="translate(898.465922 532.097422)scale(0.165 -0.165)">
       <use xlink:href="#DejaVuSans-48"/>
       <use x="63.623047" xlink:href="#DejaVuSans-46"/>
       <use x="95.410156" xlink:href="#DejaVuSans-56"/>
      </g>
     </g>
    </g>
    <g id="xtick_6">
     <g id="line2d_6">
      <g>
       <use style="stroke:#000000;stroke-width:1.875;" x="1119.435" xlink:href="#m8b7098b8d5" y="507.06"/>
      </g>
     </g>
     <g id="text_6">
      <!-- 1.0 -->
      <defs>
       <path d="M 12.40625 8.296875 
L 28.515625 8.296875 
L 28.515625 63.921875 
L 10.984375 60.40625 
L 10.984375 69.390625 
L 28.421875 72.90625 
L 38.28125 72.90625 
L 38.28125 8.296875 
L 54.390625 8.296875 
L 54.390625 0 
L 12.40625 0 
z
" id="DejaVuSans-49"/>
      </defs>
      <g transform="translate(1106.314922 532.097422)scale(0.165 -0.165)">
       <use xlink:href="#DejaVuSans-49"/>
       <use x="63.623047" xlink:href="#DejaVuSans-46"/>
       <use x="95.410156" xlink:href="#DejaVuSans-48"/>
      </g>
     </g>
    </g>
    <g id="text_7">
     <!-- Recall -->
     <defs>
      <path d="M 44.390625 34.1875 
Q 47.5625 33.109375 50.5625 29.59375 
Q 53.5625 26.078125 56.59375 19.921875 
L 66.609375 0 
L 56 0 
L 46.6875 18.703125 
Q 43.0625 26.03125 39.671875 28.421875 
Q 36.28125 30.8125 30.421875 30.8125 
L 19.671875 30.8125 
L 19.671875 0 
L 9.8125 0 
L 9.8125 72.90625 
L 32.078125 72.90625 
Q 44.578125 72.90625 50.734375 67.671875 
Q 56.890625 62.453125 56.890625 51.90625 
Q 56.890625 45.015625 53.6875 40.46875 
Q 50.484375 35.9375 44.390625 34.1875 
z
M 19.671875 64.796875 
L 19.671875 38.921875 
L 32.078125 38.921875 
Q 39.203125 38.921875 42.84375 42.21875 
Q 46.484375 45.515625 46.484375 51.90625 
Q 46.484375 58.296875 42.84375 61.546875 
Q 39.203125 64.796875 32.078125 64.796875 
z
" id="DejaVuSans-82"/>
      <path d="M 56.203125 29.59375 
L 56.203125 25.203125 
L 14.890625 25.203125 
Q 15.484375 15.921875 20.484375 11.0625 
Q 25.484375 6.203125 34.421875 6.203125 
Q 39.59375 6.203125 44.453125 7.46875 
Q 49.3125 8.734375 54.109375 11.28125 
L 54.109375 2.78125 
Q 49.265625 0.734375 44.1875 -0.34375 
Q 39.109375 -1.421875 33.890625 -1.421875 
Q 20.796875 -1.421875 13.15625 6.1875 
Q 5.515625 13.8125 5.515625 26.8125 
Q 5.515625 40.234375 12.765625 48.109375 
Q 20.015625 56 32.328125 56 
Q 43.359375 56 49.78125 48.890625 
Q 56.203125 41.796875 56.203125 29.59375 
z
M 47.21875 32.234375 
Q 47.125 39.59375 43.09375 43.984375 
Q 39.0625 48.390625 32.421875 48.390625 
Q 24.90625 48.390625 20.390625 44.140625 
Q 15.875 39.890625 15.1875 32.171875 
z
" id="DejaVuSans-101"/>
      <path d="M 48.78125 52.59375 
L 48.78125 44.1875 
Q 44.96875 46.296875 41.140625 47.34375 
Q 37.3125 48.390625 33.40625 48.390625 
Q 24.65625 48.390625 19.8125 42.84375 
Q 14.984375 37.3125 14.984375 27.296875 
Q 14.984375 17.28125 19.8125 11.734375 
Q 24.65625 6.203125 33.40625 6.203125 
Q 37.3125 6.203125 41.140625 7.25 
Q 44.96875 8.296875 48.78125 10.40625 
L 48.78125 2.09375 
Q 45.015625 0.34375 40.984375 -0.53125 
Q 36.96875 -1.421875 32.421875 -1.421875 
Q 20.0625 -1.421875 12.78125 6.34375 
Q 5.515625 14.109375 5.515625 27.296875 
Q 5.515625 40.671875 12.859375 48.328125 
Q 20.21875 56 33.015625 56 
Q 37.15625 56 41.109375 55.140625 
Q 45.0625 54.296875 48.78125 52.59375 
z
" id="DejaVuSans-99"/>
      <path d="M 34.28125 27.484375 
Q 23.390625 27.484375 19.1875 25 
Q 14.984375 22.515625 14.984375 16.5 
Q 14.984375 11.71875 18.140625 8.90625 
Q 21.296875 6.109375 26.703125 6.109375 
Q 34.1875 6.109375 38.703125 11.40625 
Q 43.21875 16.703125 43.21875 25.484375 
L 43.21875 27.484375 
z
M 52.203125 31.203125 
L 52.203125 0 
L 43.21875 0 
L 43.21875 8.296875 
Q 40.140625 3.328125 35.546875 0.953125 
Q 30.953125 -1.421875 24.3125 -1.421875 
Q 15.921875 -1.421875 10.953125 3.296875 
Q 6 8.015625 6 15.921875 
Q 6 25.140625 12.171875 29.828125 
Q 18.359375 34.515625 30.609375 34.515625 
L 43.21875 34.515625 
L 43.21875 35.40625 
Q 43.21875 41.609375 39.140625 45 
Q 35.0625 48.390625 27.6875 48.390625 
Q 23 48.390625 18.546875 47.265625 
Q 14.109375 46.140625 10.015625 43.890625 
L 10.015625 52.203125 
Q 14.9375 54.109375 19.578125 55.046875 
Q 24.21875 56 28.609375 56 
Q 40.484375 56 46.34375 49.84375 
Q 52.203125 43.703125 52.203125 31.203125 
z
" id="DejaVuSans-97"/>
      <path d="M 9.421875 75.984375 
L 18.40625 75.984375 
L 18.40625 0 
L 9.421875 0 
z
" id="DejaVuSans-108"/>
     </defs>
     <g transform="translate(572.562188 553.206094)scale(0.18 -0.18)">
      <use xlink:href="#DejaVuSans-82"/>
      <use x="69.419922" xlink:href="#DejaVuSans-101"/>
      <use x="130.943359" xlink:href="#DejaVuSans-99"/>
      <use x="185.923828" xlink:href="#DejaVuSans-97"/>
      <use x="247.203125" xlink:href="#DejaVuSans-108"/>
      <use x="274.986328" xlink:href="#DejaVuSans-108"/>
     </g>
    </g>
   </g>
   <g id="matplotlib.axis_2">
    <g id="ytick_1">
     <g id="line2d_7">
      <defs>
       <path d="M 0 0 
L -9 0 
" id="mdef0249fc8" style="stroke:#000000;stroke-width:1.875;"/>
      </defs>
      <g>
       <use style="stroke:#000000;stroke-width:1.875;" x="80.19" xlink:href="#mdef0249fc8" y="507.06"/>
      </g>
     </g>
     <g id="text_8">
      <!-- 0.0 -->
      <g transform="translate(41.449844 513.328711)scale(0.165 -0.165)">
       <use xlink:href="#DejaVuSans-48"/>
       <use x="63.623047" xlink:href="#DejaVuSans-46"/>
       <use x="95.410156" xlink:href="#DejaVuSans-48"/>
      </g>
     </g>
    </g>
    <g id="ytick_2">
     <g id="line2d_8">
      <g>
       <use style="stroke:#000000;stroke-width:1.875;" x="80.19" xlink:href="#mdef0249fc8" y="413.536"/>
      </g>
     </g>
     <g id="text_9">
      <!-- 0.2 -->
      <g transform="translate(41.449844 419.804711)scale(0.165 -0.165)">
       <use xlink:href="#DejaVuSans-48"/>
       <use x="63.623047" xlink:href="#DejaVuSans-46"/>
       <use x="95.410156" xlink:href="#DejaVuSans-50"/>
      </g>
     </g>
    </g>
    <g id="ytick_3">
     <g id="line2d_9">
      <g>
       <use style="stroke:#000000;stroke-width:1.875;" x="80.19" xlink:href="#mdef0249fc8" y="320.012"/>
      </g>
     </g>
     <g id="text_10">
      <!-- 0.4 -->
      <g transform="translate(41.449844 326.280711)scale(0.165 -0.165)">
       <use xlink:href="#DejaVuSans-48"/>
       <use x="63.623047" xlink:href="#DejaVuSans-46"/>
       <use x="95.410156" xlink:href="#DejaVuSans-52"/>
      </g>
     </g>
    </g>
    <g id="ytick_4">
     <g id="line2d_10">
      <g>
       <use style="stroke:#000000;stroke-width:1.875;" x="80.19" xlink:href="#mdef0249fc8" y="226.488"/>
      </g>
     </g>
     <g id="text_11">
      <!-- 0.6 -->
      <g transform="translate(41.449844 232.756711)scale(0.165 -0.165)">
       <use xlink:href="#DejaVuSans-48"/>
       <use x="63.623047" xlink:href="#DejaVuSans-46"/>
       <use x="95.410156" xlink:href="#DejaVuSans-54"/>
      </g>
     </g>
    </g>
    <g id="ytick_5">
     <g id="line2d_11">
      <g>
       <use style="stroke:#000000;stroke-width:1.875;" x="80.19" xlink:href="#mdef0249fc8" y="132.964"/>
      </g>
     </g>
     <g id="text_12">
      <!-- 0.8 -->
      <g transform="translate(41.449844 139.232711)scale(0.165 -0.165)">
       <use xlink:href="#DejaVuSans-48"/>
       <use x="63.623047" xlink:href="#DejaVuSans-46"/>
       <use x="95.410156" xlink:href="#DejaVuSans-56"/>
      </g>
     </g>
    </g>
    <g id="ytick_6">
     <g id="line2d_12">
      <g>
       <use style="stroke:#000000;stroke-width:1.875;" x="80.19" xlink:href="#mdef0249fc8" y="39.44"/>
      </g>
     </g>
     <g id="text_13">
      <!-- 1.0 -->
      <g transform="translate(41.449844 45.708711)scale(0.165 -0.165)">
       <use xlink:href="#DejaVuSans-49"/>
       <use x="63.623047" xlink:href="#DejaVuSans-46"/>
       <use x="95.410156" xlink:href="#DejaVuSans-48"/>
      </g>
     </g>
    </g>
    <g id="text_14">
     <!-- Percision -->
     <defs>
      <path d="M 19.671875 64.796875 
L 19.671875 37.40625 
L 32.078125 37.40625 
Q 38.96875 37.40625 42.71875 40.96875 
Q 46.484375 44.53125 46.484375 51.125 
Q 46.484375 57.671875 42.71875 61.234375 
Q 38.96875 64.796875 32.078125 64.796875 
z
M 9.8125 72.90625 
L 32.078125 72.90625 
Q 44.34375 72.90625 50.609375 67.359375 
Q 56.890625 61.8125 56.890625 51.125 
Q 56.890625 40.328125 50.609375 34.8125 
Q 44.34375 29.296875 32.078125 29.296875 
L 19.671875 29.296875 
L 19.671875 0 
L 9.8125 0 
z
" id="DejaVuSans-80"/>
      <path d="M 41.109375 46.296875 
Q 39.59375 47.171875 37.8125 47.578125 
Q 36.03125 48 33.890625 48 
Q 26.265625 48 22.1875 43.046875 
Q 18.109375 38.09375 18.109375 28.8125 
L 18.109375 0 
L 9.078125 0 
L 9.078125 54.6875 
L 18.109375 54.6875 
L 18.109375 46.1875 
Q 20.953125 51.171875 25.484375 53.578125 
Q 30.03125 56 36.53125 56 
Q 37.453125 56 38.578125 55.875 
Q 39.703125 55.765625 41.0625 55.515625 
z
" id="DejaVuSans-114"/>
      <path d="M 9.421875 54.6875 
L 18.40625 54.6875 
L 18.40625 0 
L 9.421875 0 
z
M 9.421875 75.984375 
L 18.40625 75.984375 
L 18.40625 64.59375 
L 9.421875 64.59375 
z
" id="DejaVuSans-105"/>
      <path d="M 44.28125 53.078125 
L 44.28125 44.578125 
Q 40.484375 46.53125 36.375 47.5 
Q 32.28125 48.484375 27.875 48.484375 
Q 21.1875 48.484375 17.84375 46.4375 
Q 14.5 44.390625 14.5 40.28125 
Q 14.5 37.15625 16.890625 35.375 
Q 19.28125 33.59375 26.515625 31.984375 
L 29.59375 31.296875 
Q 39.15625 29.25 43.1875 25.515625 
Q 47.21875 21.78125 47.21875 15.09375 
Q 47.21875 7.46875 41.1875 3.015625 
Q 35.15625 -1.421875 24.609375 -1.421875 
Q 20.21875 -1.421875 15.453125 -0.5625 
Q 10.6875 0.296875 5.421875 2 
L 5.421875 11.28125 
Q 10.40625 8.6875 15.234375 7.390625 
Q 20.0625 6.109375 24.8125 6.109375 
Q 31.15625 6.109375 34.5625 8.28125 
Q 37.984375 10.453125 37.984375 14.40625 
Q 37.984375 18.0625 35.515625 20.015625 
Q 33.0625 21.96875 24.703125 23.78125 
L 21.578125 24.515625 
Q 13.234375 26.265625 9.515625 29.90625 
Q 5.8125 33.546875 5.8125 39.890625 
Q 5.8125 47.609375 11.28125 51.796875 
Q 16.75 56 26.8125 56 
Q 31.78125 56 36.171875 55.265625 
Q 40.578125 54.546875 44.28125 53.078125 
z
" id="DejaVuSans-115"/>
      <path d="M 30.609375 48.390625 
Q 23.390625 48.390625 19.1875 42.75 
Q 14.984375 37.109375 14.984375 27.296875 
Q 14.984375 17.484375 19.15625 11.84375 
Q 23.34375 6.203125 30.609375 6.203125 
Q 37.796875 6.203125 41.984375 11.859375 
Q 46.1875 17.53125 46.1875 27.296875 
Q 46.1875 37.015625 41.984375 42.703125 
Q 37.796875 48.390625 30.609375 48.390625 
z
M 30.609375 56 
Q 42.328125 56 49.015625 48.375 
Q 55.71875 40.765625 55.71875 27.296875 
Q 55.71875 13.875 49.015625 6.21875 
Q 42.328125 -1.421875 30.609375 -1.421875 
Q 18.84375 -1.421875 12.171875 6.21875 
Q 5.515625 13.875 5.515625 27.296875 
Q 5.515625 40.765625 12.171875 48.375 
Q 18.84375 56 30.609375 56 
z
" id="DejaVuSans-111"/>
      <path d="M 54.890625 33.015625 
L 54.890625 0 
L 45.90625 0 
L 45.90625 32.71875 
Q 45.90625 40.484375 42.875 44.328125 
Q 39.84375 48.1875 33.796875 48.1875 
Q 26.515625 48.1875 22.3125 43.546875 
Q 18.109375 38.921875 18.109375 30.90625 
L 18.109375 0 
L 9.078125 0 
L 9.078125 54.6875 
L 18.109375 54.6875 
L 18.109375 46.1875 
Q 21.34375 51.125 25.703125 53.5625 
Q 30.078125 56 35.796875 56 
Q 45.21875 56 50.046875 50.171875 
Q 54.890625 44.34375 54.890625 33.015625 
z
" id="DejaVuSans-110"/>
     </defs>
     <g transform="translate(33.706406 313.755625)rotate(-90)scale(0.18 -0.18)">
      <use xlink:href="#DejaVuSans-80"/>
      <use x="60.255859" xlink:href="#DejaVuSans-101"/>
      <use x="121.779297" xlink:href="#DejaVuSans-114"/>
      <use x="162.861328" xlink:href="#DejaVuSans-99"/>
      <use x="217.841797" xlink:href="#DejaVuSans-105"/>
      <use x="245.625" xlink:href="#DejaVuSans-115"/>
      <use x="297.724609" xlink:href="#DejaVuSans-105"/>
      <use x="325.507812" xlink:href="#DejaVuSans-111"/>
      <use x="386.689453" xlink:href="#DejaVuSans-110"/>
     </g>
    </g>
   </g>
   <g id="line2d_13">
    <path clip-path="url(#p1680076bf7)" d="M 1119.435 215.676485 
L 1117.867511 215.842277 
L 1117.867511 215.293327 
L 1116.300023 215.459226 
L 1116.300023 213.24173 
L 1114.732534 213.407098 
L 1114.732534 212.003403 
L 1113.165045 212.168536 
L 1113.165045 211.31952 
L 1111.597557 211.48463 
L 1111.597557 210.630366 
L 1108.462579 210.960849 
L 1108.462579 210.674763 
L 1106.89509 210.840368 
L 1106.89509 210.553611 
L 1105.327602 210.719419 
L 1105.327602 209.27667 
L 1102.192624 209.608059 
L 1102.192624 209.02653 
L 1099.057647 209.358727 
L 1099.057647 208.774426 
L 1095.92267 209.107434 
L 1095.92267 204.647066 
L 1094.355181 204.812108 
L 1094.355181 204.50986 
L 1092.787692 204.675095 
L 1092.787692 203.459477 
L 1089.652715 203.789829 
L 1089.652715 203.17778 
L 1088.085226 203.343172 
L 1088.085226 203.036077 
L 1084.950249 203.367579 
L 1084.950249 203.059574 
L 1083.38276 203.225685 
L 1083.38276 201.051002 
L 1081.815271 201.216418 
L 1081.815271 199.32655 
L 1078.680294 199.656553 
L 1078.680294 199.338988 
L 1077.112805 199.504343 
L 1077.112805 199.185963 
L 1072.410339 199.683614 
L 1072.410339 199.043913 
L 1070.842851 199.210167 
L 1070.842851 198.567474 
L 1069.275362 198.733751 
L 1069.275362 198.088042 
L 1067.707873 198.25434 
L 1067.707873 195.971721 
L 1066.140385 196.137188 
L 1066.140385 194.485101 
L 1064.572896 194.650043 
L 1064.572896 193.314957 
L 1059.87043 193.809732 
L 1059.87043 193.136799 
L 1056.735452 193.467686 
L 1056.735452 192.791111 
L 1055.167964 192.956717 
L 1055.167964 192.617146 
L 1053.600475 192.782922 
L 1053.600475 192.442427 
L 1050.465498 192.77468 
L 1050.465498 192.090707 
L 1047.33052 192.423642 
L 1047.33052 192.080153 
L 1044.195543 192.414158 
L 1044.195543 192.069529 
L 1041.060566 192.40461 
L 1041.060566 192.058835 
L 1036.3581 192.563638 
L 1036.3581 191.17052 
L 1033.223122 191.507325 
L 1033.223122 191.156711 
L 1031.655633 191.325473 
L 1031.655633 189.914369 
L 1030.088145 190.082685 
L 1030.088145 189.015421 
L 1026.953167 189.351924 
L 1026.953167 188.994144 
L 1022.250701 189.501107 
L 1022.250701 188.781835 
L 1015.980747 189.461433 
L 1015.980747 187.644508 
L 1012.845769 187.984427 
L 1012.845769 186.8829 
L 1009.710792 187.223022 
L 1009.710792 186.112477 
L 1003.440837 186.794674 
L 1003.440837 186.048135 
L 1001.873348 186.219207 
L 1001.873348 185.844393 
L 995.603394 186.531737 
L 995.603394 186.155088 
L 989.333439 186.847957 
L 989.333439 186.090059 
L 984.630973 186.612565 
L 984.630973 183.92618 
L 979.928507 184.447163 
L 979.928507 184.058941 
L 965.821109 185.64236 
L 965.821109 184.858415 
L 959.551154 185.57125 
L 959.551154 184.384945 
L 956.416176 184.742392 
L 956.416176 184.344469 
L 948.578733 185.244497 
L 948.578733 184.442964 
L 947.011244 184.623766 
L 947.011244 184.221223 
L 943.876267 184.58363 
L 943.876267 183.774404 
L 942.308778 183.955729 
L 942.308778 182.733392 
L 940.74129 182.914318 
L 940.74129 182.504526 
L 934.471335 183.231665 
L 934.471335 181.992526 
L 931.336357 182.35711 
L 931.336357 181.941357 
L 929.768869 182.124051 
L 929.768869 181.706932 
L 928.20138 181.889794 
L 928.20138 181.4713 
L 926.633891 181.65433 
L 926.633891 181.234452 
L 920.363937 181.970091 
L 920.363937 181.547896 
L 915.661471 182.103729 
L 915.661471 181.25417 
L 914.093982 181.439791 
L 914.093982 181.013028 
L 910.959005 181.385099 
L 910.959005 179.231164 
L 903.121561 180.161864 
L 903.121561 179.726 
L 901.554072 179.913298 
L 901.554072 179.475936 
L 899.986584 179.6634 
L 899.986584 179.224531 
L 896.851606 179.600296 
L 896.851606 179.159569 
L 893.716629 179.53668 
L 893.716629 178.650284 
L 887.446674 179.407891 
L 887.446674 178.513888 
L 882.744208 179.085425 
L 882.744208 178.184396 
L 881.176719 178.375241 
L 881.176719 177.013287 
L 874.906765 177.777583 
L 874.906765 176.860362 
L 870.204299 177.436951 
L 870.204299 176.512342 
L 868.63681 176.70486 
L 868.63681 176.240225 
L 867.069321 176.432901 
L 867.069321 175.966573 
L 857.664389 177.131807 
L 857.664389 176.661823 
L 854.529412 177.053886 
L 854.529412 176.581774 
L 851.394434 176.975294 
L 851.394434 176.501034 
L 849.826946 176.698245 
L 849.826946 175.74482 
L 845.12448 176.337449 
L 845.12448 175.857446 
L 843.556991 176.055727 
L 843.556991 175.573916 
L 841.989502 175.772362 
L 841.989502 175.28873 
L 827.882104 177.097367 
L 827.882104 176.608533 
L 824.747127 177.016166 
L 824.747127 174.545778 
L 821.612149 174.951502 
L 821.612149 172.439334 
L 820.044661 172.640848 
L 820.044661 172.133384 
L 818.477172 172.335046 
L 818.477172 171.825571 
L 816.909683 172.027378 
L 816.909683 171.515878 
L 809.07224 172.531846 
L 809.07224 172.016394 
L 799.667308 173.253499 
L 799.667308 172.211981 
L 796.53233 172.627543 
L 796.53233 172.103354 
L 791.829864 172.73011 
L 791.829864 172.202776 
L 790.262376 172.412512 
L 790.262376 171.883006 
L 788.694887 172.0929 
L 788.694887 170.492739 
L 787.127398 170.701754 
L 787.127398 169.625408 
L 783.992421 170.043339 
L 783.992421 169.501511 
L 782.424932 169.71095 
L 782.424932 168.073333 
L 777.722466 168.700813 
L 777.722466 168.149739 
L 776.154977 168.359706 
L 776.154977 167.806275 
L 774.587489 168.016367 
L 774.587489 167.460557 
L 771.452511 167.881678 
L 771.452511 166.762277 
L 766.750045 167.395721 
L 766.750045 166.831495 
L 765.182557 167.043461 
L 765.182557 165.90818 
L 760.48009 166.544765 
L 760.48009 165.972471 
L 757.345113 166.399224 
L 757.345113 165.823784 
L 754.210136 166.252203 
L 754.210136 163.92587 
L 752.642647 164.138667 
L 752.642647 163.551473 
L 751.075158 163.764357 
L 751.075158 163.174502 
L 747.940181 163.601172 
L 747.940181 163.007979 
L 743.237715 163.651563 
L 743.237715 163.05433 
L 733.832783 164.357821 
L 733.832783 163.754472 
L 729.130317 164.414549 
L 729.130317 163.807021 
L 725.995339 164.249609 
L 725.995339 163.025286 
L 724.427851 163.246369 
L 724.427851 162.630215 
L 721.292873 163.073345 
L 721.292873 162.45355 
L 719.725385 162.675596 
L 719.725385 161.427826 
L 710.320452 162.768352 
L 710.320452 160.227454 
L 705.617986 160.89974 
L 705.617986 160.25632 
L 702.483009 160.707127 
L 702.483009 159.409925 
L 697.780543 160.087721 
L 697.780543 159.433057 
L 693.078077 160.116129 
L 693.078077 159.45654 
L 691.510588 159.685143 
L 691.510588 157.018157 
L 689.9431 157.244269 
L 689.9431 155.893629 
L 686.808122 156.345 
L 686.808122 154.98035 
L 685.240633 155.205575 
L 685.240633 154.518359 
L 682.105656 154.969647 
L 682.105656 154.277917 
L 678.970679 154.730927 
L 678.970679 154.034625 
L 664.863281 156.109779 
L 664.863281 154.691798 
L 658.593326 155.630713 
L 658.593326 154.91351 
L 653.89086 155.624846 
L 653.89086 154.901728 
L 650.755882 155.378843 
L 650.755882 154.650725 
L 649.188394 154.889751 
L 649.188394 153.422375 
L 646.053416 153.899289 
L 646.053416 151.6688 
L 644.485928 151.90557 
L 644.485928 150.400678 
L 641.35095 150.872851 
L 641.35095 150.11339 
L 636.648484 150.82588 
L 636.648484 150.059785 
L 635.080995 150.29819 
L 635.080995 147.195913 
L 633.513507 147.430675 
L 633.513507 144.269099 
L 630.378529 144.731921 
L 630.378529 143.93031 
L 622.541086 145.099105 
L 622.541086 144.287534 
L 611.568665 145.959362 
L 611.568665 145.134932 
L 608.433688 145.619771 
L 608.433688 144.788874 
L 606.866199 145.031613 
L 606.866199 143.355556 
L 605.29871 143.596659 
L 605.29871 141.902191 
L 600.596244 142.623756 
L 600.596244 140.039102 
L 597.461267 140.517007 
L 597.461267 139.644286 
L 595.893778 139.883437 
L 595.893778 139.005024 
L 588.056335 140.210412 
L 588.056335 138.425255 
L 584.921357 138.909291 
L 584.921357 138.006961 
L 581.78638 138.492512 
L 581.78638 136.667921 
L 575.516425 137.6402 
L 575.516425 135.783819 
L 570.813959 136.515544 
L 570.813959 135.575076 
L 569.246471 135.819695 
L 569.246471 134.872653 
L 562.976516 135.856495 
L 562.976516 134.897313 
L 559.841538 135.393195 
L 559.841538 134.425313 
L 539.464186 137.753639 
L 525.356787 140.197901 
L 525.356787 138.159778 
L 522.22181 138.711285 
L 522.22181 137.679496 
L 520.654321 137.955449 
L 520.654321 136.915718 
L 511.249389 138.591519 
L 511.249389 136.467781 
L 509.6819 136.748208 
L 509.6819 134.595233 
L 490.872036 138.034578 
L 486.16957 138.933617 
L 486.16957 137.81128 
L 484.602081 138.11211 
L 484.602081 135.841662 
L 473.629661 137.963711 
L 473.629661 136.799369 
L 472.062172 137.107468 
L 472.062172 135.933016 
L 459.522262 138.447492 
L 459.522262 137.242876 
L 454.819796 138.211221 
L 454.819796 136.989868 
L 448.549842 138.299262 
L 448.549842 137.057643 
L 446.982353 137.387432 
L 446.982353 136.134305 
L 436.009932 138.484514 
L 436.009932 137.200279 
L 434.442443 137.542098 
L 434.442443 136.245544 
L 423.470023 138.683094 
L 423.470023 136.013696 
L 418.767557 137.074945 
L 418.767557 134.344428 
L 404.660158 137.604504 
L 403.09267 137.980613 
L 403.09267 136.561077 
L 396.822715 138.078594 
L 396.822715 135.173228 
L 395.255226 135.551621 
L 395.255226 132.591394 
L 393.687738 132.964 
L 393.687738 128.420324 
L 379.580339 131.785126 
L 374.877873 132.964 
L 374.877873 131.365299 
L 365.472941 133.784386 
L 365.472941 132.14 
L 360.770475 133.381518 
L 360.770475 131.70583 
L 357.635498 132.540814 
L 357.635498 130.838455 
L 345.095588 134.287453 
L 345.095588 132.520758 
L 337.258145 134.78 
L 337.258145 131.130196 
L 335.690656 131.581872 
L 335.690656 129.723069 
L 330.98819 131.084121 
L 330.98819 129.185253 
L 329.420701 129.640812 
L 329.420701 123.804433 
L 320.015769 126.496915 
L 320.015769 124.461818 
L 313.745814 126.320219 
L 313.745814 124.228242 
L 302.773394 127.619771 
L 294.93595 130.213294 
L 294.93595 125.727024 
L 288.665995 127.831585 
L 288.665995 123.149753 
L 283.963529 124.729182 
L 283.963529 122.309367 
L 276.126086 125.017516 
L 276.126086 119.957351 
L 272.991109 121.038121 
L 272.991109 118.429865 
L 271.42362 118.967211 
L 271.42362 116.309041 
L 262.018688 119.603429 
L 254.181244 122.572444 
L 254.181244 119.703134 
L 251.046267 120.919242 
L 251.046267 117.971603 
L 249.478778 118.575692 
L 249.478778 109.398898 
L 246.343801 110.51824 
L 246.343801 107.320323 
L 244.776312 107.872195 
L 244.776312 104.600164 
L 236.938869 107.384786 
L 235.37138 107.970517 
L 235.37138 104.500174 
L 230.668914 106.242857 
L 230.668914 102.631892 
L 225.966448 104.387222 
L 225.966448 96.789623 
L 218.129005 99.628713 
L 214.994027 100.844646 
L 214.994027 96.699592 
L 211.85905 97.8925 
L 211.85905 93.585474 
L 205.589095 95.965495 
L 202.454118 97.23573 
L 202.454118 92.578636 
L 196.184163 95.109048 
L 189.914208 97.8925 
L 189.914208 92.713165 
L 183.644253 95.5544 
L 180.509276 97.091781 
L 180.509276 85.54338 
L 174.239321 88.295821 
L 174.239321 81.950909 
L 169.536855 83.975238 
L 164.834389 86.202 
L 160.131923 88.663158 
L 160.131923 81.191786 
L 155.429457 83.555094 
L 150.726991 86.202 
L 146.024525 89.186809 
L 142.889548 91.397778 
L 142.889548 81.950909 
L 141.322059 82.939535 
L 141.322059 72.841429 
L 139.75457 73.656098 
L 139.75457 62.821 
L 135.052104 64.716757 
L 131.917127 66.161143 
L 128.782149 67.780606 
L 125.647172 69.609032 
L 122.512195 71.689655 
L 119.377217 74.078519 
L 116.24224 76.8496 
L 113.107262 80.102609 
L 111.539774 81.950909 
L 109.972285 83.975238 
L 108.404796 86.202 
L 106.837308 88.663158 
L 105.269819 91.397778 
L 103.70233 94.454118 
L 102.134842 97.8925 
L 100.567353 101.789333 
L 98.999864 106.242857 
L 97.432376 111.381538 
L 95.864887 117.376667 
L 94.297398 124.461818 
L 92.72991 132.964 
L 91.162421 143.355556 
L 91.162421 97.8925 
L 89.594932 106.242857 
L 88.027443 117.376667 
L 86.459955 132.964 
L 86.459955 39.44 
L 80.19 39.44 
L 80.19 39.44 
" style="fill:none;stroke:#ff0000;stroke-linecap:square;stroke-width:2.25;"/>
   </g>
   <g id="line2d_14">
    <path clip-path="url(#p1680076bf7)" d="M 1119.435 216.223171 
L 1117.867511 216.389164 
L 1117.867511 215.018075 
L 1116.300023 215.183872 
L 1116.300023 214.354678 
L 1113.165045 214.686584 
L 1113.165045 211.035427 
L 1111.597557 211.200423 
L 1111.597557 210.058108 
L 1108.462579 210.388124 
L 1108.462579 209.524869 
L 1105.327602 209.855452 
L 1105.327602 209.566342 
L 1103.760113 209.731996 
L 1103.760113 209.151844 
L 1102.192624 209.317578 
L 1102.192624 209.02653 
L 1100.625136 209.192466 
L 1100.625136 207.433406 
L 1099.057647 207.598916 
L 1099.057647 206.414105 
L 1097.490158 206.579426 
L 1097.490158 206.281625 
L 1095.92267 206.447143 
L 1095.92267 204.647066 
L 1092.787692 204.97748 
L 1092.787692 204.372104 
L 1091.220204 204.537533 
L 1091.220204 203.318912 
L 1089.652715 203.484113 
L 1089.652715 203.17778 
L 1084.950249 203.67496 
L 1084.950249 203.367579 
L 1080.247783 203.867358 
L 1080.247783 202.940163 
L 1078.680294 203.107 
L 1078.680294 202.173675 
L 1077.112805 202.34041 
L 1077.112805 201.400884 
L 1067.707873 202.405812 
L 1067.707873 202.090435 
L 1066.140385 202.258984 
L 1066.140385 199.711014 
L 1063.005407 200.04666 
L 1063.005407 198.105585 
L 1061.437919 198.272954 
L 1061.437919 197.946885 
L 1059.87043 198.11444 
L 1059.87043 196.472859 
L 1058.302941 196.639915 
L 1058.302941 195.978038 
L 1056.735452 196.145101 
L 1056.735452 195.812927 
L 1052.032986 196.315734 
L 1052.032986 194.304444 
L 1050.465498 194.471685 
L 1050.465498 194.133751 
L 1048.898009 194.301169 
L 1048.898009 193.962319 
L 1047.33052 194.129913 
L 1047.33052 193.44963 
L 1045.763032 193.617214 
L 1045.763032 192.933588 
L 1044.195543 193.101157 
L 1044.195543 191.724145 
L 1039.493077 192.226733 
L 1039.493077 191.88 
L 1037.925588 192.048071 
L 1037.925588 191.700375 
L 1036.3581 191.868619 
L 1036.3581 191.519956 
L 1033.223122 191.857162 
L 1033.223122 191.156711 
L 1031.655633 191.325473 
L 1031.655633 189.204076 
L 1030.088145 189.371973 
L 1030.088145 188.658067 
L 1028.520656 188.825917 
L 1028.520656 187.748375 
L 1026.953167 187.915955 
L 1026.953167 186.830431 
L 1023.81819 187.165409 
L 1023.81819 186.801479 
L 1014.413258 187.814273 
L 1014.413258 187.081217 
L 1012.845769 187.25092 
L 1012.845769 186.8829 
L 1011.278281 187.052765 
L 1011.278281 186.683668 
L 1009.710792 186.853695 
L 1009.710792 186.483514 
L 1005.008326 186.995267 
L 1005.008326 186.623531 
L 1000.30586 187.138159 
L 1000.30586 186.764854 
L 997.170882 187.109474 
L 997.170882 185.982887 
L 995.603394 186.155088 
L 995.603394 185.777553 
L 994.035905 185.949918 
L 994.035905 185.57125 
L 992.468416 185.743778 
L 992.468416 184.983266 
L 986.198462 185.675505 
L 986.198462 183.366156 
L 981.495995 183.88512 
L 981.495995 182.715609 
L 979.928507 182.888647 
L 979.928507 181.315 
L 970.523575 182.355648 
L 970.523575 181.958213 
L 968.956086 182.132868 
L 968.956086 181.734184 
L 967.388597 181.908993 
L 967.388597 181.509053 
L 957.983665 182.565328 
L 957.983665 181.75913 
L 956.416176 181.936144 
L 956.416176 181.531258 
L 954.848688 181.708429 
L 954.848688 180.89505 
L 953.281199 181.07209 
L 953.281199 180.663584 
L 951.71371 180.840778 
L 951.71371 180.430955 
L 950.146222 180.608302 
L 950.146222 180.197154 
L 943.876267 180.909848 
L 943.876267 180.496477 
L 942.308778 180.675482 
L 942.308778 179.844987 
L 939.173801 180.203163 
L 939.173801 179.785722 
L 937.606312 179.965192 
L 937.606312 179.126487 
L 936.038824 179.305802 
L 936.038824 178.884524 
L 934.471335 179.06399 
L 934.471335 178.217548 
L 928.20138 178.937536 
L 928.20138 178.084161 
L 923.498914 178.627154 
L 923.498914 177.335806 
L 920.363937 177.698213 
L 920.363937 177.264842 
L 915.661471 177.811044 
L 915.661471 175.621888 
L 914.093982 175.803222 
L 914.093982 175.361547 
L 910.959005 175.724973 
L 910.959005 175.281419 
L 903.121561 176.196792 
L 903.121561 174.85364 
L 895.284118 175.776076 
L 895.284118 174.870929 
L 892.14914 175.241973 
L 892.14914 174.330385 
L 884.311697 175.263237 
L 884.311697 172.952674 
L 882.744208 173.138884 
L 882.744208 172.204839 
L 878.041742 172.764242 
L 878.041742 172.294065 
L 876.474253 172.481183 
L 876.474253 171.536045 
L 874.906765 171.722885 
L 874.906765 171.247904 
L 873.339276 171.434865 
L 873.339276 170.958125 
L 871.771787 171.145206 
L 871.771787 169.705571 
L 870.204299 169.891931 
L 870.204299 168.924448 
L 862.366855 169.860029 
L 862.366855 169.372041 
L 860.799367 169.560348 
L 860.799367 168.579244 
L 859.231878 168.76722 
L 859.231878 167.779504 
L 857.664389 167.967135 
L 857.664389 167.470659 
L 856.0969 167.658387 
L 856.0969 167.16 
L 854.529412 167.347824 
L 854.529412 166.847511 
L 852.961923 167.035428 
L 852.961923 166.533176 
L 851.394434 166.721183 
L 851.394434 166.216978 
L 846.691968 166.782946 
L 846.691968 166.275827 
L 843.556991 166.655007 
L 843.556991 164.607459 
L 838.854525 165.174683 
L 838.854525 164.138667 
L 831.017081 165.090565 
L 831.017081 163.517086 
L 829.449593 163.70768 
L 829.449593 163.179446 
L 826.314615 163.561358 
L 826.314615 163.030448 
L 824.747127 163.221765 
L 824.747127 158.910313 
L 821.612149 159.286006 
L 821.612149 158.188927 
L 816.909683 158.753502 
L 816.909683 158.200635 
L 809.07224 159.15072 
L 809.07224 158.033836 
L 807.504751 158.224502 
L 807.504751 157.66277 
L 801.234796 158.429206 
L 801.234796 156.725798 
L 790.262376 158.078353 
L 790.262376 157.502475 
L 787.127398 157.893411 
L 787.127398 156.733389 
L 785.55991 156.928552 
L 785.55991 155.759499 
L 782.424932 156.149179 
L 782.424932 155.560403 
L 776.154977 156.345 
L 776.154977 155.751574 
L 771.452511 156.345 
L 771.452511 155.74753 
L 758.912602 157.354542 
L 758.912602 156.749516 
L 754.210136 157.361565 
L 754.210136 156.752334 
L 749.50767 157.368687 
L 749.50767 156.139543 
L 747.940181 156.345 
L 747.940181 155.726455 
L 744.805204 156.138088 
L 744.805204 154.891474 
L 740.102738 155.509964 
L 740.102738 153.616517 
L 736.96776 154.027964 
L 736.96776 153.390722 
L 735.400271 153.596781 
L 735.400271 152.956449 
L 733.832783 153.162468 
L 733.832783 151.873224 
L 724.427851 153.11558 
L 724.427851 152.462546 
L 722.860362 152.67146 
L 722.860362 151.356475 
L 719.725385 151.773296 
L 719.725385 151.110448 
L 716.590407 151.528689 
L 716.590407 150.192105 
L 704.050498 151.882977 
L 704.050498 151.203862 
L 697.780543 152.065241 
L 697.780543 151.379923 
L 693.078077 152.032 
L 693.078077 151.341284 
L 691.510588 151.559415 
L 691.510588 150.865078 
L 686.808122 151.521807 
L 686.808122 150.821929 
L 671.133235 153.058514 
L 671.133235 152.346237 
L 663.295792 153.493659 
L 663.295792 152.050531 
L 652.323371 153.682567 
L 652.323371 152.949419 
L 631.946018 156.095736 
L 631.946018 155.345812 
L 630.378529 155.594004 
L 630.378529 154.839785 
L 622.541086 156.09141 
L 622.541086 153.792489 
L 616.271131 154.8 
L 616.271131 152.456807 
L 608.433688 153.723812 
L 608.433688 152.929798 
L 603.731222 153.70009 
L 603.731222 152.093909 
L 591.191312 154.180093 
L 591.191312 152.538791 
L 589.623824 152.802424 
L 589.623824 151.97472 
L 588.056335 152.238267 
L 588.056335 151.405352 
L 575.516425 153.54823 
L 575.516425 152.70048 
L 570.813959 153.521208 
L 570.813959 149.199218 
L 566.111493 150.010246 
L 566.111493 149.128642 
L 564.544005 149.400149 
L 564.544005 147.620746 
L 552.004095 149.81731 
L 552.004095 148.908295 
L 548.869118 149.468235 
L 548.869118 147.629717 
L 545.73414 148.188837 
L 545.73414 147.259119 
L 541.031674 148.103655 
L 541.031674 147.163979 
L 537.896697 147.730947 
L 537.896697 146.78285 
L 536.329208 147.066825 
L 536.329208 145.151968 
L 533.194231 145.717273 
L 533.194231 144.748525 
L 528.491765 145.602378 
L 528.491765 143.637935 
L 525.356787 144.207322 
L 525.356787 142.213626 
L 523.789299 142.496749 
L 523.789299 141.489669 
L 522.22181 141.772355 
L 522.22181 139.737326 
L 520.654321 140.017486 
L 520.654321 137.955449 
L 519.086833 138.232958 
L 519.086833 136.143286 
L 517.519344 136.418011 
L 517.519344 135.362051 
L 503.411946 137.886316 
L 503.411946 134.619292 
L 490.872036 136.919698 
L 490.872036 135.798061 
L 479.899615 137.886316 
L 479.899615 136.739814 
L 472.062172 138.274511 
L 472.062172 137.107468 
L 457.954774 139.970684 
L 457.954774 138.771046 
L 450.11733 140.421063 
L 450.11733 139.198933 
L 437.577421 141.932055 
L 437.577421 140.67732 
L 432.874955 141.731875 
L 432.874955 137.886316 
L 431.307466 138.232958 
L 431.307466 136.929682 
L 428.172489 137.623559 
L 428.172489 134.975269 
L 425.037511 135.665054 
L 425.037511 134.31942 
L 417.200068 136.069963 
L 417.200068 134.695926 
L 412.497602 135.766217 
L 412.497602 134.370376 
L 409.362624 135.089545 
L 409.362624 133.675209 
L 401.525181 135.501473 
L 401.525181 134.05572 
L 398.390204 134.797804 
L 398.390204 133.332205 
L 384.282805 136.781306 
L 382.715317 137.180246 
L 382.715317 135.658107 
L 373.310385 138.094008 
L 373.310385 133.363675 
L 370.175407 134.173362 
L 370.175407 132.559134 
L 367.04043 133.372402 
L 367.04043 125.031161 
L 362.337964 126.193032 
L 362.337964 124.461818 
L 359.202986 125.241835 
L 359.202986 123.482304 
L 357.635498 123.871389 
L 357.635498 122.089116 
L 356.068009 122.475327 
L 356.068009 120.669765 
L 351.365543 121.83019 
L 351.365543 119.986986 
L 346.663077 121.16 
L 346.663077 119.277561 
L 334.123167 122.519695 
L 332.555679 122.943571 
L 332.555679 120.973744 
L 330.98819 121.394021 
L 330.98819 119.395751 
L 320.015769 122.404839 
L 316.880792 123.30663 
L 316.880792 121.209617 
L 313.745814 122.113149 
L 313.745814 119.974556 
L 310.610837 120.879438 
L 310.610837 118.697627 
L 301.205905 121.478596 
L 301.205905 119.210471 
L 299.638416 119.682485 
L 299.638416 117.376667 
L 296.503439 118.315663 
L 296.503439 113.574878 
L 294.93595 114.029693 
L 294.93595 106.660375 
L 288.665995 108.383974 
L 288.665995 105.811871 
L 283.963529 107.121842 
L 283.963529 101.789333 
L 282.396041 102.207785 
L 282.396041 99.472297 
L 272.991109 102.008873 
L 265.153665 104.292409 
L 265.153665 101.330882 
L 260.451199 102.726917 
L 260.451199 99.663788 
L 254.181244 101.545781 
L 254.181244 98.352756 
L 252.613756 98.820317 
L 252.613756 95.5544 
L 243.208824 98.383697 
L 235.37138 100.968947 
L 227.533937 103.791376 
L 222.831471 105.612642 
L 222.831471 101.789333 
L 216.561516 104.258614 
L 216.561516 100.2306 
L 213.426538 101.471224 
L 213.426538 97.289897 
L 207.156584 99.778065 
L 200.886629 102.489888 
L 200.886629 88.376977 
L 194.616674 90.764146 
L 191.481697 92.04725 
L 191.481697 86.793924 
L 185.211742 89.319467 
L 178.941787 92.129577 
L 174.239321 94.454118 
L 169.536855 96.993231 
L 164.834389 99.778065 
L 160.131923 102.846102 
L 155.429457 106.242857 
L 152.29448 108.717037 
L 152.29448 101.201132 
L 149.159502 103.623137 
L 146.024525 106.242857 
L 142.889548 109.085532 
L 142.889548 91.397778 
L 139.75457 93.814419 
L 136.619593 96.466829 
L 133.484615 99.391282 
L 130.349638 102.631892 
L 127.214661 106.242857 
L 127.214661 94.454118 
L 124.079683 97.8925 
L 120.944706 101.789333 
L 120.944706 72.841429 
L 117.809729 75.410769 
L 114.674751 78.408333 
L 113.107262 80.102609 
L 113.107262 60.695455 
L 109.972285 62.821 
L 106.837308 65.418889 
L 105.269819 66.947059 
L 103.70233 68.66625 
L 102.134842 70.614667 
L 100.567353 72.841429 
L 98.999864 75.410769 
L 97.432376 78.408333 
L 95.864887 81.950909 
L 94.297398 86.202 
L 92.72991 91.397778 
L 91.162421 97.8925 
L 89.594932 106.242857 
L 89.594932 39.44 
L 80.19 39.44 
L 80.19 39.44 
" style="fill:none;stroke:#000000;stroke-linecap:square;stroke-width:2.25;"/>
   </g>
   <g id="line2d_15">
    <path clip-path="url(#p1680076bf7)" d="M 1119.435 216.223171 
L 1116.300023 216.55547 
L 1116.300023 216.282183 
L 1111.597557 216.782679 
L 1111.597557 216.233951 
L 1108.462579 216.568788 
L 1108.462579 215.741178 
L 1106.89509 215.908764 
L 1106.89509 214.7975 
L 1102.192624 215.300919 
L 1102.192624 214.460921 
L 1100.625136 214.629049 
L 1100.625136 214.347865 
L 1095.92267 214.853867 
L 1095.92267 214.006074 
L 1094.355181 214.175063 
L 1094.355181 213.322 
L 1092.787692 213.490982 
L 1092.787692 213.205409 
L 1091.220204 213.374606 
L 1091.220204 213.088363 
L 1089.652715 213.257776 
L 1089.652715 212.970859 
L 1086.517738 213.31045 
L 1086.517738 212.734471 
L 1084.950249 212.904534 
L 1084.950249 212.61558 
L 1083.38276 212.78586 
L 1083.38276 211.331937 
L 1081.815271 211.501958 
L 1081.815271 210.916115 
L 1080.247783 211.08623 
L 1080.247783 209.313932 
L 1078.680294 209.483636 
L 1078.680294 208.289749 
L 1075.545317 208.629146 
L 1075.545317 208.028077 
L 1073.977828 208.198024 
L 1073.977828 207.896448 
L 1072.410339 208.066606 
L 1072.410339 206.853651 
L 1069.275362 207.193923 
L 1069.275362 206.888871 
L 1063.005407 207.573034 
L 1063.005407 206.959959 
L 1059.87043 207.30359 
L 1059.87043 206.995832 
L 1055.167964 207.513512 
L 1055.167964 207.204701 
L 1053.600475 207.377833 
L 1053.600475 207.068244 
L 1052.032986 207.241593 
L 1052.032986 206.308548 
L 1050.465498 206.481828 
L 1050.465498 203.963895 
L 1047.33052 204.309171 
L 1047.33052 203.991155 
L 1044.195543 204.337579 
L 1044.195543 204.018588 
L 1036.3581 204.890297 
L 1036.3581 203.281299 
L 1033.223122 203.631014 
L 1033.223122 203.306838 
L 1031.655633 203.482096 
L 1031.655633 203.157066 
L 1028.520656 203.508391 
L 1028.520656 202.855591 
L 1025.385679 203.20778 
L 1025.385679 202.222314 
L 1020.683213 202.751974 
L 1020.683213 202.421564 
L 1019.115724 202.598717 
L 1019.115724 201.935403 
L 1017.548235 202.112606 
L 1017.548235 201.779694 
L 1011.278281 202.491711 
L 1011.278281 201.486535 
L 1009.710792 201.665 
L 1009.710792 201.328291 
L 1008.143303 201.506976 
L 1008.143303 200.491849 
L 1001.873348 201.208432 
L 1001.873348 200.86784 
L 1000.30586 201.047804 
L 1000.30586 199.332489 
L 998.738371 199.511942 
L 998.738371 198.820045 
L 994.035905 199.359707 
L 994.035905 198.663552 
L 989.333439 199.205743 
L 989.333439 198.505279 
L 986.198462 198.868027 
L 986.198462 198.51621 
L 981.495995 199.062864 
L 981.495995 198.355637 
L 979.928507 198.538299 
L 979.928507 198.183268 
L 975.226041 198.733187 
L 975.226041 197.661367 
L 970.523575 198.213302 
L 970.523575 195.678804 
L 967.388597 196.045993 
L 967.388597 194.577214 
L 962.686131 195.128649 
L 962.686131 194.758624 
L 956.416176 195.499118 
L 956.416176 195.127327 
L 953.281199 195.499785 
L 953.281199 194.752638 
L 951.71371 194.939088 
L 951.71371 193.81094 
L 950.146222 193.997153 
L 950.146222 193.619058 
L 945.443756 194.179709 
L 945.443756 193.8 
L 940.74129 194.364044 
L 940.74129 193.60044 
L 939.173801 193.7889 
L 939.173801 193.405459 
L 937.606312 193.594142 
L 937.606312 193.209521 
L 936.038824 193.398428 
L 936.038824 193.01262 
L 931.336357 193.581407 
L 931.336357 192.80547 
L 923.498914 193.760423 
L 923.498914 193.369776 
L 921.931425 193.561948 
L 921.931425 193.170075 
L 920.363937 193.362478 
L 920.363937 192.575282 
L 917.228959 192.960528 
L 917.228959 192.564937 
L 914.093982 192.951616 
L 914.093982 191.757288 
L 909.391516 192.338651 
L 909.391516 191.535791 
L 907.824027 191.730038 
L 907.824027 191.326803 
L 904.68905 191.716256 
L 904.68905 191.311451 
L 901.554072 191.702368 
L 901.554072 191.295979 
L 898.419095 191.688372 
L 898.419095 191.280388 
L 895.284118 191.674267 
L 895.284118 190.854018 
L 884.311697 192.244961 
L 884.311697 191.831275 
L 881.176719 192.232833 
L 881.176719 191.817493 
L 878.041742 192.220608 
L 878.041742 191.803603 
L 876.474253 192.005676 
L 876.474253 191.167766 
L 867.069321 192.388097 
L 867.069321 190.691752 
L 865.501833 190.89587 
L 865.501833 190.468622 
L 863.934344 190.672991 
L 863.934344 190.244282 
L 859.231878 190.85981 
L 859.231878 189.563907 
L 852.961923 190.388764 
L 852.961923 189.953177 
L 841.989502 191.4165 
L 841.989502 190.53727 
L 840.422014 190.748006 
L 840.422014 190.306229 
L 834.152059 191.153792 
L 834.152059 190.70948 
L 829.449593 191.350452 
L 829.449593 190.903904 
L 827.882104 191.118442 
L 827.882104 190.670298 
L 823.179638 191.316581 
L 823.179638 189.961459 
L 818.477172 190.610259 
L 818.477172 189.6983 
L 813.774706 190.350651 
L 813.774706 189.431321 
L 812.207217 189.649331 
L 812.207217 189.187307 
L 810.639729 189.405598 
L 810.639729 188.476784 
L 809.07224 188.694993 
L 809.07224 188.228182 
L 805.937262 188.665794 
L 805.937262 188.196878 
L 802.802285 188.636337 
L 802.802285 187.692859 
L 799.667308 188.133432 
L 799.667308 187.182832 
L 798.099819 187.403343 
L 798.099819 186.925531 
L 790.262376 188.036114 
L 790.262376 186.5882 
L 785.55991 187.259088 
L 785.55991 186.772329 
L 783.992421 186.996921 
L 783.992421 186.508275 
L 782.424932 186.73315 
L 782.424932 186.242603 
L 776.154977 187.147396 
L 776.154977 185.661734 
L 774.587489 185.888434 
L 774.587489 184.387632 
L 771.452511 184.840594 
L 771.452511 184.336338 
L 763.615068 185.479054 
L 763.615068 184.971027 
L 760.48009 185.432298 
L 760.48009 184.409634 
L 758.912602 184.640478 
L 758.912602 184.126252 
L 755.777624 184.589248 
L 755.777624 184.072468 
L 754.210136 184.304623 
L 754.210136 183.785723 
L 752.642647 184.018164 
L 752.642647 183.497129 
L 751.075158 183.729855 
L 751.075158 183.206667 
L 749.50767 183.439676 
L 749.50767 182.914318 
L 747.940181 183.14761 
L 747.940181 182.090799 
L 740.102738 183.263914 
L 740.102738 181.658314 
L 735.400271 182.367043 
L 735.400271 181.826789 
L 732.265294 182.302204 
L 732.265294 179.568552 
L 730.697805 179.804857 
L 730.697805 178.140847 
L 729.130317 178.376333 
L 729.130317 177.256457 
L 725.995339 177.727624 
L 725.995339 177.163699 
L 721.292873 177.874836 
L 721.292873 177.307276 
L 718.157896 177.784325 
L 718.157896 177.213657 
L 708.752964 178.661366 
L 708.752964 178.085228 
L 707.185475 178.328893 
L 707.185475 175.41461 
L 693.078077 177.619604 
L 693.078077 176.428137 
L 688.375611 177.175345 
L 688.375611 175.971387 
L 682.105656 176.975294 
L 682.105656 176.367403 
L 680.538167 176.620037 
L 680.538167 176.009242 
L 677.40319 176.515993 
L 677.40319 175.901599 
L 667.998258 177.440639 
L 667.998258 176.819887 
L 666.430769 177.079094 
L 666.430769 176.455312 
L 660.160814 177.499238 
L 660.160814 176.870305 
L 652.323371 178.194297 
L 652.323371 177.559421 
L 649.188394 178.094767 
L 649.188394 177.456 
L 647.620905 177.724514 
L 647.620905 177.082534 
L 646.053416 177.351367 
L 646.053416 176.706145 
L 641.35095 177.516772 
L 641.35095 176.214229 
L 628.811041 178.411406 
L 628.811041 177.08621 
L 624.108575 177.923813 
L 624.108575 177.254837 
L 620.973597 177.817347 
L 620.973597 176.467992 
L 617.83862 177.031893 
L 617.83862 176.351423 
L 610.001176 177.777583 
L 610.001176 175.706625 
L 608.433688 175.992899 
L 608.433688 175.295916 
L 603.731222 176.159407 
L 603.731222 175.456858 
L 602.163733 175.039829 
L 600.596244 175.329573 
L 600.596244 174.619229 
L 594.32629 175.787084 
L 594.32629 174.349892 
L 591.191312 174.937734 
L 591.191312 172.752719 
L 586.488846 173.635585 
L 586.488846 172.89792 
L 583.353869 173.491067 
L 583.353869 171.252349 
L 572.381448 173.349364 
L 572.381448 172.589203 
L 564.544005 174.12318 
L 564.544005 173.354273 
L 562.976516 173.664259 
L 562.976516 172.890719 
L 561.409027 173.20107 
L 561.409027 172.422844 
L 559.841538 172.733551 
L 559.841538 171.950585 
L 553.571584 173.203641 
L 553.571584 172.412512 
L 547.301629 173.684976 
L 547.301629 171.275036 
L 545.73414 171.593478 
L 545.73414 169.965 
L 542.599163 170.601707 
L 542.599163 168.952402 
L 541.031674 169.270614 
L 541.031674 165.917866 
L 536.329208 166.86645 
L 536.329208 165.156935 
L 530.059253 166.433249 
L 530.059253 164.695357 
L 528.491765 165.015703 
L 528.491765 161.480362 
L 517.519344 163.728474 
L 517.519344 162.822586 
L 515.951855 163.148995 
L 515.951855 161.319681 
L 514.384367 161.644693 
L 514.384367 160.721123 
L 506.546923 162.364499 
L 506.546923 161.427826 
L 504.979434 161.760218 
L 504.979434 160.816776 
L 497.141991 162.497895 
L 497.141991 160.578329 
L 495.574502 160.916704 
L 495.574502 157.00548 
L 494.007014 157.338527 
L 494.007014 154.340914 
L 490.872036 155.001264 
L 490.872036 152.966243 
L 487.737059 153.626279 
L 487.737059 152.59586 
L 484.602081 153.259531 
L 484.602081 152.218941 
L 479.899615 153.222908 
L 479.899615 152.169821 
L 478.332127 152.506328 
L 478.332127 149.30253 
L 475.197149 149.968364 
L 475.197149 147.790976 
L 472.062172 148.455706 
L 472.062172 146.242099 
L 468.927195 146.905466 
L 468.927195 145.783489 
L 464.224729 146.78673 
L 464.224729 145.650221 
L 459.522262 146.664968 
L 459.522262 142.01471 
L 450.11733 144.039211 
L 450.11733 139.198933 
L 445.414864 140.206599 
L 445.414864 138.96723 
L 443.847376 139.30461 
L 443.847376 138.053741 
L 434.442443 140.108194 
L 434.442443 138.829617 
L 432.874955 139.177133 
L 432.874955 137.886316 
L 431.307466 138.232958 
L 431.307466 136.929682 
L 418.767557 139.765745 
L 418.767557 138.425255 
L 417.200068 138.787839 
L 417.200068 137.433897 
L 407.795136 139.644286 
L 407.795136 138.257811 
L 399.957692 140.158154 
L 399.957692 138.741544 
L 395.255226 139.905234 
L 395.255226 138.465412 
L 381.147828 142.088293 
L 381.147828 140.598612 
L 378.012851 141.431193 
L 378.012851 139.920331 
L 376.445362 140.337261 
L 376.445362 138.80925 
L 365.472941 141.794592 
L 365.472941 138.632121 
L 362.337964 139.498428 
L 362.337964 137.886316 
L 360.770475 138.32 
L 360.770475 136.688407 
L 356.068009 137.996682 
L 356.068009 136.334234 
L 354.50052 136.77267 
L 354.50052 133.39105 
L 352.933032 133.822018 
L 352.933032 132.102028 
L 345.095588 134.287453 
L 345.095588 130.737238 
L 334.123167 133.885419 
L 334.123167 132.03802 
L 330.98819 132.964 
L 330.98819 129.185253 
L 320.015769 132.474346 
L 318.448281 132.964 
L 318.448281 130.984656 
L 307.47586 134.505604 
L 305.908371 135.030829 
L 305.908371 130.874078 
L 296.503439 134.045202 
L 296.503439 131.876512 
L 293.368462 132.964 
L 293.368462 130.750414 
L 285.531018 133.534268 
L 285.531018 131.242699 
L 276.126086 134.751083 
L 268.288643 137.886316 
L 265.153665 139.198933 
L 265.153665 136.730067 
L 262.018688 138.053741 
L 262.018688 135.526301 
L 260.451199 136.188966 
L 260.451199 128.353662 
L 255.748733 130.272662 
L 255.748733 124.772117 
L 247.91129 128.004394 
L 247.91129 125.11084 
L 240.073846 128.510476 
L 238.506357 129.22304 
L 238.506357 126.175968 
L 232.236403 129.067167 
L 232.236403 125.890756 
L 225.966448 128.897739 
L 225.966448 125.580526 
L 219.696493 128.712909 
L 213.426538 132.081698 
L 213.426538 124.870577 
L 208.724072 127.408119 
L 208.724072 119.738384 
L 204.021606 122.247708 
L 204.021606 118.197053 
L 197.751652 121.658901 
L 191.481697 125.43908 
L 186.779231 128.510476 
L 186.779231 123.949639 
L 182.076765 127.11875 
L 177.374299 130.534805 
L 172.671833 134.227838 
L 171.104344 135.526301 
L 171.104344 130.366111 
L 169.536855 131.646761 
L 169.536855 126.283714 
L 164.834389 130.172239 
L 163.2669 131.54697 
L 163.2669 125.769846 
L 158.564434 129.947097 
L 156.996946 131.43082 
L 156.996946 125.170333 
L 153.861968 128.126552 
L 152.29448 129.682456 
L 152.29448 122.943571 
L 149.159502 126.036296 
L 146.024525 129.366923 
L 144.457036 131.130196 
L 144.457036 123.6116 
L 141.322059 127.11875 
L 139.75457 128.984255 
L 139.75457 120.765217 
L 136.619593 124.461818 
L 133.484615 128.510476 
L 133.484615 109.583 
L 130.349638 113.274737 
L 127.214661 117.376667 
L 124.079683 121.961176 
L 120.944706 127.11875 
L 117.809729 132.964 
L 114.674751 139.644286 
L 113.107262 143.355556 
L 113.107262 114.2592 
L 111.539774 117.376667 
L 109.972285 120.765217 
L 108.404796 124.461818 
L 106.837308 128.510476 
L 105.269819 132.964 
L 103.70233 137.886316 
L 102.134842 143.355556 
L 102.134842 121.961176 
L 100.567353 127.11875 
L 100.567353 101.789333 
L 98.999864 106.242857 
L 98.999864 75.410769 
L 97.432376 78.408333 
L 95.864887 81.950909 
L 94.297398 86.202 
L 92.72991 91.397778 
L 91.162421 97.8925 
L 89.594932 106.242857 
L 88.027443 117.376667 
L 86.459955 132.964 
L 84.892466 156.345 
L 83.324977 195.313333 
L 83.324977 39.44 
L 80.19 39.44 
L 80.19 39.44 
" style="fill:none;stroke:#008000;stroke-linecap:square;stroke-width:2.25;"/>
   </g>
   <g id="line2d_16">
    <path clip-path="url(#p1680076bf7)" d="M 1119.435 214.852592 
L 1117.867511 215.018075 
L 1117.867511 214.742304 
L 1116.300023 214.907996 
L 1116.300023 214.077232 
L 1114.732534 214.242922 
L 1114.732534 212.847226 
L 1110.030068 213.34457 
L 1110.030068 211.365736 
L 1106.89509 211.697319 
L 1106.89509 210.840368 
L 1105.327602 211.006292 
L 1105.327602 209.566342 
L 1102.192624 209.897973 
L 1102.192624 209.317578 
L 1100.625136 209.483636 
L 1100.625136 209.192466 
L 1099.057647 209.358727 
L 1099.057647 207.893661 
L 1097.490158 208.059626 
L 1097.490158 206.876637 
L 1095.92267 207.042416 
L 1095.92267 206.14862 
L 1094.355181 206.314334 
L 1094.355181 206.015085 
L 1091.220204 206.347238 
L 1091.220204 205.143183 
L 1089.652715 205.309218 
L 1089.652715 205.00656 
L 1081.815271 205.841069 
L 1081.815271 204.927361 
L 1077.112805 205.430872 
L 1077.112805 203.274178 
L 1073.977828 203.60956 
L 1073.977828 202.987097 
L 1070.842851 203.323268 
L 1070.842851 202.069453 
L 1069.275362 202.237459 
L 1069.275362 201.922234 
L 1059.87043 202.936691 
L 1059.87043 202.619896 
L 1050.465498 203.646184 
L 1050.465498 203.008761 
L 1048.898009 203.180757 
L 1048.898009 202.219114 
L 1047.33052 202.391003 
L 1047.33052 201.746201 
L 1045.763032 201.918136 
L 1045.763032 200.945313 
L 1044.195543 201.117128 
L 1044.195543 199.151756 
L 1039.493077 199.666402 
L 1039.493077 199.004629 
L 1037.925588 199.176573 
L 1037.925588 198.178032 
L 1036.3581 198.349827 
L 1036.3581 196.670229 
L 1034.790611 196.841503 
L 1034.790611 196.503206 
L 1031.655633 196.846514 
L 1031.655633 195.484435 
L 1030.088145 195.655912 
L 1030.088145 195.313333 
L 1026.953167 195.657045 
L 1026.953167 194.27763 
L 1025.385679 194.44929 
L 1025.385679 193.7546 
L 1023.81819 193.926251 
L 1023.81819 192.526771 
L 1020.683213 192.86963 
L 1020.683213 192.164377 
L 1015.980747 192.680338 
L 1015.980747 192.325908 
L 1014.413258 192.498465 
L 1014.413258 192.143028 
L 1012.845769 192.315769 
L 1012.845769 191.602063 
L 1011.278281 191.774779 
L 1011.278281 191.4165 
L 1009.710792 191.589397 
L 1009.710792 191.230091 
L 1008.143303 191.40317 
L 1008.143303 190.31968 
L 1001.873348 191.013379 
L 1001.873348 189.55358 
L 995.603394 190.250162 
L 995.603394 189.513395 
L 994.035905 189.688102 
L 994.035905 188.947445 
L 990.900928 189.29717 
L 990.900928 187.803572 
L 983.063484 188.680426 
L 983.063484 188.303645 
L 981.495995 188.480024 
L 981.495995 188.102112 
L 979.928507 188.27867 
L 979.928507 187.138808 
L 975.226041 187.668828 
L 975.226041 187.286323 
L 973.658552 187.463597 
L 973.658552 187.079928 
L 972.091063 187.25738 
L 972.091063 186.486771 
L 968.956086 186.841957 
L 968.956086 186.454752 
L 967.388597 186.632736 
L 967.388597 184.288146 
L 964.25362 184.642298 
L 964.25362 184.247662 
L 962.686131 184.425123 
L 962.686131 184.029252 
L 961.118643 184.20688 
L 961.118643 183.411675 
L 959.551154 183.589199 
L 959.551154 182.789518 
L 953.281199 183.501814 
L 953.281199 182.291496 
L 948.578733 182.82786 
L 948.578733 182.421554 
L 939.173801 183.504747 
L 939.173801 182.68562 
L 936.038824 183.049188 
L 936.038824 182.637484 
L 934.471335 182.819669 
L 934.471335 182.406624 
L 932.903846 182.58898 
L 932.903846 181.342612 
L 928.20138 181.889794 
L 928.20138 181.4713 
L 926.633891 181.65433 
L 926.633891 181.234452 
L 925.066403 181.417649 
L 925.066403 180.996378 
L 914.093982 182.289974 
L 914.093982 181.439791 
L 907.824027 182.187158 
L 907.824027 181.75913 
L 906.256538 181.946887 
L 906.256538 181.517411 
L 904.68905 181.705344 
L 904.68905 181.274411 
L 903.121561 181.46252 
L 903.121561 180.596569 
L 899.986584 180.972987 
L 899.986584 180.101096 
L 893.716629 180.857339 
L 893.716629 179.978086 
L 892.14914 180.167746 
L 892.14914 179.726 
L 889.014163 180.106179 
L 889.014163 178.771673 
L 887.446674 178.961499 
L 887.446674 178.065055 
L 885.879186 178.254692 
L 885.879186 177.804274 
L 881.176719 178.375241 
L 881.176719 177.922507 
L 874.906765 178.689723 
L 874.906765 178.234286 
L 873.339276 178.427056 
L 873.339276 177.969986 
L 870.204299 178.356402 
L 870.204299 177.897318 
L 868.63681 178.090965 
L 868.63681 177.630224 
L 860.799367 178.604767 
L 860.799367 178.140847 
L 859.231878 178.33703 
L 859.231878 177.871416 
L 857.664389 178.067773 
L 857.664389 177.600455 
L 854.529412 177.994074 
L 854.529412 177.52465 
L 849.826946 178.118138 
L 849.826946 177.646198 
L 848.259457 177.84477 
L 848.259457 177.371079 
L 845.12448 177.769149 
L 845.12448 176.816064 
L 843.556991 177.015159 
L 843.556991 175.0907 
L 841.989502 175.28873 
L 841.989502 174.803684 
L 840.422014 175.001874 
L 840.422014 174.514985 
L 838.854525 174.713333 
L 838.854525 172.74969 
L 837.287036 172.946893 
L 837.287036 172.451911 
L 835.719548 172.649258 
L 835.719548 172.152363 
L 832.58457 172.547928 
L 832.58457 172.048657 
L 827.882104 172.645097 
L 827.882104 172.142973 
L 823.179638 172.743439 
L 823.179638 171.731891 
L 821.612149 171.932333 
L 821.612149 171.423794 
L 818.477172 171.825571 
L 818.477172 171.314543 
L 816.909683 171.515878 
L 816.909683 169.971963 
L 815.342195 170.172473 
L 815.342195 168.612809 
L 810.639729 169.213612 
L 810.639729 168.689006 
L 809.07224 168.890016 
L 809.07224 168.363271 
L 807.504751 168.564399 
L 807.504751 168.0355 
L 804.369774 168.438621 
L 804.369774 167.907033 
L 794.964842 169.12859 
L 794.964842 168.59219 
L 793.397353 168.79752 
L 793.397353 167.718533 
L 788.694887 168.335256 
L 788.694887 167.246109 
L 780.857443 168.281815 
L 780.857443 167.731851 
L 779.289955 167.940455 
L 779.289955 167.388143 
L 776.154977 167.806275 
L 776.154977 166.693967 
L 771.452511 167.3229 
L 771.452511 166.199802 
L 769.885023 166.409669 
L 769.885023 165.27794 
L 763.615068 166.119666 
L 763.615068 165.548576 
L 760.48009 165.972471 
L 760.48009 165.398249 
L 755.777624 166.037631 
L 755.777624 165.459627 
L 754.210136 165.673582 
L 754.210136 165.092993 
L 752.642647 165.307053 
L 752.642647 164.723857 
L 751.075158 164.938017 
L 751.075158 163.174502 
L 749.50767 163.38747 
L 749.50767 162.794931 
L 746.372692 163.221765 
L 746.372692 162.625858 
L 744.805204 162.839722 
L 744.805204 161.640348 
L 743.237715 161.853613 
L 743.237715 160.644483 
L 740.102738 161.07051 
L 740.102738 160.461373 
L 738.535249 160.674815 
L 738.535249 160.062827 
L 733.832783 160.705577 
L 733.832783 160.089288 
L 730.697805 160.520179 
L 730.697805 159.90025 
L 729.130317 160.116129 
L 729.130317 159.49325 
L 721.292873 160.580688 
L 721.292873 159.951869 
L 715.022919 160.833126 
L 715.022919 159.562569 
L 711.887941 160.005009 
L 711.887941 158.721996 
L 710.320452 158.942889 
L 710.320452 158.297032 
L 708.752964 158.517955 
L 708.752964 157.217425 
L 707.185475 157.43757 
L 707.185475 156.782846 
L 705.617986 157.003002 
L 705.617986 155.68452 
L 702.483009 156.124008 
L 702.483009 155.459356 
L 697.780543 156.122324 
L 697.780543 155.452595 
L 696.213054 155.674417 
L 696.213054 155.001264 
L 693.078077 155.445731 
L 693.078077 154.768247 
L 691.510588 154.990888 
L 691.510588 154.309903 
L 689.9431 154.532519 
L 689.9431 153.848 
L 682.105656 154.969647 
L 682.105656 154.277917 
L 680.538167 154.503976 
L 680.538167 153.8086 
L 677.40319 154.261545 
L 677.40319 153.561548 
L 671.133235 154.47452 
L 671.133235 153.767936 
L 667.998258 154.228008 
L 667.998258 153.516653 
L 660.160814 154.67833 
L 660.160814 153.237096 
L 655.458348 153.939547 
L 655.458348 153.211464 
L 652.323371 153.682567 
L 652.323371 152.949419 
L 650.755882 153.185405 
L 650.755882 151.70785 
L 647.620905 152.178574 
L 647.620905 151.433025 
L 642.918439 152.14334 
L 642.918439 151.391398 
L 636.648484 152.348248 
L 636.648484 151.588694 
L 627.243552 153.04833 
L 627.243552 151.505795 
L 620.973597 152.490989 
L 620.973597 150.925563 
L 619.406109 151.172212 
L 619.406109 149.590489 
L 600.596244 152.608311 
L 600.596244 151.797208 
L 599.028756 152.054908 
L 599.028756 151.238805 
L 594.32629 152.015185 
L 594.32629 150.363814 
L 592.758801 150.622378 
L 592.758801 149.789579 
L 591.191312 150.048009 
L 591.191312 148.367953 
L 589.623824 148.624858 
L 589.623824 146.926114 
L 586.488846 147.437952 
L 586.488846 145.717273 
L 581.78638 146.485542 
L 581.78638 144.739419 
L 577.083914 145.509902 
L 577.083914 143.737598 
L 575.516425 143.993857 
L 575.516425 143.099606 
L 572.381448 143.612772 
L 572.381448 141.804577 
L 569.246471 142.3164 
L 569.246471 141.402256 
L 562.976516 142.434785 
L 562.976516 141.50934 
L 559.841538 142.030102 
L 559.841538 141.096522 
L 553.571584 142.147235 
L 553.571584 141.201865 
L 550.436606 141.731875 
L 550.436606 140.778016 
L 547.301629 141.309974 
L 547.301629 140.347474 
L 537.896697 141.96631 
L 537.896697 139.01407 
L 533.194231 139.825815 
L 533.194231 137.819071 
L 528.491765 138.632121 
L 528.491765 137.614365 
L 526.924276 137.886316 
L 526.924276 133.749916 
L 523.789299 134.281239 
L 523.789299 133.228192 
L 522.22181 133.493881 
L 522.22181 131.365299 
L 520.654321 131.627943 
L 520.654321 130.552206 
L 511.249389 132.146006 
L 511.249389 131.049766 
L 506.546923 131.860472 
L 506.546923 130.750414 
L 494.007014 132.964 
L 494.007014 131.82693 
L 492.439525 132.108598 
L 492.439525 130.961957 
L 479.899615 133.257179 
L 479.899615 132.081698 
L 476.764638 132.668038 
L 476.764638 130.283376 
L 473.629661 130.865705 
L 473.629661 129.656077 
L 465.792217 131.130196 
L 465.792217 129.897639 
L 448.549842 133.282109 
L 445.414864 133.924863 
L 445.414864 132.642612 
L 443.847376 132.964 
L 443.847376 131.66955 
L 442.279887 131.989792 
L 442.279887 130.682927 
L 437.577421 131.646761 
L 437.577421 130.320212 
L 434.442443 130.967046 
L 434.442443 129.623857 
L 426.605 131.263564 
L 426.605 129.892044 
L 421.902534 130.893358 
L 421.902534 129.500148 
L 412.497602 131.54697 
L 412.497602 130.119163 
L 409.362624 130.814023 
L 409.362624 126.43907 
L 407.795136 126.777588 
L 407.795136 125.292109 
L 403.09267 126.310119 
L 403.09267 124.799206 
L 390.55276 127.597869 
L 390.55276 126.036296 
L 385.850294 127.11875 
L 385.850294 125.529038 
L 384.282805 125.890756 
L 384.282805 124.282447 
L 382.715317 124.641949 
L 382.715317 123.014638 
L 368.607919 126.342832 
L 360.770475 128.308959 
L 360.770475 126.587364 
L 354.50052 128.201204 
L 354.50052 124.660467 
L 351.365543 125.464434 
L 351.365543 123.655924 
L 346.663077 124.870577 
L 346.663077 123.024251 
L 345.095588 123.43 
L 345.095588 121.558634 
L 343.5281 121.961176 
L 343.5281 120.064138 
L 341.960611 120.463267 
L 341.960611 118.5399 
L 332.555679 120.973744 
L 332.555679 118.983608 
L 330.98819 119.395751 
L 330.98819 117.376667 
L 324.718235 119.034894 
L 324.718235 116.959893 
L 320.015769 118.223804 
L 320.015769 116.099016 
L 316.880792 116.946077 
L 316.880792 114.778778 
L 305.908371 117.827168 
L 294.93595 121.132651 
L 285.531018 124.196125 
L 285.531018 121.788176 
L 283.963529 122.309367 
L 283.963529 119.858726 
L 282.396041 120.374231 
L 282.396041 117.879484 
L 274.558597 120.494133 
L 274.558597 117.899732 
L 272.991109 118.429865 
L 272.991109 110.389241 
L 271.42362 110.881944 
L 271.42362 108.111469 
L 268.288643 109.085532 
L 268.288643 100.433913 
L 258.88371 103.206364 
L 258.88371 96.993231 
L 249.478778 99.778065 
L 249.478778 96.466829 
L 241.641335 98.88322 
L 241.641335 95.39453 
L 240.073846 95.876897 
L 240.073846 92.301391 
L 236.938869 93.236991 
L 236.938869 89.542143 
L 229.101425 91.883364 
L 221.263982 94.454118 
L 213.426538 97.289897 
L 207.156584 99.778065 
L 200.886629 102.489888 
L 194.616674 105.456941 
L 193.049186 106.242857 
L 193.049186 96.466829 
L 191.481697 97.170864 
L 191.481697 92.04725 
L 188.346719 93.396154 
L 188.346719 88.023896 
L 182.076765 90.686027 
L 180.509276 91.397778 
L 180.509276 85.54338 
L 177.374299 86.87971 
L 177.374299 80.700588 
L 171.104344 83.279375 
L 169.536855 83.975238 
L 169.536855 77.15129 
L 164.834389 79.068814 
L 160.131923 81.191786 
L 155.429457 83.555094 
L 150.726991 86.202 
L 146.024525 89.186809 
L 142.889548 91.397778 
L 139.75457 93.814419 
L 136.619593 96.466829 
L 133.484615 99.391282 
L 130.349638 102.631892 
L 127.214661 106.242857 
L 124.079683 110.291515 
L 124.079683 97.8925 
L 120.944706 101.789333 
L 117.809729 106.242857 
L 117.809729 91.397778 
L 114.674751 95.5544 
L 113.107262 97.8925 
L 111.539774 100.433913 
L 109.972285 103.206364 
L 109.972285 83.975238 
L 108.404796 86.202 
L 106.837308 88.663158 
L 105.269819 91.397778 
L 103.70233 94.454118 
L 102.134842 97.8925 
L 100.567353 101.789333 
L 98.999864 106.242857 
L 98.999864 39.44 
L 80.19 39.44 
L 80.19 39.44 
" style="fill:none;stroke:#800080;stroke-linecap:square;stroke-width:2.25;"/>
   </g>
   <g id="patch_3">
    <path d="M 80.19 507.06 
L 80.19 39.44 
" style="fill:none;stroke:#000000;stroke-linecap:square;stroke-linejoin:miter;stroke-width:1.875;"/>
   </g>
   <g id="patch_4">
    <path d="M 1119.435 507.06 
L 1119.435 39.44 
" style="fill:none;stroke:#000000;stroke-linecap:square;stroke-linejoin:miter;stroke-width:1.875;"/>
   </g>
   <g id="patch_5">
    <path d="M 80.19 507.06 
L 1119.435 507.06 
" style="fill:none;stroke:#000000;stroke-linecap:square;stroke-linejoin:miter;stroke-width:1.875;"/>
   </g>
   <g id="patch_6">
    <path d="M 80.19 39.44 
L 1119.435 39.44 
" style="fill:none;stroke:#000000;stroke-linecap:square;stroke-linejoin:miter;stroke-width:1.875;"/>
   </g>
   <g id="text_15">
    <!-- Percision - Recall Curves -->
    <defs>
     <path id="DejaVuSans-32"/>
     <path d="M 4.890625 31.390625 
L 31.203125 31.390625 
L 31.203125 23.390625 
L 4.890625 23.390625 
z
" id="DejaVuSans-45"/>
     <path d="M 64.40625 67.28125 
L 64.40625 56.890625 
Q 59.421875 61.53125 53.78125 63.8125 
Q 48.140625 66.109375 41.796875 66.109375 
Q 29.296875 66.109375 22.65625 58.46875 
Q 16.015625 50.828125 16.015625 36.375 
Q 16.015625 21.96875 22.65625 14.328125 
Q 29.296875 6.6875 41.796875 6.6875 
Q 48.140625 6.6875 53.78125 8.984375 
Q 59.421875 11.28125 64.40625 15.921875 
L 64.40625 5.609375 
Q 59.234375 2.09375 53.4375 0.328125 
Q 47.65625 -1.421875 41.21875 -1.421875 
Q 24.65625 -1.421875 15.125 8.703125 
Q 5.609375 18.84375 5.609375 36.375 
Q 5.609375 53.953125 15.125 64.078125 
Q 24.65625 74.21875 41.21875 74.21875 
Q 47.75 74.21875 53.53125 72.484375 
Q 59.328125 70.75 64.40625 67.28125 
z
" id="DejaVuSans-67"/>
     <path d="M 8.5 21.578125 
L 8.5 54.6875 
L 17.484375 54.6875 
L 17.484375 21.921875 
Q 17.484375 14.15625 20.5 10.265625 
Q 23.53125 6.390625 29.59375 6.390625 
Q 36.859375 6.390625 41.078125 11.03125 
Q 45.3125 15.671875 45.3125 23.6875 
L 45.3125 54.6875 
L 54.296875 54.6875 
L 54.296875 0 
L 45.3125 0 
L 45.3125 8.40625 
Q 42.046875 3.421875 37.71875 1 
Q 33.40625 -1.421875 27.6875 -1.421875 
Q 18.265625 -1.421875 13.375 4.4375 
Q 8.5 10.296875 8.5 21.578125 
z
M 31.109375 56 
z
" id="DejaVuSans-117"/>
     <path d="M 2.984375 54.6875 
L 12.5 54.6875 
L 29.59375 8.796875 
L 46.6875 54.6875 
L 56.203125 54.6875 
L 35.6875 0 
L 23.484375 0 
z
" id="DejaVuSans-118"/>
    </defs>
    <g transform="translate(488.987344 33.44)scale(0.18 -0.18)">
     <use xlink:href="#DejaVuSans-80"/>
     <use x="60.255859" xlink:href="#DejaVuSans-101"/>
     <use x="121.779297" xlink:href="#DejaVuSans-114"/>
     <use x="162.861328" xlink:href="#DejaVuSans-99"/>
     <use x="217.841797" xlink:href="#DejaVuSans-105"/>
     <use x="245.625" xlink:href="#DejaVuSans-115"/>
     <use x="297.724609" xlink:href="#DejaVuSans-105"/>
     <use x="325.507812" xlink:href="#DejaVuSans-111"/>
     <use x="386.689453" xlink:href="#DejaVuSans-110"/>
     <use x="450.068359" xlink:href="#DejaVuSans-32"/>
     <use x="481.855469" xlink:href="#DejaVuSans-45"/>
     <use x="517.939453" xlink:href="#DejaVuSans-32"/>
     <use x="549.726562" xlink:href="#DejaVuSans-82"/>
     <use x="619.146484" xlink:href="#DejaVuSans-101"/>
     <use x="680.669922" xlink:href="#DejaVuSans-99"/>
     <use x="735.650391" xlink:href="#DejaVuSans-97"/>
     <use x="796.929688" xlink:href="#DejaVuSans-108"/>
     <use x="824.712891" xlink:href="#DejaVuSans-108"/>
     <use x="852.496094" xlink:href="#DejaVuSans-32"/>
     <use x="884.283203" xlink:href="#DejaVuSans-67"/>
     <use x="954.107422" xlink:href="#DejaVuSans-117"/>
     <use x="1017.486328" xlink:href="#DejaVuSans-114"/>
     <use x="1058.599609" xlink:href="#DejaVuSans-118"/>
     <use x="1117.779297" xlink:href="#DejaVuSans-101"/>
     <use x="1179.302734" xlink:href="#DejaVuSans-115"/>
    </g>
   </g>
   <g id="legend_1">
    <g id="patch_7">
     <path d="M 863.563828 498.81 
L 1107.885 498.81 
Q 1111.185 498.81 1111.185 495.51 
L 1111.185 400.284375 
Q 1111.185 396.984375 1107.885 396.984375 
L 863.563828 396.984375 
Q 860.263828 396.984375 860.263828 400.284375 
L 860.263828 495.51 
Q 860.263828 498.81 863.563828 498.81 
z
" style="fill:#ffffff;opacity:0.8;stroke:#cccccc;stroke-linejoin:miter;stroke-width:1.5;"/>
    </g>
    <g id="line2d_17">
     <path d="M 866.863828 410.346797 
L 899.863828 410.346797 
" style="fill:none;stroke:#ff0000;stroke-linecap:square;stroke-width:2.25;"/>
    </g>
    <g id="line2d_18"/>
    <g id="text_16">
     <!-- Logistic Regression -->
     <defs>
      <path d="M 9.8125 72.90625 
L 19.671875 72.90625 
L 19.671875 8.296875 
L 55.171875 8.296875 
L 55.171875 0 
L 9.8125 0 
z
" id="DejaVuSans-76"/>
      <path d="M 45.40625 27.984375 
Q 45.40625 37.75 41.375 43.109375 
Q 37.359375 48.484375 30.078125 48.484375 
Q 22.859375 48.484375 18.828125 43.109375 
Q 14.796875 37.75 14.796875 27.984375 
Q 14.796875 18.265625 18.828125 12.890625 
Q 22.859375 7.515625 30.078125 7.515625 
Q 37.359375 7.515625 41.375 12.890625 
Q 45.40625 18.265625 45.40625 27.984375 
z
M 54.390625 6.78125 
Q 54.390625 -7.171875 48.1875 -13.984375 
Q 42 -20.796875 29.203125 -20.796875 
Q 24.46875 -20.796875 20.265625 -20.09375 
Q 16.0625 -19.390625 12.109375 -17.921875 
L 12.109375 -9.1875 
Q 16.0625 -11.328125 19.921875 -12.34375 
Q 23.78125 -13.375 27.78125 -13.375 
Q 36.625 -13.375 41.015625 -8.765625 
Q 45.40625 -4.15625 45.40625 5.171875 
L 45.40625 9.625 
Q 42.625 4.78125 38.28125 2.390625 
Q 33.9375 0 27.875 0 
Q 17.828125 0 11.671875 7.65625 
Q 5.515625 15.328125 5.515625 27.984375 
Q 5.515625 40.671875 11.671875 48.328125 
Q 17.828125 56 27.875 56 
Q 33.9375 56 38.28125 53.609375 
Q 42.625 51.21875 45.40625 46.390625 
L 45.40625 54.6875 
L 54.390625 54.6875 
z
" id="DejaVuSans-103"/>
      <path d="M 18.3125 70.21875 
L 18.3125 54.6875 
L 36.8125 54.6875 
L 36.8125 47.703125 
L 18.3125 47.703125 
L 18.3125 18.015625 
Q 18.3125 11.328125 20.140625 9.421875 
Q 21.96875 7.515625 27.59375 7.515625 
L 36.8125 7.515625 
L 36.8125 0 
L 27.59375 0 
Q 17.1875 0 13.234375 3.875 
Q 9.28125 7.765625 9.28125 18.015625 
L 9.28125 47.703125 
L 2.6875 47.703125 
L 2.6875 54.6875 
L 9.28125 54.6875 
L 9.28125 70.21875 
z
" id="DejaVuSans-116"/>
     </defs>
     <g transform="translate(913.063828 416.121797)scale(0.165 -0.165)">
      <use xlink:href="#DejaVuSans-76"/>
      <use x="55.697266" xlink:href="#DejaVuSans-111"/>
      <use x="116.878906" xlink:href="#DejaVuSans-103"/>
      <use x="180.355469" xlink:href="#DejaVuSans-105"/>
      <use x="208.138672" xlink:href="#DejaVuSans-115"/>
      <use x="260.238281" xlink:href="#DejaVuSans-116"/>
      <use x="299.447266" xlink:href="#DejaVuSans-105"/>
      <use x="327.230469" xlink:href="#DejaVuSans-99"/>
      <use x="382.210938" xlink:href="#DejaVuSans-32"/>
      <use x="413.998047" xlink:href="#DejaVuSans-82"/>
      <use x="483.417969" xlink:href="#DejaVuSans-101"/>
      <use x="544.941406" xlink:href="#DejaVuSans-103"/>
      <use x="608.417969" xlink:href="#DejaVuSans-114"/>
      <use x="649.5" xlink:href="#DejaVuSans-101"/>
      <use x="711.023438" xlink:href="#DejaVuSans-115"/>
      <use x="763.123047" xlink:href="#DejaVuSans-115"/>
      <use x="815.222656" xlink:href="#DejaVuSans-105"/>
      <use x="843.005859" xlink:href="#DejaVuSans-111"/>
      <use x="904.1875" xlink:href="#DejaVuSans-110"/>
     </g>
    </g>
    <g id="line2d_19">
     <path d="M 866.863828 434.565703 
L 899.863828 434.565703 
" style="fill:none;stroke:#000000;stroke-linecap:square;stroke-width:2.25;"/>
    </g>
    <g id="line2d_20"/>
    <g id="text_17">
     <!-- Random Forest -->
     <defs>
      <path d="M 45.40625 46.390625 
L 45.40625 75.984375 
L 54.390625 75.984375 
L 54.390625 0 
L 45.40625 0 
L 45.40625 8.203125 
Q 42.578125 3.328125 38.25 0.953125 
Q 33.9375 -1.421875 27.875 -1.421875 
Q 17.96875 -1.421875 11.734375 6.484375 
Q 5.515625 14.40625 5.515625 27.296875 
Q 5.515625 40.1875 11.734375 48.09375 
Q 17.96875 56 27.875 56 
Q 33.9375 56 38.25 53.625 
Q 42.578125 51.265625 45.40625 46.390625 
z
M 14.796875 27.296875 
Q 14.796875 17.390625 18.875 11.75 
Q 22.953125 6.109375 30.078125 6.109375 
Q 37.203125 6.109375 41.296875 11.75 
Q 45.40625 17.390625 45.40625 27.296875 
Q 45.40625 37.203125 41.296875 42.84375 
Q 37.203125 48.484375 30.078125 48.484375 
Q 22.953125 48.484375 18.875 42.84375 
Q 14.796875 37.203125 14.796875 27.296875 
z
" id="DejaVuSans-100"/>
      <path d="M 52 44.1875 
Q 55.375 50.25 60.0625 53.125 
Q 64.75 56 71.09375 56 
Q 79.640625 56 84.28125 50.015625 
Q 88.921875 44.046875 88.921875 33.015625 
L 88.921875 0 
L 79.890625 0 
L 79.890625 32.71875 
Q 79.890625 40.578125 77.09375 44.375 
Q 74.3125 48.1875 68.609375 48.1875 
Q 61.625 48.1875 57.5625 43.546875 
Q 53.515625 38.921875 53.515625 30.90625 
L 53.515625 0 
L 44.484375 0 
L 44.484375 32.71875 
Q 44.484375 40.625 41.703125 44.40625 
Q 38.921875 48.1875 33.109375 48.1875 
Q 26.21875 48.1875 22.15625 43.53125 
Q 18.109375 38.875 18.109375 30.90625 
L 18.109375 0 
L 9.078125 0 
L 9.078125 54.6875 
L 18.109375 54.6875 
L 18.109375 46.1875 
Q 21.1875 51.21875 25.484375 53.609375 
Q 29.78125 56 35.6875 56 
Q 41.65625 56 45.828125 52.96875 
Q 50 49.953125 52 44.1875 
z
" id="DejaVuSans-109"/>
      <path d="M 9.8125 72.90625 
L 51.703125 72.90625 
L 51.703125 64.59375 
L 19.671875 64.59375 
L 19.671875 43.109375 
L 48.578125 43.109375 
L 48.578125 34.8125 
L 19.671875 34.8125 
L 19.671875 0 
L 9.8125 0 
z
" id="DejaVuSans-70"/>
     </defs>
     <g transform="translate(913.063828 440.340703)scale(0.165 -0.165)">
      <use xlink:href="#DejaVuSans-82"/>
      <use x="69.451172" xlink:href="#DejaVuSans-97"/>
      <use x="130.730469" xlink:href="#DejaVuSans-110"/>
      <use x="194.109375" xlink:href="#DejaVuSans-100"/>
      <use x="257.585938" xlink:href="#DejaVuSans-111"/>
      <use x="318.767578" xlink:href="#DejaVuSans-109"/>
      <use x="416.179688" xlink:href="#DejaVuSans-32"/>
      <use x="447.966797" xlink:href="#DejaVuSans-70"/>
      <use x="505.439453" xlink:href="#DejaVuSans-111"/>
      <use x="566.621094" xlink:href="#DejaVuSans-114"/>
      <use x="607.703125" xlink:href="#DejaVuSans-101"/>
      <use x="669.226562" xlink:href="#DejaVuSans-115"/>
      <use x="721.326172" xlink:href="#DejaVuSans-116"/>
     </g>
    </g>
    <g id="line2d_21">
     <path d="M 866.863828 458.784609 
L 899.863828 458.784609 
" style="fill:none;stroke:#008000;stroke-linecap:square;stroke-width:2.25;"/>
    </g>
    <g id="line2d_22"/>
    <g id="text_18">
     <!-- Gradient Boosting Tree -->
     <defs>
      <path d="M 59.515625 10.40625 
L 59.515625 29.984375 
L 43.40625 29.984375 
L 43.40625 38.09375 
L 69.28125 38.09375 
L 69.28125 6.78125 
Q 63.578125 2.734375 56.6875 0.65625 
Q 49.8125 -1.421875 42 -1.421875 
Q 24.90625 -1.421875 15.25 8.5625 
Q 5.609375 18.5625 5.609375 36.375 
Q 5.609375 54.25 15.25 64.234375 
Q 24.90625 74.21875 42 74.21875 
Q 49.125 74.21875 55.546875 72.453125 
Q 61.96875 70.703125 67.390625 67.28125 
L 67.390625 56.78125 
Q 61.921875 61.421875 55.765625 63.765625 
Q 49.609375 66.109375 42.828125 66.109375 
Q 29.4375 66.109375 22.71875 58.640625 
Q 16.015625 51.171875 16.015625 36.375 
Q 16.015625 21.625 22.71875 14.15625 
Q 29.4375 6.6875 42.828125 6.6875 
Q 48.046875 6.6875 52.140625 7.59375 
Q 56.25 8.5 59.515625 10.40625 
z
" id="DejaVuSans-71"/>
      <path d="M 19.671875 34.8125 
L 19.671875 8.109375 
L 35.5 8.109375 
Q 43.453125 8.109375 47.28125 11.40625 
Q 51.125 14.703125 51.125 21.484375 
Q 51.125 28.328125 47.28125 31.5625 
Q 43.453125 34.8125 35.5 34.8125 
z
M 19.671875 64.796875 
L 19.671875 42.828125 
L 34.28125 42.828125 
Q 41.5 42.828125 45.03125 45.53125 
Q 48.578125 48.25 48.578125 53.8125 
Q 48.578125 59.328125 45.03125 62.0625 
Q 41.5 64.796875 34.28125 64.796875 
z
M 9.8125 72.90625 
L 35.015625 72.90625 
Q 46.296875 72.90625 52.390625 68.21875 
Q 58.5 63.53125 58.5 54.890625 
Q 58.5 48.1875 55.375 44.234375 
Q 52.25 40.28125 46.1875 39.3125 
Q 53.46875 37.75 57.5 32.78125 
Q 61.53125 27.828125 61.53125 20.40625 
Q 61.53125 10.640625 54.890625 5.3125 
Q 48.25 0 35.984375 0 
L 9.8125 0 
z
" id="DejaVuSans-66"/>
      <path d="M -0.296875 72.90625 
L 61.375 72.90625 
L 61.375 64.59375 
L 35.5 64.59375 
L 35.5 0 
L 25.59375 0 
L 25.59375 64.59375 
L -0.296875 64.59375 
z
" id="DejaVuSans-84"/>
     </defs>
     <g transform="translate(913.063828 464.559609)scale(0.165 -0.165)">
      <use xlink:href="#DejaVuSans-71"/>
      <use x="77.490234" xlink:href="#DejaVuSans-114"/>
      <use x="118.603516" xlink:href="#DejaVuSans-97"/>
      <use x="179.882812" xlink:href="#DejaVuSans-100"/>
      <use x="243.359375" xlink:href="#DejaVuSans-105"/>
      <use x="271.142578" xlink:href="#DejaVuSans-101"/>
      <use x="332.666016" xlink:href="#DejaVuSans-110"/>
      <use x="396.044922" xlink:href="#DejaVuSans-116"/>
      <use x="435.253906" xlink:href="#DejaVuSans-32"/>
      <use x="467.041016" xlink:href="#DejaVuSans-66"/>
      <use x="535.644531" xlink:href="#DejaVuSans-111"/>
      <use x="596.826172" xlink:href="#DejaVuSans-111"/>
      <use x="658.007812" xlink:href="#DejaVuSans-115"/>
      <use x="710.107422" xlink:href="#DejaVuSans-116"/>
      <use x="749.316406" xlink:href="#DejaVuSans-105"/>
      <use x="777.099609" xlink:href="#DejaVuSans-110"/>
      <use x="840.478516" xlink:href="#DejaVuSans-103"/>
      <use x="903.955078" xlink:href="#DejaVuSans-32"/>
      <use x="935.742188" xlink:href="#DejaVuSans-84"/>
      <use x="996.607422" xlink:href="#DejaVuSans-114"/>
      <use x="1037.689453" xlink:href="#DejaVuSans-101"/>
      <use x="1099.212891" xlink:href="#DejaVuSans-101"/>
     </g>
    </g>
    <g id="line2d_23">
     <path d="M 866.863828 483.003516 
L 899.863828 483.003516 
" style="fill:none;stroke:#800080;stroke-linecap:square;stroke-width:2.25;"/>
    </g>
    <g id="line2d_24"/>
    <g id="text_19">
     <!-- Ensemble -->
     <defs>
      <path d="M 9.8125 72.90625 
L 55.90625 72.90625 
L 55.90625 64.59375 
L 19.671875 64.59375 
L 19.671875 43.015625 
L 54.390625 43.015625 
L 54.390625 34.71875 
L 19.671875 34.71875 
L 19.671875 8.296875 
L 56.78125 8.296875 
L 56.78125 0 
L 9.8125 0 
z
" id="DejaVuSans-69"/>
      <path d="M 48.6875 27.296875 
Q 48.6875 37.203125 44.609375 42.84375 
Q 40.53125 48.484375 33.40625 48.484375 
Q 26.265625 48.484375 22.1875 42.84375 
Q 18.109375 37.203125 18.109375 27.296875 
Q 18.109375 17.390625 22.1875 11.75 
Q 26.265625 6.109375 33.40625 6.109375 
Q 40.53125 6.109375 44.609375 11.75 
Q 48.6875 17.390625 48.6875 27.296875 
z
M 18.109375 46.390625 
Q 20.953125 51.265625 25.265625 53.625 
Q 29.59375 56 35.59375 56 
Q 45.5625 56 51.78125 48.09375 
Q 58.015625 40.1875 58.015625 27.296875 
Q 58.015625 14.40625 51.78125 6.484375 
Q 45.5625 -1.421875 35.59375 -1.421875 
Q 29.59375 -1.421875 25.265625 0.953125 
Q 20.953125 3.328125 18.109375 8.203125 
L 18.109375 0 
L 9.078125 0 
L 9.078125 75.984375 
L 18.109375 75.984375 
z
" id="DejaVuSans-98"/>
     </defs>
     <g transform="translate(913.063828 488.778516)scale(0.165 -0.165)">
      <use xlink:href="#DejaVuSans-69"/>
      <use x="63.183594" xlink:href="#DejaVuSans-110"/>
      <use x="126.5625" xlink:href="#DejaVuSans-115"/>
      <use x="178.662109" xlink:href="#DejaVuSans-101"/>
      <use x="240.185547" xlink:href="#DejaVuSans-109"/>
      <use x="337.597656" xlink:href="#DejaVuSans-98"/>
      <use x="401.074219" xlink:href="#DejaVuSans-108"/>
      <use x="428.857422" xlink:href="#DejaVuSans-101"/>
     </g>
    </g>
   </g>
  </g>
 </g>
 <defs>
  <clipPath id="p1680076bf7">
   <rect height="467.62" width="1039.245" x="80.19" y="39.44"/>
  </clipPath>
 </defs>
</svg>
