<?xml version="1.0" encoding="utf-8" standalone="no"?>
<!DOCTYPE svg PUBLIC "-//W3C//DTD SVG 1.1//EN"
  "http://www.w3.org/Graphics/SVG/1.1/DTD/svg11.dtd">
<!-- Created with matplotlib (https://matplotlib.org/) -->
<svg height="576pt" version="1.1" viewBox="0 0 1152 576" width="1152pt" xmlns="http://www.w3.org/2000/svg" xmlns:xlink="http://www.w3.org/1999/xlink">
 <defs>
  <style type="text/css">
*{stroke-linecap:butt;stroke-linejoin:round;}
  </style>
 </defs>
 <g id="figure_1">
  <g id="patch_1">
   <path d="M 0 576 
L 1152 576 
L 1152 0 
L 0 0 
z
" style="fill:#ffffff;"/>
  </g>
  <g id="axes_1">
   <g id="patch_2">
    <path d="M 81.19 506.06 
L 1119.435 506.06 
L 1119.435 40.44 
L 81.19 40.44 
z
" style="fill:#ffffff;"/>
   </g>
   <g id="matplotlib.axis_1">
    <g id="xtick_1">
     <g id="line2d_1">
      <defs>
       <path d="M 0 0 
L 0 9 
" id="m1447d7d533" style="stroke:#000000;stroke-width:1.875;"/>
      </defs>
      <g>
       <use style="stroke:#000000;stroke-width:1.875;" x="81.19" xlink:href="#m1447d7d533" y="506.06"/>
      </g>
     </g>
     <g id="text_1">
      <!-- 0.0 -->
      <defs>
       <path d="M 31.78125 66.40625 
Q 24.171875 66.40625 20.328125 58.90625 
Q 16.5 51.421875 16.5 36.375 
Q 16.5 21.390625 20.328125 13.890625 
Q 24.171875 6.390625 31.78125 6.390625 
Q 39.453125 6.390625 43.28125 13.890625 
Q 47.125 21.390625 47.125 36.375 
Q 47.125 51.421875 43.28125 58.90625 
Q 39.453125 66.40625 31.78125 66.40625 
z
M 31.78125 74.21875 
Q 44.046875 74.21875 50.515625 64.515625 
Q 56.984375 54.828125 56.984375 36.375 
Q 56.984375 17.96875 50.515625 8.265625 
Q 44.046875 -1.421875 31.78125 -1.421875 
Q 19.53125 -1.421875 13.0625 8.265625 
Q 6.59375 17.96875 6.59375 36.375 
Q 6.59375 54.828125 13.0625 64.515625 
Q 19.53125 74.21875 31.78125 74.21875 
z
" id="DejaVuSans-48"/>
       <path d="M 10.6875 12.40625 
L 21 12.40625 
L 21 0 
L 10.6875 0 
z
" id="DejaVuSans-46"/>
      </defs>
      <g transform="translate(68.069922 531.097422)scale(0.165 -0.165)">
       <use xlink:href="#DejaVuSans-48"/>
       <use x="63.623047" xlink:href="#DejaVuSans-46"/>
       <use x="95.410156" xlink:href="#DejaVuSans-48"/>
      </g>
     </g>
    </g>
    <g id="xtick_2">
     <g id="line2d_2">
      <g>
       <use style="stroke:#000000;stroke-width:1.875;" x="288.839" xlink:href="#m1447d7d533" y="506.06"/>
      </g>
     </g>
     <g id="text_2">
      <!-- 0.2 -->
      <defs>
       <path d="M 19.1875 8.296875 
L 53.609375 8.296875 
L 53.609375 0 
L 7.328125 0 
L 7.328125 8.296875 
Q 12.9375 14.109375 22.625 23.890625 
Q 32.328125 33.6875 34.8125 36.53125 
Q 39.546875 41.84375 41.421875 45.53125 
Q 43.3125 49.21875 43.3125 52.78125 
Q 43.3125 58.59375 39.234375 62.25 
Q 35.15625 65.921875 28.609375 65.921875 
Q 23.96875 65.921875 18.8125 64.3125 
Q 13.671875 62.703125 7.8125 59.421875 
L 7.8125 69.390625 
Q 13.765625 71.78125 18.9375 73 
Q 24.125 74.21875 28.421875 74.21875 
Q 39.75 74.21875 46.484375 68.546875 
Q 53.21875 62.890625 53.21875 53.421875 
Q 53.21875 48.921875 51.53125 44.890625 
Q 49.859375 40.875 45.40625 35.40625 
Q 44.1875 33.984375 37.640625 27.21875 
Q 31.109375 20.453125 19.1875 8.296875 
z
" id="DejaVuSans-50"/>
      </defs>
      <g transform="translate(275.718922 531.097422)scale(0.165 -0.165)">
       <use xlink:href="#DejaVuSans-48"/>
       <use x="63.623047" xlink:href="#DejaVuSans-46"/>
       <use x="95.410156" xlink:href="#DejaVuSans-50"/>
      </g>
     </g>
    </g>
    <g id="xtick_3">
     <g id="line2d_3">
      <g>
       <use style="stroke:#000000;stroke-width:1.875;" x="496.488" xlink:href="#m1447d7d533" y="506.06"/>
      </g>
     </g>
     <g id="text_3">
      <!-- 0.4 -->
      <defs>
       <path d="M 37.796875 64.3125 
L 12.890625 25.390625 
L 37.796875 25.390625 
z
M 35.203125 72.90625 
L 47.609375 72.90625 
L 47.609375 25.390625 
L 58.015625 25.390625 
L 58.015625 17.1875 
L 47.609375 17.1875 
L 47.609375 0 
L 37.796875 0 
L 37.796875 17.1875 
L 4.890625 17.1875 
L 4.890625 26.703125 
z
" id="DejaVuSans-52"/>
      </defs>
      <g transform="translate(483.367922 531.097422)scale(0.165 -0.165)">
       <use xlink:href="#DejaVuSans-48"/>
       <use x="63.623047" xlink:href="#DejaVuSans-46"/>
       <use x="95.410156" xlink:href="#DejaVuSans-52"/>
      </g>
     </g>
    </g>
    <g id="xtick_4">
     <g id="line2d_4">
      <g>
       <use style="stroke:#000000;stroke-width:1.875;" x="704.137" xlink:href="#m1447d7d533" y="506.06"/>
      </g>
     </g>
     <g id="text_4">
      <!-- 0.6 -->
      <defs>
       <path d="M 33.015625 40.375 
Q 26.375 40.375 22.484375 35.828125 
Q 18.609375 31.296875 18.609375 23.390625 
Q 18.609375 15.53125 22.484375 10.953125 
Q 26.375 6.390625 33.015625 6.390625 
Q 39.65625 6.390625 43.53125 10.953125 
Q 47.40625 15.53125 47.40625 23.390625 
Q 47.40625 31.296875 43.53125 35.828125 
Q 39.65625 40.375 33.015625 40.375 
z
M 52.59375 71.296875 
L 52.59375 62.3125 
Q 48.875 64.0625 45.09375 64.984375 
Q 41.3125 65.921875 37.59375 65.921875 
Q 27.828125 65.921875 22.671875 59.328125 
Q 17.53125 52.734375 16.796875 39.40625 
Q 19.671875 43.65625 24.015625 45.921875 
Q 28.375 48.1875 33.59375 48.1875 
Q 44.578125 48.1875 50.953125 41.515625 
Q 57.328125 34.859375 57.328125 23.390625 
Q 57.328125 12.15625 50.6875 5.359375 
Q 44.046875 -1.421875 33.015625 -1.421875 
Q 20.359375 -1.421875 13.671875 8.265625 
Q 6.984375 17.96875 6.984375 36.375 
Q 6.984375 53.65625 15.1875 63.9375 
Q 23.390625 74.21875 37.203125 74.21875 
Q 40.921875 74.21875 44.703125 73.484375 
Q 48.484375 72.75 52.59375 71.296875 
z
" id="DejaVuSans-54"/>
      </defs>
      <g transform="translate(691.016922 531.097422)scale(0.165 -0.165)">
       <use xlink:href="#DejaVuSans-48"/>
       <use x="63.623047" xlink:href="#DejaVuSans-46"/>
       <use x="95.410156" xlink:href="#DejaVuSans-54"/>
      </g>
     </g>
    </g>
    <g id="xtick_5">
     <g id="line2d_5">
      <g>
       <use style="stroke:#000000;stroke-width:1.875;" x="911.786" xlink:href="#m1447d7d533" y="506.06"/>
      </g>
     </g>
     <g id="text_5">
      <!-- 0.8 -->
      <defs>
       <path d="M 31.78125 34.625 
Q 24.75 34.625 20.71875 30.859375 
Q 16.703125 27.09375 16.703125 20.515625 
Q 16.703125 13.921875 20.71875 10.15625 
Q 24.75 6.390625 31.78125 6.390625 
Q 38.8125 6.390625 42.859375 10.171875 
Q 46.921875 13.96875 46.921875 20.515625 
Q 46.921875 27.09375 42.890625 30.859375 
Q 38.875 34.625 31.78125 34.625 
z
M 21.921875 38.8125 
Q 15.578125 40.375 12.03125 44.71875 
Q 8.5 49.078125 8.5 55.328125 
Q 8.5 64.0625 14.71875 69.140625 
Q 20.953125 74.21875 31.78125 74.21875 
Q 42.671875 74.21875 48.875 69.140625 
Q 55.078125 64.0625 55.078125 55.328125 
Q 55.078125 49.078125 51.53125 44.71875 
Q 48 40.375 41.703125 38.8125 
Q 48.828125 37.15625 52.796875 32.3125 
Q 56.78125 27.484375 56.78125 20.515625 
Q 56.78125 9.90625 50.3125 4.234375 
Q 43.84375 -1.421875 31.78125 -1.421875 
Q 19.734375 -1.421875 13.25 4.234375 
Q 6.78125 9.90625 6.78125 20.515625 
Q 6.78125 27.484375 10.78125 32.3125 
Q 14.796875 37.15625 21.921875 38.8125 
z
M 18.3125 54.390625 
Q 18.3125 48.734375 21.84375 45.5625 
Q 25.390625 42.390625 31.78125 42.390625 
Q 38.140625 42.390625 41.71875 45.5625 
Q 45.3125 48.734375 45.3125 54.390625 
Q 45.3125 60.0625 41.71875 63.234375 
Q 38.140625 66.40625 31.78125 66.40625 
Q 25.390625 66.40625 21.84375 63.234375 
Q 18.3125 60.0625 18.3125 54.390625 
z
" id="DejaVuSans-56"/>
      </defs>
      <g transform="translate(898.665922 531.097422)scale(0.165 -0.165)">
       <use xlink:href="#DejaVuSans-48"/>
       <use x="63.623047" xlink:href="#DejaVuSans-46"/>
       <use x="95.410156" xlink:href="#DejaVuSans-56"/>
      </g>
     </g>
    </g>
    <g id="xtick_6">
     <g id="line2d_6">
      <g>
       <use style="stroke:#000000;stroke-width:1.875;" x="1119.435" xlink:href="#m1447d7d533" y="506.06"/>
      </g>
     </g>
     <g id="text_6">
      <!-- 1.0 -->
      <defs>
       <path d="M 12.40625 8.296875 
L 28.515625 8.296875 
L 28.515625 63.921875 
L 10.984375 60.40625 
L 10.984375 69.390625 
L 28.421875 72.90625 
L 38.28125 72.90625 
L 38.28125 8.296875 
L 54.390625 8.296875 
L 54.390625 0 
L 12.40625 0 
z
" id="DejaVuSans-49"/>
      </defs>
      <g transform="translate(1106.314922 531.097422)scale(0.165 -0.165)">
       <use xlink:href="#DejaVuSans-49"/>
       <use x="63.623047" xlink:href="#DejaVuSans-46"/>
       <use x="95.410156" xlink:href="#DejaVuSans-48"/>
      </g>
     </g>
    </g>
    <g id="text_7">
     <!-- False Positive Rate -->
     <defs>
      <path d="M 9.8125 72.90625 
L 51.703125 72.90625 
L 51.703125 64.59375 
L 19.671875 64.59375 
L 19.671875 43.109375 
L 48.578125 43.109375 
L 48.578125 34.8125 
L 19.671875 34.8125 
L 19.671875 0 
L 9.8125 0 
z
" id="DejaVuSans-70"/>
      <path d="M 34.28125 27.484375 
Q 23.390625 27.484375 19.1875 25 
Q 14.984375 22.515625 14.984375 16.5 
Q 14.984375 11.71875 18.140625 8.90625 
Q 21.296875 6.109375 26.703125 6.109375 
Q 34.1875 6.109375 38.703125 11.40625 
Q 43.21875 16.703125 43.21875 25.484375 
L 43.21875 27.484375 
z
M 52.203125 31.203125 
L 52.203125 0 
L 43.21875 0 
L 43.21875 8.296875 
Q 40.140625 3.328125 35.546875 0.953125 
Q 30.953125 -1.421875 24.3125 -1.421875 
Q 15.921875 -1.421875 10.953125 3.296875 
Q 6 8.015625 6 15.921875 
Q 6 25.140625 12.171875 29.828125 
Q 18.359375 34.515625 30.609375 34.515625 
L 43.21875 34.515625 
L 43.21875 35.40625 
Q 43.21875 41.609375 39.140625 45 
Q 35.0625 48.390625 27.6875 48.390625 
Q 23 48.390625 18.546875 47.265625 
Q 14.109375 46.140625 10.015625 43.890625 
L 10.015625 52.203125 
Q 14.9375 54.109375 19.578125 55.046875 
Q 24.21875 56 28.609375 56 
Q 40.484375 56 46.34375 49.84375 
Q 52.203125 43.703125 52.203125 31.203125 
z
" id="DejaVuSans-97"/>
      <path d="M 9.421875 75.984375 
L 18.40625 75.984375 
L 18.40625 0 
L 9.421875 0 
z
" id="DejaVuSans-108"/>
      <path d="M 44.28125 53.078125 
L 44.28125 44.578125 
Q 40.484375 46.53125 36.375 47.5 
Q 32.28125 48.484375 27.875 48.484375 
Q 21.1875 48.484375 17.84375 46.4375 
Q 14.5 44.390625 14.5 40.28125 
Q 14.5 37.15625 16.890625 35.375 
Q 19.28125 33.59375 26.515625 31.984375 
L 29.59375 31.296875 
Q 39.15625 29.25 43.1875 25.515625 
Q 47.21875 21.78125 47.21875 15.09375 
Q 47.21875 7.46875 41.1875 3.015625 
Q 35.15625 -1.421875 24.609375 -1.421875 
Q 20.21875 -1.421875 15.453125 -0.5625 
Q 10.6875 0.296875 5.421875 2 
L 5.421875 11.28125 
Q 10.40625 8.6875 15.234375 7.390625 
Q 20.0625 6.109375 24.8125 6.109375 
Q 31.15625 6.109375 34.5625 8.28125 
Q 37.984375 10.453125 37.984375 14.40625 
Q 37.984375 18.0625 35.515625 20.015625 
Q 33.0625 21.96875 24.703125 23.78125 
L 21.578125 24.515625 
Q 13.234375 26.265625 9.515625 29.90625 
Q 5.8125 33.546875 5.8125 39.890625 
Q 5.8125 47.609375 11.28125 51.796875 
Q 16.75 56 26.8125 56 
Q 31.78125 56 36.171875 55.265625 
Q 40.578125 54.546875 44.28125 53.078125 
z
" id="DejaVuSans-115"/>
      <path d="M 56.203125 29.59375 
L 56.203125 25.203125 
L 14.890625 25.203125 
Q 15.484375 15.921875 20.484375 11.0625 
Q 25.484375 6.203125 34.421875 6.203125 
Q 39.59375 6.203125 44.453125 7.46875 
Q 49.3125 8.734375 54.109375 11.28125 
L 54.109375 2.78125 
Q 49.265625 0.734375 44.1875 -0.34375 
Q 39.109375 -1.421875 33.890625 -1.421875 
Q 20.796875 -1.421875 13.15625 6.1875 
Q 5.515625 13.8125 5.515625 26.8125 
Q 5.515625 40.234375 12.765625 48.109375 
Q 20.015625 56 32.328125 56 
Q 43.359375 56 49.78125 48.890625 
Q 56.203125 41.796875 56.203125 29.59375 
z
M 47.21875 32.234375 
Q 47.125 39.59375 43.09375 43.984375 
Q 39.0625 48.390625 32.421875 48.390625 
Q 24.90625 48.390625 20.390625 44.140625 
Q 15.875 39.890625 15.1875 32.171875 
z
" id="DejaVuSans-101"/>
      <path id="DejaVuSans-32"/>
      <path d="M 19.671875 64.796875 
L 19.671875 37.40625 
L 32.078125 37.40625 
Q 38.96875 37.40625 42.71875 40.96875 
Q 46.484375 44.53125 46.484375 51.125 
Q 46.484375 57.671875 42.71875 61.234375 
Q 38.96875 64.796875 32.078125 64.796875 
z
M 9.8125 72.90625 
L 32.078125 72.90625 
Q 44.34375 72.90625 50.609375 67.359375 
Q 56.890625 61.8125 56.890625 51.125 
Q 56.890625 40.328125 50.609375 34.8125 
Q 44.34375 29.296875 32.078125 29.296875 
L 19.671875 29.296875 
L 19.671875 0 
L 9.8125 0 
z
" id="DejaVuSans-80"/>
      <path d="M 30.609375 48.390625 
Q 23.390625 48.390625 19.1875 42.75 
Q 14.984375 37.109375 14.984375 27.296875 
Q 14.984375 17.484375 19.15625 11.84375 
Q 23.34375 6.203125 30.609375 6.203125 
Q 37.796875 6.203125 41.984375 11.859375 
Q 46.1875 17.53125 46.1875 27.296875 
Q 46.1875 37.015625 41.984375 42.703125 
Q 37.796875 48.390625 30.609375 48.390625 
z
M 30.609375 56 
Q 42.328125 56 49.015625 48.375 
Q 55.71875 40.765625 55.71875 27.296875 
Q 55.71875 13.875 49.015625 6.21875 
Q 42.328125 -1.421875 30.609375 -1.421875 
Q 18.84375 -1.421875 12.171875 6.21875 
Q 5.515625 13.875 5.515625 27.296875 
Q 5.515625 40.765625 12.171875 48.375 
Q 18.84375 56 30.609375 56 
z
" id="DejaVuSans-111"/>
      <path d="M 9.421875 54.6875 
L 18.40625 54.6875 
L 18.40625 0 
L 9.421875 0 
z
M 9.421875 75.984375 
L 18.40625 75.984375 
L 18.40625 64.59375 
L 9.421875 64.59375 
z
" id="DejaVuSans-105"/>
      <path d="M 18.3125 70.21875 
L 18.3125 54.6875 
L 36.8125 54.6875 
L 36.8125 47.703125 
L 18.3125 47.703125 
L 18.3125 18.015625 
Q 18.3125 11.328125 20.140625 9.421875 
Q 21.96875 7.515625 27.59375 7.515625 
L 36.8125 7.515625 
L 36.8125 0 
L 27.59375 0 
Q 17.1875 0 13.234375 3.875 
Q 9.28125 7.765625 9.28125 18.015625 
L 9.28125 47.703125 
L 2.6875 47.703125 
L 2.6875 54.6875 
L 9.28125 54.6875 
L 9.28125 70.21875 
z
" id="DejaVuSans-116"/>
      <path d="M 2.984375 54.6875 
L 12.5 54.6875 
L 29.59375 8.796875 
L 46.6875 54.6875 
L 56.203125 54.6875 
L 35.6875 0 
L 23.484375 0 
z
" id="DejaVuSans-118"/>
      <path d="M 44.390625 34.1875 
Q 47.5625 33.109375 50.5625 29.59375 
Q 53.5625 26.078125 56.59375 19.921875 
L 66.609375 0 
L 56 0 
L 46.6875 18.703125 
Q 43.0625 26.03125 39.671875 28.421875 
Q 36.28125 30.8125 30.421875 30.8125 
L 19.671875 30.8125 
L 19.671875 0 
L 9.8125 0 
L 9.8125 72.90625 
L 32.078125 72.90625 
Q 44.578125 72.90625 50.734375 67.671875 
Q 56.890625 62.453125 56.890625 51.90625 
Q 56.890625 45.015625 53.6875 40.46875 
Q 50.484375 35.9375 44.390625 34.1875 
z
M 19.671875 64.796875 
L 19.671875 38.921875 
L 32.078125 38.921875 
Q 39.203125 38.921875 42.84375 42.21875 
Q 46.484375 45.515625 46.484375 51.90625 
Q 46.484375 58.296875 42.84375 61.546875 
Q 39.203125 64.796875 32.078125 64.796875 
z
" id="DejaVuSans-82"/>
     </defs>
     <g transform="translate(505.901563 553.725781)scale(0.2 -0.2)">
      <use xlink:href="#DejaVuSans-70"/>
      <use x="57.378906" xlink:href="#DejaVuSans-97"/>
      <use x="118.658203" xlink:href="#DejaVuSans-108"/>
      <use x="146.441406" xlink:href="#DejaVuSans-115"/>
      <use x="198.541016" xlink:href="#DejaVuSans-101"/>
      <use x="260.064453" xlink:href="#DejaVuSans-32"/>
      <use x="291.851562" xlink:href="#DejaVuSans-80"/>
      <use x="352.107422" xlink:href="#DejaVuSans-111"/>
      <use x="413.289062" xlink:href="#DejaVuSans-115"/>
      <use x="465.388672" xlink:href="#DejaVuSans-105"/>
      <use x="493.171875" xlink:href="#DejaVuSans-116"/>
      <use x="532.380859" xlink:href="#DejaVuSans-105"/>
      <use x="560.164062" xlink:href="#DejaVuSans-118"/>
      <use x="619.34375" xlink:href="#DejaVuSans-101"/>
      <use x="680.867188" xlink:href="#DejaVuSans-32"/>
      <use x="712.654297" xlink:href="#DejaVuSans-82"/>
      <use x="782.105469" xlink:href="#DejaVuSans-97"/>
      <use x="843.384766" xlink:href="#DejaVuSans-116"/>
      <use x="882.59375" xlink:href="#DejaVuSans-101"/>
     </g>
    </g>
   </g>
   <g id="matplotlib.axis_2">
    <g id="ytick_1">
     <g id="line2d_7">
      <defs>
       <path d="M 0 0 
L -9 0 
" id="m99a915e816" style="stroke:#000000;stroke-width:1.875;"/>
      </defs>
      <g>
       <use style="stroke:#000000;stroke-width:1.875;" x="81.19" xlink:href="#m99a915e816" y="506.06"/>
      </g>
     </g>
     <g id="text_8">
      <!-- 0.0 -->
      <g transform="translate(42.449844 512.328711)scale(0.165 -0.165)">
       <use xlink:href="#DejaVuSans-48"/>
       <use x="63.623047" xlink:href="#DejaVuSans-46"/>
       <use x="95.410156" xlink:href="#DejaVuSans-48"/>
      </g>
     </g>
    </g>
    <g id="ytick_2">
     <g id="line2d_8">
      <g>
       <use style="stroke:#000000;stroke-width:1.875;" x="81.19" xlink:href="#m99a915e816" y="412.936"/>
      </g>
     </g>
     <g id="text_9">
      <!-- 0.2 -->
      <g transform="translate(42.449844 419.204711)scale(0.165 -0.165)">
       <use xlink:href="#DejaVuSans-48"/>
       <use x="63.623047" xlink:href="#DejaVuSans-46"/>
       <use x="95.410156" xlink:href="#DejaVuSans-50"/>
      </g>
     </g>
    </g>
    <g id="ytick_3">
     <g id="line2d_9">
      <g>
       <use style="stroke:#000000;stroke-width:1.875;" x="81.19" xlink:href="#m99a915e816" y="319.812"/>
      </g>
     </g>
     <g id="text_10">
      <!-- 0.4 -->
      <g transform="translate(42.449844 326.080711)scale(0.165 -0.165)">
       <use xlink:href="#DejaVuSans-48"/>
       <use x="63.623047" xlink:href="#DejaVuSans-46"/>
       <use x="95.410156" xlink:href="#DejaVuSans-52"/>
      </g>
     </g>
    </g>
    <g id="ytick_4">
     <g id="line2d_10">
      <g>
       <use style="stroke:#000000;stroke-width:1.875;" x="81.19" xlink:href="#m99a915e816" y="226.688"/>
      </g>
     </g>
     <g id="text_11">
      <!-- 0.6 -->
      <g transform="translate(42.449844 232.956711)scale(0.165 -0.165)">
       <use xlink:href="#DejaVuSans-48"/>
       <use x="63.623047" xlink:href="#DejaVuSans-46"/>
       <use x="95.410156" xlink:href="#DejaVuSans-54"/>
      </g>
     </g>
    </g>
    <g id="ytick_5">
     <g id="line2d_11">
      <g>
       <use style="stroke:#000000;stroke-width:1.875;" x="81.19" xlink:href="#m99a915e816" y="133.564"/>
      </g>
     </g>
     <g id="text_12">
      <!-- 0.8 -->
      <g transform="translate(42.449844 139.832711)scale(0.165 -0.165)">
       <use xlink:href="#DejaVuSans-48"/>
       <use x="63.623047" xlink:href="#DejaVuSans-46"/>
       <use x="95.410156" xlink:href="#DejaVuSans-56"/>
      </g>
     </g>
    </g>
    <g id="ytick_6">
     <g id="line2d_12">
      <g>
       <use style="stroke:#000000;stroke-width:1.875;" x="81.19" xlink:href="#m99a915e816" y="40.44"/>
      </g>
     </g>
     <g id="text_13">
      <!-- 1.0 -->
      <g transform="translate(42.449844 46.708711)scale(0.165 -0.165)">
       <use xlink:href="#DejaVuSans-49"/>
       <use x="63.623047" xlink:href="#DejaVuSans-46"/>
       <use x="95.410156" xlink:href="#DejaVuSans-48"/>
      </g>
     </g>
    </g>
    <g id="text_14">
     <!-- True Positive Rate -->
     <defs>
      <path d="M -0.296875 72.90625 
L 61.375 72.90625 
L 61.375 64.59375 
L 35.5 64.59375 
L 35.5 0 
L 25.59375 0 
L 25.59375 64.59375 
L -0.296875 64.59375 
z
" id="DejaVuSans-84"/>
      <path d="M 41.109375 46.296875 
Q 39.59375 47.171875 37.8125 47.578125 
Q 36.03125 48 33.890625 48 
Q 26.265625 48 22.1875 43.046875 
Q 18.109375 38.09375 18.109375 28.8125 
L 18.109375 0 
L 9.078125 0 
L 9.078125 54.6875 
L 18.109375 54.6875 
L 18.109375 46.1875 
Q 20.953125 51.171875 25.484375 53.578125 
Q 30.03125 56 36.53125 56 
Q 37.453125 56 38.578125 55.875 
Q 39.703125 55.765625 41.0625 55.515625 
z
" id="DejaVuSans-114"/>
      <path d="M 8.5 21.578125 
L 8.5 54.6875 
L 17.484375 54.6875 
L 17.484375 21.921875 
Q 17.484375 14.15625 20.5 10.265625 
Q 23.53125 6.390625 29.59375 6.390625 
Q 36.859375 6.390625 41.078125 11.03125 
Q 45.3125 15.671875 45.3125 23.6875 
L 45.3125 54.6875 
L 54.296875 54.6875 
L 54.296875 0 
L 45.3125 0 
L 45.3125 8.40625 
Q 42.046875 3.421875 37.71875 1 
Q 33.40625 -1.421875 27.6875 -1.421875 
Q 18.265625 -1.421875 13.375 4.4375 
Q 8.5 10.296875 8.5 21.578125 
z
M 31.109375 56 
z
" id="DejaVuSans-117"/>
     </defs>
     <g transform="translate(34.290469 364.342188)rotate(-90)scale(0.2 -0.2)">
      <use xlink:href="#DejaVuSans-84"/>
      <use x="60.865234" xlink:href="#DejaVuSans-114"/>
      <use x="101.978516" xlink:href="#DejaVuSans-117"/>
      <use x="165.357422" xlink:href="#DejaVuSans-101"/>
      <use x="226.880859" xlink:href="#DejaVuSans-32"/>
      <use x="258.667969" xlink:href="#DejaVuSans-80"/>
      <use x="318.923828" xlink:href="#DejaVuSans-111"/>
      <use x="380.105469" xlink:href="#DejaVuSans-115"/>
      <use x="432.205078" xlink:href="#DejaVuSans-105"/>
      <use x="459.988281" xlink:href="#DejaVuSans-116"/>
      <use x="499.197266" xlink:href="#DejaVuSans-105"/>
      <use x="526.980469" xlink:href="#DejaVuSans-118"/>
      <use x="586.160156" xlink:href="#DejaVuSans-101"/>
      <use x="647.683594" xlink:href="#DejaVuSans-32"/>
      <use x="679.470703" xlink:href="#DejaVuSans-82"/>
      <use x="748.921875" xlink:href="#DejaVuSans-97"/>
      <use x="810.201172" xlink:href="#DejaVuSans-116"/>
      <use x="849.410156" xlink:href="#DejaVuSans-101"/>
     </g>
    </g>
   </g>
   <g id="line2d_13">
    <path clip-path="url(#pb7f0499845)" d="M 81.19 506.06 
L 81.19 503.25083 
L 83.747254 503.25083 
L 83.747254 501.143952 
L 86.304507 501.143952 
L 86.304507 479.372881 
L 88.861761 479.372881 
L 88.861761 478.670588 
L 91.419015 478.670588 
L 91.419015 477.968296 
L 93.976268 477.968296 
L 93.976268 470.243077 
L 96.533522 470.243077 
L 96.533522 463.922443 
L 99.090776 463.922443 
L 99.090776 461.113273 
L 104.205283 461.113273 
L 104.205283 456.899517 
L 106.762537 456.899517 
L 106.762537 451.281176 
L 109.319791 451.281176 
L 109.319791 447.067421 
L 111.877044 447.067421 
L 111.877044 445.662836 
L 114.434298 445.662836 
L 114.434298 440.746787 
L 119.548805 440.746787 
L 119.548805 438.63991 
L 122.106059 438.63991 
L 122.106059 436.533032 
L 124.663313 436.533032 
L 124.663313 432.319276 
L 127.220567 432.319276 
L 127.220567 431.616983 
L 129.77782 431.616983 
L 129.77782 430.212398 
L 137.449581 430.212398 
L 137.449581 429.510106 
L 140.006835 429.510106 
L 140.006835 428.10552 
L 142.564089 428.10552 
L 142.564089 420.380302 
L 145.121342 420.380302 
L 145.121342 419.678009 
L 147.678596 419.678009 
L 147.678596 418.273424 
L 152.793103 418.273424 
L 152.793103 414.761961 
L 155.350357 414.761961 
L 155.350357 412.655083 
L 160.464865 412.655083 
L 160.464865 409.845913 
L 165.579372 409.845913 
L 165.579372 401.418401 
L 168.136626 401.418401 
L 168.136626 398.609231 
L 170.693879 398.609231 
L 170.693879 394.395475 
L 178.36564 394.395475 
L 178.36564 393.693183 
L 180.922894 393.693183 
L 180.922894 391.586305 
L 183.480148 391.586305 
L 183.480148 390.884012 
L 188.594655 390.884012 
L 188.594655 387.372549 
L 191.151909 387.372549 
L 191.151909 381.754208 
L 193.709163 381.754208 
L 193.709163 380.349623 
L 196.266416 380.349623 
L 196.266416 378.242745 
L 198.82367 378.242745 
L 198.82367 374.028989 
L 201.380924 374.028989 
L 201.380924 365.601478 
L 209.052685 365.601478 
L 209.052685 364.899186 
L 214.167192 364.899186 
L 214.167192 364.196893 
L 219.2817 364.196893 
L 219.2817 361.387722 
L 221.838953 361.387722 
L 221.838953 354.364796 
L 226.953461 354.364796 
L 226.953461 352.257919 
L 232.067968 352.257919 
L 232.067968 347.34187 
L 234.625222 347.34187 
L 234.625222 346.639578 
L 237.182475 346.639578 
L 237.182475 341.723529 
L 239.739729 341.723529 
L 239.739729 341.021237 
L 242.296983 341.021237 
L 242.296983 338.212066 
L 244.854236 338.212066 
L 244.854236 336.105189 
L 247.41149 336.105189 
L 247.41149 330.486848 
L 249.968744 330.486848 
L 249.968744 329.784555 
L 252.525998 329.784555 
L 252.525998 324.868507 
L 257.640505 324.868507 
L 257.640505 324.166214 
L 260.197759 324.166214 
L 260.197759 313.631825 
L 265.312266 313.631825 
L 265.312266 312.929532 
L 270.426773 312.929532 
L 270.426773 308.715777 
L 272.984027 308.715777 
L 272.984027 308.013484 
L 275.541281 308.013484 
L 275.541281 306.608899 
L 280.655788 306.608899 
L 280.655788 291.158462 
L 283.213042 291.158462 
L 283.213042 289.753876 
L 285.770296 289.753876 
L 285.770296 286.944706 
L 288.327549 286.944706 
L 288.327549 286.242413 
L 290.884803 286.242413 
L 290.884803 284.135535 
L 295.99931 284.135535 
L 295.99931 281.326365 
L 301.113818 281.326365 
L 301.113818 279.92178 
L 303.671071 279.92178 
L 303.671071 278.517195 
L 308.785579 278.517195 
L 308.785579 275.005732 
L 311.342833 275.005732 
L 311.342833 274.303439 
L 313.900086 274.303439 
L 313.900086 272.898854 
L 321.571847 272.898854 
L 321.571847 270.791976 
L 326.686355 270.791976 
L 326.686355 270.089683 
L 331.800862 270.089683 
L 331.800862 269.387391 
L 334.358116 269.387391 
L 334.358116 267.982805 
L 336.915369 267.982805 
L 336.915369 263.066757 
L 339.472623 263.066757 
L 339.472623 259.555294 
L 342.029877 259.555294 
L 342.029877 258.150709 
L 352.258892 258.150709 
L 352.258892 257.448416 
L 362.487906 257.448416 
L 362.487906 256.746124 
L 365.04516 256.746124 
L 365.04516 254.639246 
L 367.602414 254.639246 
L 367.602414 253.234661 
L 372.716921 253.234661 
L 372.716921 252.532368 
L 380.388682 252.532368 
L 380.388682 251.127783 
L 385.50319 251.127783 
L 385.50319 250.42549 
L 388.060443 250.42549 
L 388.060443 249.020905 
L 390.617697 249.020905 
L 390.617697 246.914027 
L 393.174951 246.914027 
L 393.174951 244.104857 
L 398.289458 244.104857 
L 398.289458 237.784223 
L 400.846712 237.784223 
L 400.846712 236.379638 
L 403.403966 236.379638 
L 403.403966 234.975053 
L 405.961219 234.975053 
L 405.961219 234.27276 
L 411.075727 234.27276 
L 411.075727 232.868175 
L 416.190234 232.868175 
L 416.190234 232.165882 
L 426.419249 232.165882 
L 426.419249 231.46359 
L 428.976502 231.46359 
L 428.976502 229.356712 
L 431.533756 229.356712 
L 431.533756 227.249834 
L 436.648264 227.249834 
L 436.648264 225.845249 
L 439.205517 225.845249 
L 439.205517 223.738371 
L 449.434532 223.738371 
L 449.434532 219.524615 
L 454.549039 219.524615 
L 454.549039 218.822323 
L 457.106293 218.822323 
L 457.106293 217.417738 
L 459.663547 217.417738 
L 459.663547 216.715445 
L 464.778054 216.715445 
L 464.778054 215.31086 
L 467.335308 215.31086 
L 467.335308 213.203982 
L 469.892562 213.203982 
L 469.892562 208.990226 
L 472.449815 208.990226 
L 472.449815 206.883348 
L 475.007069 206.883348 
L 475.007069 205.478763 
L 477.564323 205.478763 
L 477.564323 204.776471 
L 480.121576 204.776471 
L 480.121576 204.074178 
L 490.350591 204.074178 
L 490.350591 202.669593 
L 492.907845 202.669593 
L 492.907845 201.265008 
L 495.465099 201.265008 
L 495.465099 199.15813 
L 500.579606 199.15813 
L 500.579606 198.455837 
L 503.13686 198.455837 
L 503.13686 196.348959 
L 508.251367 196.348959 
L 508.251367 194.944374 
L 510.808621 194.944374 
L 510.808621 194.242081 
L 513.365874 194.242081 
L 513.365874 193.539789 
L 515.923128 193.539789 
L 515.923128 191.432911 
L 523.594889 191.432911 
L 523.594889 190.730618 
L 526.152143 190.730618 
L 526.152143 189.326033 
L 531.26665 189.326033 
L 531.26665 188.623741 
L 538.938411 188.623741 
L 538.938411 187.921448 
L 541.495665 187.921448 
L 541.495665 187.219155 
L 544.052919 187.219155 
L 544.052919 185.112278 
L 546.610172 185.112278 
L 546.610172 183.707692 
L 551.72468 183.707692 
L 551.72468 179.493937 
L 554.281933 179.493937 
L 554.281933 175.982474 
L 556.839187 175.982474 
L 556.839187 175.280181 
L 559.396441 175.280181 
L 559.396441 174.577888 
L 561.953695 174.577888 
L 561.953695 173.875596 
L 574.739963 173.875596 
L 574.739963 172.471011 
L 587.526232 172.471011 
L 587.526232 171.066425 
L 590.083485 171.066425 
L 590.083485 164.745792 
L 592.640739 164.745792 
L 592.640739 164.043499 
L 595.197993 164.043499 
L 595.197993 163.341207 
L 597.755246 163.341207 
L 597.755246 161.234329 
L 602.869754 161.234329 
L 602.869754 160.532036 
L 605.427007 160.532036 
L 605.427007 159.127451 
L 607.984261 159.127451 
L 607.984261 157.722866 
L 610.541515 157.722866 
L 610.541515 153.50911 
L 613.098768 153.50911 
L 613.098768 152.806817 
L 615.656022 152.806817 
L 615.656022 152.104525 
L 620.77053 152.104525 
L 620.77053 149.997647 
L 625.885037 149.997647 
L 625.885037 147.188477 
L 633.556798 147.188477 
L 633.556798 146.486184 
L 638.671305 146.486184 
L 638.671305 144.379306 
L 643.785813 144.379306 
L 643.785813 141.570136 
L 648.90032 141.570136 
L 648.90032 140.165551 
L 651.457574 140.165551 
L 651.457574 138.760965 
L 654.014828 138.760965 
L 654.014828 138.058673 
L 656.572081 138.058673 
L 656.572081 137.35638 
L 659.129335 137.35638 
L 659.129335 133.844917 
L 671.915603 133.844917 
L 671.915603 132.440332 
L 674.472857 132.440332 
L 674.472857 131.738039 
L 679.587365 131.738039 
L 679.587365 129.631161 
L 682.144618 129.631161 
L 682.144618 126.821991 
L 684.701872 126.821991 
L 684.701872 126.119698 
L 687.259126 126.119698 
L 687.259126 125.417406 
L 689.816379 125.417406 
L 689.816379 124.715113 
L 692.373633 124.715113 
L 692.373633 123.310528 
L 700.045394 123.310528 
L 700.045394 120.501357 
L 702.602648 120.501357 
L 702.602648 119.799065 
L 710.274409 119.799065 
L 710.274409 119.096772 
L 715.388916 119.096772 
L 715.388916 117.692187 
L 717.94617 117.692187 
L 717.94617 116.989894 
L 723.060677 116.989894 
L 723.060677 113.478431 
L 725.617931 113.478431 
L 725.617931 112.073846 
L 733.289692 112.073846 
L 733.289692 109.264676 
L 738.4042 109.264676 
L 738.4042 102.944042 
L 740.961453 102.944042 
L 740.961453 100.837164 
L 758.862229 100.837164 
L 758.862229 98.730287 
L 763.976736 98.730287 
L 763.976736 95.921116 
L 766.53399 95.921116 
L 766.53399 93.111946 
L 769.091244 93.111946 
L 769.091244 92.409653 
L 774.205751 92.409653 
L 774.205751 89.600483 
L 781.877512 89.600483 
L 781.877512 88.195897 
L 789.549273 88.195897 
L 789.549273 86.791312 
L 802.335542 86.791312 
L 802.335542 83.982142 
L 807.450049 83.982142 
L 807.450049 81.875264 
L 810.007303 81.875264 
L 810.007303 80.470679 
L 817.679064 80.470679 
L 817.679064 79.768386 
L 827.908079 79.768386 
L 827.908079 79.066094 
L 830.465333 79.066094 
L 830.465333 77.661508 
L 840.694347 77.661508 
L 840.694347 75.55463 
L 843.251601 75.55463 
L 843.251601 74.150045 
L 845.808855 74.150045 
L 845.808855 72.74546 
L 848.366108 72.74546 
L 848.366108 71.340875 
L 853.480616 71.340875 
L 853.480616 69.93629 
L 856.037869 69.93629 
L 856.037869 69.233997 
L 858.595123 69.233997 
L 858.595123 68.531704 
L 863.709631 68.531704 
L 863.709631 67.127119 
L 868.824138 67.127119 
L 868.824138 65.020241 
L 879.053153 65.020241 
L 879.053153 64.317949 
L 891.839421 64.317949 
L 891.839421 63.615656 
L 909.740197 63.615656 
L 909.740197 62.913363 
L 914.854704 62.913363 
L 914.854704 62.211071 
L 919.969212 62.211071 
L 919.969212 61.508778 
L 925.083719 61.508778 
L 925.083719 59.4019 
L 927.640973 59.4019 
L 927.640973 58.699608 
L 930.198227 58.699608 
L 930.198227 57.295023 
L 945.541749 57.295023 
L 945.541749 56.59273 
L 963.442525 56.59273 
L 963.442525 55.890437 
L 965.999778 55.890437 
L 965.999778 54.485852 
L 968.557032 54.485852 
L 968.557032 53.78356 
L 973.671539 53.78356 
L 973.671539 52.378974 
L 983.900554 52.378974 
L 983.900554 51.676682 
L 986.457808 51.676682 
L 986.457808 50.974389 
L 1024.816613 50.974389 
L 1024.816613 49.569804 
L 1029.931121 49.569804 
L 1029.931121 48.165219 
L 1035.045628 48.165219 
L 1035.045628 46.760633 
L 1047.831897 46.760633 
L 1047.831897 46.058341 
L 1050.38915 46.058341 
L 1050.38915 45.356048 
L 1052.946404 45.356048 
L 1052.946404 43.951463 
L 1060.618165 43.951463 
L 1060.618165 43.24917 
L 1068.289926 43.24917 
L 1068.289926 42.546878 
L 1081.076195 42.546878 
L 1081.076195 41.844585 
L 1101.534224 41.844585 
L 1101.534224 41.142293 
L 1106.648732 41.142293 
L 1106.648732 40.44 
L 1119.435 40.44 
L 1119.435 40.44 
" style="fill:none;stroke:#ff0000;stroke-linecap:square;stroke-width:2;"/>
   </g>
   <g id="line2d_14">
    <path clip-path="url(#pb7f0499845)" d="M 81.19 506.06 
L 81.19 501.846244 
L 83.747254 501.846244 
L 83.747254 491.311855 
L 86.304507 491.311855 
L 86.304507 487.800392 
L 91.419015 487.800392 
L 91.419015 484.991222 
L 93.976268 484.991222 
L 93.976268 477.968296 
L 99.090776 477.968296 
L 99.090776 473.75454 
L 101.64803 473.75454 
L 101.64803 456.197225 
L 104.205283 456.197225 
L 104.205283 451.983469 
L 111.877044 451.983469 
L 111.877044 446.365128 
L 114.434298 446.365128 
L 114.434298 444.960543 
L 116.991552 444.960543 
L 116.991552 442.151373 
L 119.548805 442.151373 
L 119.548805 428.807813 
L 122.106059 428.807813 
L 122.106059 428.10552 
L 124.663313 428.10552 
L 124.663313 425.29635 
L 127.220567 425.29635 
L 127.220567 423.189472 
L 129.77782 423.189472 
L 129.77782 415.464253 
L 132.335074 415.464253 
L 132.335074 414.761961 
L 137.449581 414.761961 
L 137.449581 412.655083 
L 140.006835 412.655083 
L 140.006835 409.845913 
L 147.678596 409.845913 
L 147.678596 409.14362 
L 152.793103 409.14362 
L 152.793103 407.739035 
L 155.350357 407.739035 
L 155.350357 407.036742 
L 157.907611 407.036742 
L 157.907611 402.822986 
L 160.464865 402.822986 
L 160.464865 401.418401 
L 163.022118 401.418401 
L 163.022118 400.013816 
L 165.579372 400.013816 
L 165.579372 393.693183 
L 168.136626 393.693183 
L 168.136626 392.99089 
L 170.693879 392.99089 
L 170.693879 386.670256 
L 173.251133 386.670256 
L 173.251133 384.563379 
L 175.808387 384.563379 
L 175.808387 382.456501 
L 178.36564 382.456501 
L 178.36564 381.754208 
L 180.922894 381.754208 
L 180.922894 381.051916 
L 183.480148 381.051916 
L 183.480148 379.64733 
L 186.037401 379.64733 
L 186.037401 377.540452 
L 198.82367 377.540452 
L 198.82367 376.135867 
L 201.380924 376.135867 
L 201.380924 374.731282 
L 209.052685 374.731282 
L 209.052685 370.517526 
L 211.609938 370.517526 
L 211.609938 363.4946 
L 214.167192 363.4946 
L 214.167192 362.090015 
L 216.724446 362.090015 
L 216.724446 358.578552 
L 219.2817 358.578552 
L 219.2817 357.173967 
L 221.838953 357.173967 
L 221.838953 355.067089 
L 224.396207 355.067089 
L 224.396207 351.555626 
L 226.953461 351.555626 
L 226.953461 350.151041 
L 232.067968 350.151041 
L 232.067968 348.746456 
L 234.625222 348.746456 
L 234.625222 348.044163 
L 242.296983 348.044163 
L 242.296983 345.937285 
L 244.854236 345.937285 
L 244.854236 340.318944 
L 247.41149 340.318944 
L 247.41149 336.807481 
L 249.968744 336.807481 
L 249.968744 330.486848 
L 252.525998 330.486848 
L 252.525998 326.975385 
L 255.083251 326.975385 
L 255.083251 322.059336 
L 257.640505 322.059336 
L 257.640505 316.440995 
L 265.312266 316.440995 
L 265.312266 310.120362 
L 267.86952 310.120362 
L 267.86952 309.418069 
L 272.984027 309.418069 
L 272.984027 308.715777 
L 278.098534 308.715777 
L 278.098534 308.013484 
L 283.213042 308.013484 
L 283.213042 307.311192 
L 285.770296 307.311192 
L 285.770296 306.608899 
L 290.884803 306.608899 
L 290.884803 305.204314 
L 295.99931 305.204314 
L 295.99931 303.097436 
L 298.556564 303.097436 
L 298.556564 301.692851 
L 303.671071 301.692851 
L 303.671071 300.990558 
L 306.228325 300.990558 
L 306.228325 299.585973 
L 308.785579 299.585973 
L 308.785579 297.479095 
L 311.342833 297.479095 
L 311.342833 296.07451 
L 316.45734 296.07451 
L 316.45734 294.669925 
L 319.014594 294.669925 
L 319.014594 289.051584 
L 324.129101 289.051584 
L 324.129101 288.349291 
L 326.686355 288.349291 
L 326.686355 286.242413 
L 339.472623 286.242413 
L 339.472623 284.135535 
L 342.029877 284.135535 
L 342.029877 278.517195 
L 344.587131 278.517195 
L 344.587131 277.814902 
L 347.144384 277.814902 
L 347.144384 277.112609 
L 352.258892 277.112609 
L 352.258892 271.494268 
L 357.373399 271.494268 
L 357.373399 269.387391 
L 359.930653 269.387391 
L 359.930653 265.875928 
L 367.602414 265.875928 
L 367.602414 263.066757 
L 375.274175 263.066757 
L 375.274175 259.555294 
L 377.831429 259.555294 
L 377.831429 258.853002 
L 380.388682 258.853002 
L 380.388682 249.723198 
L 382.945936 249.723198 
L 382.945936 244.807149 
L 388.060443 244.807149 
L 388.060443 241.295686 
L 390.617697 241.295686 
L 390.617697 234.27276 
L 393.174951 234.27276 
L 393.174951 232.165882 
L 395.732204 232.165882 
L 395.732204 231.46359 
L 398.289458 231.46359 
L 398.289458 229.356712 
L 400.846712 229.356712 
L 400.846712 226.547541 
L 403.403966 226.547541 
L 403.403966 220.929201 
L 408.518473 220.929201 
L 408.518473 219.524615 
L 411.075727 219.524615 
L 411.075727 218.12003 
L 416.190234 218.12003 
L 416.190234 217.417738 
L 418.747488 217.417738 
L 418.747488 213.203982 
L 423.861995 213.203982 
L 423.861995 212.501689 
L 426.419249 212.501689 
L 426.419249 211.799397 
L 428.976502 211.799397 
L 428.976502 210.394811 
L 436.648264 210.394811 
L 436.648264 208.287934 
L 441.762771 208.287934 
L 441.762771 206.883348 
L 444.320025 206.883348 
L 444.320025 206.181056 
L 449.434532 206.181056 
L 449.434532 204.074178 
L 451.991786 204.074178 
L 451.991786 201.9673 
L 454.549039 201.9673 
L 454.549039 196.348959 
L 457.106293 196.348959 
L 457.106293 194.242081 
L 459.663547 194.242081 
L 459.663547 191.432911 
L 462.2208 191.432911 
L 462.2208 190.028326 
L 467.335308 190.028326 
L 467.335308 189.326033 
L 472.449815 189.326033 
L 472.449815 187.921448 
L 475.007069 187.921448 
L 475.007069 183.0054 
L 482.67883 183.0054 
L 482.67883 180.196229 
L 485.236084 180.196229 
L 485.236084 179.493937 
L 490.350591 179.493937 
L 490.350591 175.982474 
L 492.907845 175.982474 
L 492.907845 173.875596 
L 498.022352 173.875596 
L 498.022352 172.471011 
L 518.480382 172.471011 
L 518.480382 171.768718 
L 521.037635 171.768718 
L 521.037635 170.364133 
L 523.594889 170.364133 
L 523.594889 169.66184 
L 531.26665 169.66184 
L 531.26665 166.150377 
L 536.381158 166.150377 
L 536.381158 164.043499 
L 546.610172 164.043499 
L 546.610172 162.638914 
L 549.167426 162.638914 
L 549.167426 160.532036 
L 551.72468 160.532036 
L 551.72468 159.829744 
L 554.281933 159.829744 
L 554.281933 159.127451 
L 556.839187 159.127451 
L 556.839187 158.425158 
L 559.396441 158.425158 
L 559.396441 157.722866 
L 561.953695 157.722866 
L 561.953695 157.020573 
L 567.068202 157.020573 
L 567.068202 156.318281 
L 572.182709 156.318281 
L 572.182709 155.615988 
L 574.739963 155.615988 
L 574.739963 152.104525 
L 579.85447 152.104525 
L 579.85447 151.402232 
L 587.526232 151.402232 
L 587.526232 150.69994 
L 590.083485 150.69994 
L 590.083485 149.997647 
L 592.640739 149.997647 
L 592.640739 149.295354 
L 597.755246 149.295354 
L 597.755246 148.593062 
L 600.3125 148.593062 
L 600.3125 146.486184 
L 605.427007 146.486184 
L 605.427007 145.783891 
L 618.213276 145.783891 
L 618.213276 142.272428 
L 623.327783 142.272428 
L 623.327783 140.867843 
L 628.442291 140.867843 
L 628.442291 137.35638 
L 636.114052 137.35638 
L 636.114052 133.844917 
L 638.671305 133.844917 
L 638.671305 132.440332 
L 641.228559 132.440332 
L 641.228559 131.738039 
L 654.014828 131.738039 
L 654.014828 129.631161 
L 656.572081 129.631161 
L 656.572081 128.226576 
L 664.243842 128.226576 
L 664.243842 126.119698 
L 669.35835 126.119698 
L 669.35835 123.310528 
L 674.472857 123.310528 
L 674.472857 122.608235 
L 677.030111 122.608235 
L 677.030111 121.905943 
L 682.144618 121.905943 
L 682.144618 121.20365 
L 684.701872 121.20365 
L 684.701872 119.799065 
L 689.816379 119.799065 
L 689.816379 119.096772 
L 692.373633 119.096772 
L 692.373633 116.287602 
L 694.930887 116.287602 
L 694.930887 115.585309 
L 697.48814 115.585309 
L 697.48814 114.883017 
L 700.045394 114.883017 
L 700.045394 114.180724 
L 705.159901 114.180724 
L 705.159901 113.478431 
L 707.717155 113.478431 
L 707.717155 112.776139 
L 712.831663 112.776139 
L 712.831663 108.562383 
L 715.388916 108.562383 
L 715.388916 107.86009 
L 717.94617 107.86009 
L 717.94617 107.157798 
L 720.503424 107.157798 
L 720.503424 102.944042 
L 730.732438 102.944042 
L 730.732438 102.24175 
L 738.4042 102.24175 
L 738.4042 100.134872 
L 753.747722 100.134872 
L 753.747722 97.325701 
L 758.862229 97.325701 
L 758.862229 96.623409 
L 761.419483 96.623409 
L 761.419483 95.921116 
L 763.976736 95.921116 
L 763.976736 95.218824 
L 771.648498 95.218824 
L 771.648498 93.814238 
L 774.205751 93.814238 
L 774.205751 91.70736 
L 776.763005 91.70736 
L 776.763005 89.600483 
L 779.320259 89.600483 
L 779.320259 88.89819 
L 781.877512 88.89819 
L 781.877512 88.195897 
L 784.434766 88.195897 
L 784.434766 87.493605 
L 789.549273 87.493605 
L 789.549273 83.279849 
L 792.106527 83.279849 
L 792.106527 81.875264 
L 799.778288 81.875264 
L 799.778288 81.172971 
L 807.450049 81.172971 
L 807.450049 80.470679 
L 812.564557 80.470679 
L 812.564557 79.768386 
L 827.908079 79.768386 
L 827.908079 79.066094 
L 833.022586 79.066094 
L 833.022586 77.661508 
L 835.57984 77.661508 
L 835.57984 76.959216 
L 838.137094 76.959216 
L 838.137094 76.256923 
L 840.694347 76.256923 
L 840.694347 74.150045 
L 850.923362 74.150045 
L 850.923362 73.447753 
L 856.037869 73.447753 
L 856.037869 72.74546 
L 861.152377 72.74546 
L 861.152377 72.043167 
L 863.709631 72.043167 
L 863.709631 71.340875 
L 866.266884 71.340875 
L 866.266884 70.638582 
L 881.610406 70.638582 
L 881.610406 68.531704 
L 884.16766 68.531704 
L 884.16766 67.829412 
L 889.282167 67.829412 
L 889.282167 67.127119 
L 902.068436 67.127119 
L 902.068436 66.424827 
L 904.62569 66.424827 
L 904.62569 65.722534 
L 919.969212 65.722534 
L 919.969212 64.317949 
L 940.427241 64.317949 
L 940.427241 63.615656 
L 942.984495 63.615656 
L 942.984495 59.4019 
L 950.656256 59.4019 
L 950.656256 58.699608 
L 958.328017 58.699608 
L 958.328017 57.997315 
L 965.999778 57.997315 
L 965.999778 55.890437 
L 968.557032 55.890437 
L 968.557032 53.78356 
L 971.114286 53.78356 
L 971.114286 53.081267 
L 981.3433 53.081267 
L 981.3433 52.378974 
L 986.457808 52.378974 
L 986.457808 50.974389 
L 1001.80133 50.974389 
L 1001.80133 50.272097 
L 1004.358584 50.272097 
L 1004.358584 49.569804 
L 1014.587599 49.569804 
L 1014.587599 48.867511 
L 1029.931121 48.867511 
L 1029.931121 48.165219 
L 1032.488374 48.165219 
L 1032.488374 47.462926 
L 1037.602882 47.462926 
L 1037.602882 46.760633 
L 1040.160135 46.760633 
L 1040.160135 45.356048 
L 1047.831897 45.356048 
L 1047.831897 43.951463 
L 1058.060911 43.951463 
L 1058.060911 43.24917 
L 1091.305209 43.24917 
L 1091.305209 41.844585 
L 1098.97697 41.844585 
L 1098.97697 41.142293 
L 1111.763239 41.142293 
L 1111.763239 40.44 
L 1119.435 40.44 
L 1119.435 40.44 
" style="fill:none;stroke:#000000;stroke-linecap:square;stroke-width:2;"/>
   </g>
   <g id="line2d_15">
    <path clip-path="url(#pb7f0499845)" d="M 81.19 506.06 
L 81.19 504.655415 
L 83.747254 504.655415 
L 83.747254 497.632489 
L 86.304507 497.632489 
L 86.304507 496.930196 
L 88.861761 496.930196 
L 88.861761 496.227903 
L 91.419015 496.227903 
L 91.419015 491.311855 
L 96.533522 491.311855 
L 96.533522 482.182051 
L 101.64803 482.182051 
L 101.64803 479.372881 
L 104.205283 479.372881 
L 104.205283 477.266003 
L 106.762537 477.266003 
L 106.762537 473.75454 
L 109.319791 473.75454 
L 109.319791 471.647662 
L 111.877044 471.647662 
L 111.877044 468.838492 
L 114.434298 468.838492 
L 114.434298 466.029321 
L 116.991552 466.029321 
L 116.991552 465.327029 
L 119.548805 465.327029 
L 119.548805 458.304103 
L 122.106059 458.304103 
L 122.106059 450.578884 
L 124.663313 450.578884 
L 124.663313 448.472006 
L 129.77782 448.472006 
L 129.77782 446.365128 
L 134.892328 446.365128 
L 134.892328 440.746787 
L 137.449581 440.746787 
L 137.449581 437.937617 
L 140.006835 437.937617 
L 140.006835 435.128446 
L 142.564089 435.128446 
L 142.564089 430.914691 
L 145.121342 430.914691 
L 145.121342 427.403228 
L 150.23585 427.403228 
L 150.23585 425.29635 
L 157.907611 425.29635 
L 157.907611 424.594057 
L 160.464865 424.594057 
L 160.464865 423.189472 
L 163.022118 423.189472 
L 163.022118 414.059668 
L 165.579372 414.059668 
L 165.579372 410.548205 
L 168.136626 410.548205 
L 168.136626 409.14362 
L 170.693879 409.14362 
L 170.693879 404.929864 
L 175.808387 404.929864 
L 175.808387 399.311523 
L 178.36564 399.311523 
L 178.36564 393.693183 
L 183.480148 393.693183 
L 183.480148 392.288597 
L 186.037401 392.288597 
L 186.037401 387.372549 
L 191.151909 387.372549 
L 191.151909 383.861086 
L 193.709163 383.861086 
L 193.709163 383.158793 
L 198.82367 383.158793 
L 198.82367 382.456501 
L 201.380924 382.456501 
L 201.380924 380.349623 
L 203.938177 380.349623 
L 203.938177 379.64733 
L 206.495431 379.64733 
L 206.495431 378.242745 
L 211.609938 378.242745 
L 211.609938 373.326697 
L 214.167192 373.326697 
L 214.167192 372.624404 
L 216.724446 372.624404 
L 216.724446 371.219819 
L 219.2817 371.219819 
L 219.2817 364.899186 
L 221.838953 364.899186 
L 221.838953 362.792308 
L 224.396207 362.792308 
L 224.396207 359.280845 
L 226.953461 359.280845 
L 226.953461 355.067089 
L 229.510714 355.067089 
L 229.510714 354.364796 
L 232.067968 354.364796 
L 232.067968 348.746456 
L 234.625222 348.746456 
L 234.625222 348.044163 
L 237.182475 348.044163 
L 237.182475 347.34187 
L 239.739729 347.34187 
L 239.739729 343.128115 
L 242.296983 343.128115 
L 242.296983 342.425822 
L 244.854236 342.425822 
L 244.854236 340.318944 
L 255.083251 340.318944 
L 255.083251 336.105189 
L 265.312266 336.105189 
L 265.312266 333.998311 
L 267.86952 333.998311 
L 267.86952 331.891433 
L 270.426773 331.891433 
L 270.426773 330.486848 
L 275.541281 330.486848 
L 275.541281 329.082262 
L 280.655788 329.082262 
L 280.655788 327.677677 
L 288.327549 327.677677 
L 288.327549 326.975385 
L 290.884803 326.975385 
L 290.884803 324.868507 
L 293.442057 324.868507 
L 293.442057 323.463922 
L 295.99931 323.463922 
L 295.99931 322.059336 
L 301.113818 322.059336 
L 301.113818 320.654751 
L 308.785579 320.654751 
L 308.785579 319.952459 
L 319.014594 319.952459 
L 319.014594 319.250166 
L 324.129101 319.250166 
L 324.129101 315.738703 
L 326.686355 315.738703 
L 326.686355 315.03641 
L 329.243608 315.03641 
L 329.243608 311.524947 
L 331.800862 311.524947 
L 331.800862 310.822655 
L 336.915369 310.822655 
L 336.915369 310.120362 
L 339.472623 310.120362 
L 339.472623 305.204314 
L 349.701638 305.204314 
L 349.701638 304.502021 
L 354.816145 304.502021 
L 354.816145 301.692851 
L 359.930653 301.692851 
L 359.930653 299.585973 
L 370.159667 299.585973 
L 370.159667 298.88368 
L 375.274175 298.88368 
L 375.274175 297.479095 
L 380.388682 297.479095 
L 380.388682 296.776802 
L 388.060443 296.776802 
L 388.060443 293.967632 
L 390.617697 293.967632 
L 390.617697 291.158462 
L 393.174951 291.158462 
L 393.174951 290.456169 
L 395.732204 290.456169 
L 395.732204 289.753876 
L 398.289458 289.753876 
L 398.289458 289.051584 
L 400.846712 289.051584 
L 400.846712 285.540121 
L 403.403966 285.540121 
L 403.403966 280.624072 
L 411.075727 280.624072 
L 411.075727 279.219487 
L 413.63298 279.219487 
L 413.63298 277.112609 
L 421.304741 277.112609 
L 421.304741 275.708024 
L 426.419249 275.708024 
L 426.419249 272.898854 
L 428.976502 272.898854 
L 428.976502 272.196561 
L 431.533756 271.494268 
L 434.09101 271.494268 
L 434.09101 269.387391 
L 436.648264 269.387391 
L 436.648264 268.685098 
L 444.320025 268.685098 
L 444.320025 265.173635 
L 446.877278 265.173635 
L 446.877278 263.76905 
L 451.991786 263.76905 
L 451.991786 262.364465 
L 454.549039 262.364465 
L 454.549039 260.257587 
L 459.663547 260.257587 
L 459.663547 254.639246 
L 464.778054 254.639246 
L 464.778054 252.532368 
L 467.335308 252.532368 
L 467.335308 251.830075 
L 469.892562 251.830075 
L 469.892562 251.127783 
L 472.449815 251.127783 
L 472.449815 249.723198 
L 475.007069 249.723198 
L 475.007069 246.211735 
L 477.564323 246.211735 
L 477.564323 243.402564 
L 480.121576 243.402564 
L 480.121576 242.700271 
L 482.67883 242.700271 
L 482.67883 238.486516 
L 485.236084 238.486516 
L 485.236084 237.081931 
L 487.793337 237.081931 
L 487.793337 236.379638 
L 490.350591 236.379638 
L 490.350591 233.570468 
L 495.465099 233.570468 
L 495.465099 231.46359 
L 500.579606 231.46359 
L 500.579606 225.142956 
L 513.365874 225.142956 
L 513.365874 224.440664 
L 515.923128 224.440664 
L 515.923128 220.226908 
L 518.480382 220.226908 
L 518.480382 218.822323 
L 521.037635 218.822323 
L 521.037635 216.715445 
L 523.594889 216.715445 
L 523.594889 215.31086 
L 528.709397 215.31086 
L 528.709397 214.608567 
L 536.381158 214.608567 
L 536.381158 213.906275 
L 549.167426 213.906275 
L 549.167426 212.501689 
L 551.72468 212.501689 
L 551.72468 210.394811 
L 559.396441 210.394811 
L 559.396441 206.883348 
L 564.510948 206.883348 
L 564.510948 206.181056 
L 567.068202 206.181056 
L 567.068202 205.478763 
L 569.625456 205.478763 
L 569.625456 204.776471 
L 572.182709 204.776471 
L 572.182709 204.074178 
L 574.739963 204.074178 
L 574.739963 203.371885 
L 577.297217 203.371885 
L 577.297217 201.9673 
L 579.85447 201.9673 
L 579.85447 201.265008 
L 584.968978 201.265008 
L 584.968978 199.860422 
L 587.526232 199.860422 
L 587.526232 196.348959 
L 590.083485 196.348959 
L 590.083485 194.944374 
L 597.755246 194.944374 
L 597.755246 194.242081 
L 605.427007 194.242081 
L 605.427007 191.432911 
L 607.984261 191.432911 
L 607.984261 190.730618 
L 610.541515 190.730618 
L 610.541515 190.028326 
L 613.098768 190.028326 
L 613.098768 187.921448 
L 620.77053 187.921448 
L 620.77053 184.409985 
L 623.327783 184.409985 
L 623.327783 183.707692 
L 628.442291 183.707692 
L 628.442291 182.303107 
L 633.556798 182.303107 
L 633.556798 180.898522 
L 636.114052 180.898522 
L 636.114052 179.493937 
L 638.671305 179.493937 
L 638.671305 178.791644 
L 643.785813 178.791644 
L 643.785813 178.089351 
L 646.343067 178.089351 
L 646.343067 177.387059 
L 651.457574 177.387059 
L 651.457574 175.280181 
L 656.572081 175.280181 
L 656.572081 173.173303 
L 664.243842 173.173303 
L 664.243842 171.066425 
L 666.801096 171.066425 
L 666.801096 170.364133 
L 669.35835 170.364133 
L 669.35835 168.257255 
L 671.915603 168.257255 
L 671.915603 165.448084 
L 674.472857 165.448084 
L 674.472857 164.745792 
L 679.587365 164.745792 
L 679.587365 159.829744 
L 682.144618 159.829744 
L 682.144618 157.020573 
L 689.816379 157.020573 
L 689.816379 154.913695 
L 692.373633 154.913695 
L 692.373633 154.211403 
L 694.930887 154.211403 
L 694.930887 153.50911 
L 705.159901 153.50911 
L 705.159901 149.295354 
L 710.274409 149.295354 
L 710.274409 148.593062 
L 712.831663 148.593062 
L 712.831663 147.188477 
L 715.388916 147.188477 
L 715.388916 145.783891 
L 717.94617 145.783891 
L 717.94617 140.867843 
L 723.060677 140.867843 
L 723.060677 139.463258 
L 725.617931 139.463258 
L 725.617931 138.058673 
L 728.175185 138.058673 
L 728.175185 136.654087 
L 730.732438 136.654087 
L 730.732438 135.249502 
L 733.289692 135.249502 
L 733.289692 134.54721 
L 738.4042 134.54721 
L 738.4042 132.440332 
L 746.075961 132.440332 
L 746.075961 131.035747 
L 748.633214 131.035747 
L 748.633214 129.631161 
L 753.747722 129.631161 
L 753.747722 128.928869 
L 756.304975 128.928869 
L 756.304975 128.226576 
L 758.862229 128.226576 
L 758.862229 124.715113 
L 763.976736 124.715113 
L 763.976736 122.608235 
L 766.53399 122.608235 
L 766.53399 121.905943 
L 769.091244 121.905943 
L 769.091244 121.20365 
L 771.648498 121.20365 
L 771.648498 120.501357 
L 776.763005 120.501357 
L 776.763005 118.39448 
L 779.320259 118.39448 
L 779.320259 116.287602 
L 781.877512 116.287602 
L 781.877512 115.585309 
L 789.549273 115.585309 
L 789.549273 114.883017 
L 794.663781 114.883017 
L 794.663781 113.478431 
L 797.221034 113.478431 
L 797.221034 110.669261 
L 799.778288 110.669261 
L 799.778288 108.562383 
L 810.007303 108.562383 
L 810.007303 107.157798 
L 827.908079 107.157798 
L 827.908079 105.05092 
L 835.57984 105.05092 
L 835.57984 102.944042 
L 838.137094 102.944042 
L 838.137094 102.24175 
L 843.251601 102.24175 
L 843.251601 100.134872 
L 845.808855 100.134872 
L 845.808855 98.730287 
L 850.923362 98.730287 
L 850.923362 96.623409 
L 856.037869 96.623409 
L 856.037869 94.516531 
L 861.152377 94.516531 
L 861.152377 93.814238 
L 873.938645 93.814238 
L 873.938645 93.111946 
L 876.495899 93.111946 
L 876.495899 90.302775 
L 884.16766 90.302775 
L 884.16766 89.600483 
L 886.724914 89.600483 
L 886.724914 88.89819 
L 894.396675 88.89819 
L 894.396675 86.08902 
L 896.953929 86.08902 
L 896.953929 85.386727 
L 902.068436 85.386727 
L 902.068436 84.684434 
L 904.62569 84.684434 
L 904.62569 82.577557 
L 912.297451 82.577557 
L 912.297451 81.172971 
L 917.411958 81.172971 
L 917.411958 79.768386 
L 919.969212 79.768386 
L 919.969212 79.066094 
L 922.526466 79.066094 
L 922.526466 77.661508 
L 935.312734 77.661508 
L 935.312734 74.150045 
L 937.869988 74.150045 
L 937.869988 72.74546 
L 940.427241 72.74546 
L 940.427241 71.340875 
L 960.885271 71.340875 
L 960.885271 70.638582 
L 968.557032 70.638582 
L 968.557032 69.93629 
L 971.114286 69.93629 
L 971.114286 69.233997 
L 973.671539 69.233997 
L 973.671539 67.127119 
L 976.228793 67.127119 
L 976.228793 65.722534 
L 981.3433 65.722534 
L 981.3433 62.913363 
L 983.900554 62.913363 
L 983.900554 61.508778 
L 994.129569 61.508778 
L 994.129569 60.806486 
L 996.686823 60.806486 
L 996.686823 60.104193 
L 1001.80133 60.104193 
L 1001.80133 58.699608 
L 1012.030345 58.699608 
L 1012.030345 57.997315 
L 1027.373867 57.997315 
L 1027.373867 57.295023 
L 1032.488374 57.295023 
L 1032.488374 56.59273 
L 1045.274643 56.59273 
L 1045.274643 55.890437 
L 1047.831897 55.890437 
L 1047.831897 55.188145 
L 1052.946404 55.188145 
L 1052.946404 53.78356 
L 1055.503658 53.78356 
L 1055.503658 53.081267 
L 1058.060911 53.081267 
L 1058.060911 52.378974 
L 1060.618165 52.378974 
L 1060.618165 51.676682 
L 1068.289926 51.676682 
L 1068.289926 50.974389 
L 1075.961687 50.974389 
L 1075.961687 48.867511 
L 1078.518941 48.867511 
L 1078.518941 48.165219 
L 1086.190702 48.165219 
L 1086.190702 46.058341 
L 1096.419717 46.058341 
L 1096.419717 45.356048 
L 1104.091478 45.356048 
L 1104.091478 43.951463 
L 1109.205985 43.951463 
L 1109.205985 41.844585 
L 1111.763239 41.844585 
L 1111.763239 40.44 
L 1119.435 40.44 
L 1119.435 40.44 
" style="fill:none;stroke:#008000;stroke-linecap:square;stroke-width:2;"/>
   </g>
   <g id="line2d_16">
    <path clip-path="url(#pb7f0499845)" d="M 81.19 506.06 
L 81.19 497.632489 
L 86.304507 497.632489 
L 86.304507 492.71644 
L 88.861761 492.71644 
L 88.861761 489.204977 
L 91.419015 489.204977 
L 91.419015 486.395807 
L 93.976268 486.395807 
L 93.976268 466.029321 
L 96.533522 466.029321 
L 96.533522 462.517858 
L 99.090776 462.517858 
L 99.090776 461.113273 
L 101.64803 461.113273 
L 101.64803 457.60181 
L 104.205283 457.60181 
L 104.205283 456.197225 
L 106.762537 456.197225 
L 106.762537 455.494932 
L 111.877044 455.494932 
L 111.877044 435.830739 
L 114.434298 435.830739 
L 114.434298 434.426154 
L 116.991552 434.426154 
L 116.991552 433.723861 
L 119.548805 433.723861 
L 119.548805 430.212398 
L 122.106059 430.212398 
L 122.106059 425.998643 
L 127.220567 425.998643 
L 127.220567 421.784887 
L 134.892328 421.784887 
L 134.892328 420.380302 
L 137.449581 420.380302 
L 137.449581 419.678009 
L 145.121342 419.678009 
L 145.121342 418.975716 
L 147.678596 418.975716 
L 147.678596 415.464253 
L 150.23585 415.464253 
L 150.23585 414.761961 
L 152.793103 414.761961 
L 152.793103 414.059668 
L 155.350357 414.059668 
L 155.350357 400.013816 
L 157.907611 400.013816 
L 157.907611 398.609231 
L 160.464865 398.609231 
L 160.464865 396.502353 
L 163.022118 396.502353 
L 163.022118 393.693183 
L 165.579372 393.693183 
L 165.579372 392.99089 
L 168.136626 392.99089 
L 168.136626 388.777134 
L 170.693879 388.777134 
L 170.693879 388.074842 
L 173.251133 388.074842 
L 173.251133 387.372549 
L 175.808387 387.372549 
L 175.808387 386.670256 
L 178.36564 386.670256 
L 178.36564 384.563379 
L 180.922894 384.563379 
L 180.922894 383.158793 
L 186.037401 383.158793 
L 186.037401 380.349623 
L 188.594655 380.349623 
L 188.594655 370.517526 
L 191.151909 370.517526 
L 191.151909 369.815234 
L 193.709163 369.815234 
L 193.709163 369.112941 
L 196.266416 369.112941 
L 196.266416 367.006063 
L 198.82367 367.006063 
L 198.82367 361.387722 
L 201.380924 361.387722 
L 201.380924 359.280845 
L 203.938177 359.280845 
L 203.938177 358.578552 
L 211.609938 358.578552 
L 211.609938 357.173967 
L 214.167192 357.173967 
L 214.167192 352.960211 
L 216.724446 352.960211 
L 216.724446 350.853333 
L 219.2817 350.853333 
L 219.2817 347.34187 
L 221.838953 347.34187 
L 221.838953 345.937285 
L 224.396207 345.937285 
L 224.396207 343.830407 
L 226.953461 343.830407 
L 226.953461 343.128115 
L 229.510714 343.128115 
L 229.510714 342.425822 
L 232.067968 342.425822 
L 232.067968 333.296018 
L 234.625222 333.296018 
L 234.625222 329.784555 
L 237.182475 329.784555 
L 237.182475 328.37997 
L 242.296983 328.37997 
L 242.296983 326.975385 
L 244.854236 326.975385 
L 244.854236 321.357044 
L 247.41149 321.357044 
L 247.41149 320.654751 
L 249.968744 320.654751 
L 249.968744 315.03641 
L 252.525998 315.03641 
L 252.525998 312.929532 
L 255.083251 312.929532 
L 255.083251 308.715777 
L 257.640505 308.715777 
L 257.640505 308.013484 
L 262.755012 308.013484 
L 262.755012 307.311192 
L 265.312266 307.311192 
L 265.312266 305.906606 
L 275.541281 305.906606 
L 275.541281 305.204314 
L 278.098534 305.204314 
L 278.098534 303.097436 
L 283.213042 303.097436 
L 283.213042 300.990558 
L 290.884803 300.990558 
L 290.884803 296.776802 
L 293.442057 296.776802 
L 293.442057 295.372217 
L 295.99931 295.372217 
L 295.99931 293.967632 
L 298.556564 293.967632 
L 298.556564 291.158462 
L 301.113818 291.158462 
L 301.113818 289.753876 
L 303.671071 289.753876 
L 303.671071 286.944706 
L 306.228325 286.944706 
L 306.228325 285.540121 
L 311.342833 285.540121 
L 311.342833 284.135535 
L 313.900086 284.135535 
L 313.900086 283.433243 
L 319.014594 283.433243 
L 319.014594 281.326365 
L 324.129101 281.326365 
L 324.129101 279.219487 
L 329.243608 279.219487 
L 329.243608 277.814902 
L 334.358116 277.814902 
L 334.358116 277.112609 
L 339.472623 277.112609 
L 339.472623 276.410317 
L 342.029877 276.410317 
L 342.029877 275.708024 
L 347.144384 275.708024 
L 347.144384 273.601146 
L 349.701638 273.601146 
L 349.701638 272.898854 
L 352.258892 272.898854 
L 352.258892 264.471342 
L 357.373399 264.471342 
L 357.373399 263.76905 
L 362.487906 263.76905 
L 362.487906 260.959879 
L 367.602414 260.959879 
L 367.602414 256.746124 
L 370.159667 256.746124 
L 370.159667 253.936953 
L 372.716921 253.936953 
L 372.716921 251.830075 
L 375.274175 251.830075 
L 375.274175 250.42549 
L 380.388682 250.42549 
L 380.388682 249.723198 
L 382.945936 249.723198 
L 382.945936 248.318612 
L 385.50319 248.318612 
L 385.50319 246.211735 
L 390.617697 246.211735 
L 390.617697 242.700271 
L 393.174951 242.700271 
L 393.174951 241.295686 
L 395.732204 241.295686 
L 395.732204 238.486516 
L 398.289458 238.486516 
L 398.289458 237.081931 
L 400.846712 237.081931 
L 400.846712 236.379638 
L 403.403966 236.379638 
L 403.403966 232.868175 
L 405.961219 232.868175 
L 405.961219 232.165882 
L 408.518473 232.165882 
L 408.518473 231.46359 
L 411.075727 231.46359 
L 411.075727 230.059005 
L 413.63298 230.059005 
L 413.63298 229.356712 
L 416.190234 229.356712 
L 416.190234 227.249834 
L 418.747488 227.249834 
L 418.747488 225.845249 
L 423.861995 225.845249 
L 423.861995 225.142956 
L 426.419249 225.142956 
L 426.419249 224.440664 
L 431.533756 224.440664 
L 431.533756 223.738371 
L 434.09101 223.738371 
L 434.09101 223.036078 
L 439.205517 223.036078 
L 439.205517 221.631493 
L 444.320025 221.631493 
L 444.320025 218.822323 
L 446.877278 218.822323 
L 446.877278 215.31086 
L 449.434532 215.31086 
L 449.434532 214.608567 
L 451.991786 214.608567 
L 451.991786 213.203982 
L 454.549039 213.203982 
L 454.549039 211.097104 
L 457.106293 211.097104 
L 457.106293 210.394811 
L 459.663547 210.394811 
L 459.663547 208.990226 
L 464.778054 208.990226 
L 464.778054 208.287934 
L 469.892562 208.287934 
L 469.892562 207.585641 
L 472.449815 207.585641 
L 472.449815 206.181056 
L 475.007069 206.181056 
L 475.007069 205.478763 
L 482.67883 205.478763 
L 482.67883 204.776471 
L 485.236084 204.776471 
L 485.236084 204.074178 
L 487.793337 204.074178 
L 487.793337 203.371885 
L 490.350591 203.371885 
L 490.350591 201.265008 
L 492.907845 201.265008 
L 492.907845 199.860422 
L 495.465099 199.860422 
L 495.465099 197.051252 
L 500.579606 197.051252 
L 500.579606 196.348959 
L 505.694113 196.348959 
L 505.694113 194.242081 
L 510.808621 194.242081 
L 510.808621 192.837496 
L 513.365874 192.837496 
L 513.365874 192.135204 
L 515.923128 192.135204 
L 515.923128 188.623741 
L 521.037635 188.623741 
L 521.037635 186.516863 
L 526.152143 186.516863 
L 526.152143 185.81457 
L 528.709397 185.81457 
L 528.709397 181.600814 
L 531.26665 181.600814 
L 531.26665 180.196229 
L 533.823904 180.196229 
L 533.823904 179.493937 
L 536.381158 179.493937 
L 536.381158 178.791644 
L 538.938411 178.791644 
L 538.938411 176.684766 
L 546.610172 176.684766 
L 546.610172 175.982474 
L 554.281933 175.982474 
L 554.281933 175.280181 
L 556.839187 175.280181 
L 556.839187 173.875596 
L 559.396441 173.875596 
L 559.396441 173.173303 
L 564.510948 173.173303 
L 564.510948 171.066425 
L 567.068202 171.066425 
L 567.068202 168.959548 
L 569.625456 168.959548 
L 569.625456 167.554962 
L 572.182709 167.554962 
L 572.182709 166.85267 
L 574.739963 166.85267 
L 574.739963 166.150377 
L 584.968978 166.150377 
L 584.968978 165.448084 
L 587.526232 165.448084 
L 587.526232 164.745792 
L 590.083485 164.745792 
L 590.083485 164.043499 
L 600.3125 164.043499 
L 600.3125 163.341207 
L 605.427007 163.341207 
L 605.427007 161.936621 
L 607.984261 161.936621 
L 607.984261 161.234329 
L 610.541515 161.234329 
L 610.541515 159.127451 
L 613.098768 159.127451 
L 613.098768 157.722866 
L 615.656022 157.722866 
L 615.656022 157.020573 
L 618.213276 157.020573 
L 618.213276 156.318281 
L 620.77053 156.318281 
L 620.77053 152.806817 
L 623.327783 152.806817 
L 623.327783 152.104525 
L 625.885037 152.104525 
L 625.885037 150.69994 
L 628.442291 150.69994 
L 628.442291 149.997647 
L 630.999544 149.997647 
L 630.999544 147.188477 
L 633.556798 147.188477 
L 633.556798 145.081599 
L 636.114052 145.081599 
L 636.114052 144.379306 
L 641.228559 144.379306 
L 641.228559 143.677014 
L 648.90032 143.677014 
L 648.90032 142.272428 
L 651.457574 142.272428 
L 651.457574 141.570136 
L 656.572081 141.570136 
L 656.572081 138.760965 
L 661.686589 138.760965 
L 661.686589 137.35638 
L 666.801096 137.35638 
L 666.801096 136.654087 
L 669.35835 136.654087 
L 669.35835 135.951795 
L 671.915603 135.951795 
L 671.915603 135.249502 
L 674.472857 135.249502 
L 674.472857 132.440332 
L 679.587365 132.440332 
L 679.587365 127.524284 
L 682.144618 127.524284 
L 682.144618 126.821991 
L 684.701872 126.821991 
L 684.701872 126.119698 
L 687.259126 126.119698 
L 687.259126 124.012821 
L 694.930887 124.012821 
L 694.930887 123.310528 
L 697.48814 123.310528 
L 697.48814 122.608235 
L 700.045394 122.608235 
L 700.045394 121.20365 
L 705.159901 121.20365 
L 705.159901 116.989894 
L 707.717155 116.989894 
L 707.717155 114.883017 
L 715.388916 114.883017 
L 715.388916 112.073846 
L 720.503424 112.073846 
L 720.503424 111.371554 
L 725.617931 111.371554 
L 725.617931 110.669261 
L 728.175185 110.669261 
L 728.175185 109.966968 
L 730.732438 109.966968 
L 730.732438 108.562383 
L 746.075961 108.562383 
L 746.075961 107.86009 
L 748.633214 107.86009 
L 748.633214 106.455505 
L 753.747722 106.455505 
L 753.747722 105.753213 
L 756.304975 105.753213 
L 756.304975 105.05092 
L 758.862229 105.05092 
L 758.862229 102.944042 
L 766.53399 102.944042 
L 766.53399 102.24175 
L 769.091244 102.24175 
L 769.091244 101.539457 
L 771.648498 101.539457 
L 771.648498 98.027994 
L 781.877512 98.027994 
L 781.877512 96.623409 
L 786.99202 96.623409 
L 786.99202 95.921116 
L 792.106527 95.921116 
L 792.106527 93.111946 
L 802.335542 93.111946 
L 802.335542 90.302775 
L 810.007303 90.302775 
L 810.007303 89.600483 
L 812.564557 89.600483 
L 812.564557 88.89819 
L 815.12181 88.89819 
L 815.12181 88.195897 
L 820.236318 88.195897 
L 820.236318 87.493605 
L 822.793571 87.493605 
L 822.793571 86.791312 
L 825.350825 86.791312 
L 825.350825 84.684434 
L 830.465333 84.684434 
L 830.465333 83.279849 
L 840.694347 83.279849 
L 840.694347 82.577557 
L 845.808855 82.577557 
L 845.808855 81.875264 
L 856.037869 81.875264 
L 856.037869 80.470679 
L 858.595123 80.470679 
L 858.595123 79.768386 
L 868.824138 79.768386 
L 868.824138 78.363801 
L 871.381392 78.363801 
L 871.381392 77.661508 
L 884.16766 77.661508 
L 884.16766 76.959216 
L 891.839421 76.959216 
L 891.839421 76.256923 
L 896.953929 76.256923 
L 896.953929 74.150045 
L 912.297451 74.150045 
L 912.297451 73.447753 
L 919.969212 73.447753 
L 919.969212 72.74546 
L 925.083719 72.74546 
L 925.083719 72.043167 
L 932.75548 72.043167 
L 932.75548 71.340875 
L 937.869988 71.340875 
L 937.869988 67.127119 
L 940.427241 67.127119 
L 940.427241 62.913363 
L 942.984495 62.913363 
L 942.984495 62.211071 
L 953.21351 62.211071 
L 953.21351 60.806486 
L 958.328017 60.806486 
L 958.328017 59.4019 
L 976.228793 59.4019 
L 976.228793 57.295023 
L 983.900554 57.295023 
L 983.900554 53.78356 
L 986.457808 53.78356 
L 986.457808 53.081267 
L 996.686823 53.081267 
L 996.686823 51.676682 
L 999.244076 51.676682 
L 999.244076 50.974389 
L 1006.915837 50.974389 
L 1006.915837 50.272097 
L 1017.144852 50.272097 
L 1017.144852 49.569804 
L 1029.931121 49.569804 
L 1029.931121 48.867511 
L 1032.488374 48.867511 
L 1032.488374 48.165219 
L 1037.602882 48.165219 
L 1037.602882 46.760633 
L 1050.38915 46.760633 
L 1050.38915 46.058341 
L 1058.060911 46.058341 
L 1058.060911 44.653756 
L 1075.961687 44.653756 
L 1075.961687 42.546878 
L 1088.747956 42.546878 
L 1088.747956 41.844585 
L 1096.419717 41.844585 
L 1096.419717 41.142293 
L 1098.97697 41.142293 
L 1098.97697 40.44 
L 1119.435 40.44 
L 1119.435 40.44 
" style="fill:none;stroke:#800080;stroke-linecap:square;stroke-width:2;"/>
   </g>
   <g id="line2d_17">
    <path clip-path="url(#pb7f0499845)" d="M 81.19 506.06 
L 1119.435 40.44 
" style="fill:none;stroke:#000080;stroke-dasharray:7.4,3.2;stroke-dashoffset:0;stroke-width:2;"/>
   </g>
   <g id="patch_3">
    <path d="M 81.19 506.06 
L 81.19 40.44 
" style="fill:none;stroke:#000000;stroke-linecap:square;stroke-linejoin:miter;stroke-width:1.875;"/>
   </g>
   <g id="patch_4">
    <path d="M 1119.435 506.06 
L 1119.435 40.44 
" style="fill:none;stroke:#000000;stroke-linecap:square;stroke-linejoin:miter;stroke-width:1.875;"/>
   </g>
   <g id="patch_5">
    <path d="M 81.19 506.06 
L 1119.435 506.06 
" style="fill:none;stroke:#000000;stroke-linecap:square;stroke-linejoin:miter;stroke-width:1.875;"/>
   </g>
   <g id="patch_6">
    <path d="M 81.19 40.44 
L 1119.435 40.44 
" style="fill:none;stroke:#000000;stroke-linecap:square;stroke-linejoin:miter;stroke-width:1.875;"/>
   </g>
   <g id="text_15">
    <!-- ROC Curves -->
    <defs>
     <path d="M 39.40625 66.21875 
Q 28.65625 66.21875 22.328125 58.203125 
Q 16.015625 50.203125 16.015625 36.375 
Q 16.015625 22.609375 22.328125 14.59375 
Q 28.65625 6.59375 39.40625 6.59375 
Q 50.140625 6.59375 56.421875 14.59375 
Q 62.703125 22.609375 62.703125 36.375 
Q 62.703125 50.203125 56.421875 58.203125 
Q 50.140625 66.21875 39.40625 66.21875 
z
M 39.40625 74.21875 
Q 54.734375 74.21875 63.90625 63.9375 
Q 73.09375 53.65625 73.09375 36.375 
Q 73.09375 19.140625 63.90625 8.859375 
Q 54.734375 -1.421875 39.40625 -1.421875 
Q 24.03125 -1.421875 14.8125 8.828125 
Q 5.609375 19.09375 5.609375 36.375 
Q 5.609375 53.65625 14.8125 63.9375 
Q 24.03125 74.21875 39.40625 74.21875 
z
" id="DejaVuSans-79"/>
     <path d="M 64.40625 67.28125 
L 64.40625 56.890625 
Q 59.421875 61.53125 53.78125 63.8125 
Q 48.140625 66.109375 41.796875 66.109375 
Q 29.296875 66.109375 22.65625 58.46875 
Q 16.015625 50.828125 16.015625 36.375 
Q 16.015625 21.96875 22.65625 14.328125 
Q 29.296875 6.6875 41.796875 6.6875 
Q 48.140625 6.6875 53.78125 8.984375 
Q 59.421875 11.28125 64.40625 15.921875 
L 64.40625 5.609375 
Q 59.234375 2.09375 53.4375 0.328125 
Q 47.65625 -1.421875 41.21875 -1.421875 
Q 24.65625 -1.421875 15.125 8.703125 
Q 5.609375 18.84375 5.609375 36.375 
Q 5.609375 53.953125 15.125 64.078125 
Q 24.65625 74.21875 41.21875 74.21875 
Q 47.75 74.21875 53.53125 72.484375 
Q 59.328125 70.75 64.40625 67.28125 
z
" id="DejaVuSans-67"/>
    </defs>
    <g transform="translate(540.61875 34.44)scale(0.2 -0.2)">
     <use xlink:href="#DejaVuSans-82"/>
     <use x="69.482422" xlink:href="#DejaVuSans-79"/>
     <use x="148.193359" xlink:href="#DejaVuSans-67"/>
     <use x="218.017578" xlink:href="#DejaVuSans-32"/>
     <use x="249.804688" xlink:href="#DejaVuSans-67"/>
     <use x="319.628906" xlink:href="#DejaVuSans-117"/>
     <use x="383.007812" xlink:href="#DejaVuSans-114"/>
     <use x="424.121094" xlink:href="#DejaVuSans-118"/>
     <use x="483.300781" xlink:href="#DejaVuSans-101"/>
     <use x="544.824219" xlink:href="#DejaVuSans-115"/>
    </g>
   </g>
   <g id="legend_1">
    <g id="patch_7">
     <path d="M 671.038125 496.06 
L 1105.435 496.06 
Q 1109.435 496.06 1109.435 492.06 
L 1109.435 376.635 
Q 1109.435 372.635 1105.435 372.635 
L 671.038125 372.635 
Q 667.038125 372.635 667.038125 376.635 
L 667.038125 492.06 
Q 667.038125 496.06 671.038125 496.06 
z
" style="fill:#ffffff;opacity:0.8;stroke:#cccccc;stroke-linejoin:miter;stroke-width:1.5;"/>
    </g>
    <g id="line2d_18">
     <path d="M 675.038125 388.831875 
L 715.038125 388.831875 
" style="fill:none;stroke:#ff0000;stroke-linecap:square;stroke-width:2;"/>
    </g>
    <g id="line2d_19"/>
    <g id="text_16">
     <!-- Logistic Regression (AUC = 0.69) -->
     <defs>
      <path d="M 9.8125 72.90625 
L 19.671875 72.90625 
L 19.671875 8.296875 
L 55.171875 8.296875 
L 55.171875 0 
L 9.8125 0 
z
" id="DejaVuSans-76"/>
      <path d="M 45.40625 27.984375 
Q 45.40625 37.75 41.375 43.109375 
Q 37.359375 48.484375 30.078125 48.484375 
Q 22.859375 48.484375 18.828125 43.109375 
Q 14.796875 37.75 14.796875 27.984375 
Q 14.796875 18.265625 18.828125 12.890625 
Q 22.859375 7.515625 30.078125 7.515625 
Q 37.359375 7.515625 41.375 12.890625 
Q 45.40625 18.265625 45.40625 27.984375 
z
M 54.390625 6.78125 
Q 54.390625 -7.171875 48.1875 -13.984375 
Q 42 -20.796875 29.203125 -20.796875 
Q 24.46875 -20.796875 20.265625 -20.09375 
Q 16.0625 -19.390625 12.109375 -17.921875 
L 12.109375 -9.1875 
Q 16.0625 -11.328125 19.921875 -12.34375 
Q 23.78125 -13.375 27.78125 -13.375 
Q 36.625 -13.375 41.015625 -8.765625 
Q 45.40625 -4.15625 45.40625 5.171875 
L 45.40625 9.625 
Q 42.625 4.78125 38.28125 2.390625 
Q 33.9375 0 27.875 0 
Q 17.828125 0 11.671875 7.65625 
Q 5.515625 15.328125 5.515625 27.984375 
Q 5.515625 40.671875 11.671875 48.328125 
Q 17.828125 56 27.875 56 
Q 33.9375 56 38.28125 53.609375 
Q 42.625 51.21875 45.40625 46.390625 
L 45.40625 54.6875 
L 54.390625 54.6875 
z
" id="DejaVuSans-103"/>
      <path d="M 48.78125 52.59375 
L 48.78125 44.1875 
Q 44.96875 46.296875 41.140625 47.34375 
Q 37.3125 48.390625 33.40625 48.390625 
Q 24.65625 48.390625 19.8125 42.84375 
Q 14.984375 37.3125 14.984375 27.296875 
Q 14.984375 17.28125 19.8125 11.734375 
Q 24.65625 6.203125 33.40625 6.203125 
Q 37.3125 6.203125 41.140625 7.25 
Q 44.96875 8.296875 48.78125 10.40625 
L 48.78125 2.09375 
Q 45.015625 0.34375 40.984375 -0.53125 
Q 36.96875 -1.421875 32.421875 -1.421875 
Q 20.0625 -1.421875 12.78125 6.34375 
Q 5.515625 14.109375 5.515625 27.296875 
Q 5.515625 40.671875 12.859375 48.328125 
Q 20.21875 56 33.015625 56 
Q 37.15625 56 41.109375 55.140625 
Q 45.0625 54.296875 48.78125 52.59375 
z
" id="DejaVuSans-99"/>
      <path d="M 54.890625 33.015625 
L 54.890625 0 
L 45.90625 0 
L 45.90625 32.71875 
Q 45.90625 40.484375 42.875 44.328125 
Q 39.84375 48.1875 33.796875 48.1875 
Q 26.515625 48.1875 22.3125 43.546875 
Q 18.109375 38.921875 18.109375 30.90625 
L 18.109375 0 
L 9.078125 0 
L 9.078125 54.6875 
L 18.109375 54.6875 
L 18.109375 46.1875 
Q 21.34375 51.125 25.703125 53.5625 
Q 30.078125 56 35.796875 56 
Q 45.21875 56 50.046875 50.171875 
Q 54.890625 44.34375 54.890625 33.015625 
z
" id="DejaVuSans-110"/>
      <path d="M 31 75.875 
Q 24.46875 64.65625 21.28125 53.65625 
Q 18.109375 42.671875 18.109375 31.390625 
Q 18.109375 20.125 21.3125 9.0625 
Q 24.515625 -2 31 -13.1875 
L 23.1875 -13.1875 
Q 15.875 -1.703125 12.234375 9.375 
Q 8.59375 20.453125 8.59375 31.390625 
Q 8.59375 42.28125 12.203125 53.3125 
Q 15.828125 64.359375 23.1875 75.875 
z
" id="DejaVuSans-40"/>
      <path d="M 34.1875 63.1875 
L 20.796875 26.90625 
L 47.609375 26.90625 
z
M 28.609375 72.90625 
L 39.796875 72.90625 
L 67.578125 0 
L 57.328125 0 
L 50.6875 18.703125 
L 17.828125 18.703125 
L 11.1875 0 
L 0.78125 0 
z
" id="DejaVuSans-65"/>
      <path d="M 8.6875 72.90625 
L 18.609375 72.90625 
L 18.609375 28.609375 
Q 18.609375 16.890625 22.84375 11.734375 
Q 27.09375 6.59375 36.625 6.59375 
Q 46.09375 6.59375 50.34375 11.734375 
Q 54.59375 16.890625 54.59375 28.609375 
L 54.59375 72.90625 
L 64.5 72.90625 
L 64.5 27.390625 
Q 64.5 13.140625 57.4375 5.859375 
Q 50.390625 -1.421875 36.625 -1.421875 
Q 22.796875 -1.421875 15.734375 5.859375 
Q 8.6875 13.140625 8.6875 27.390625 
z
" id="DejaVuSans-85"/>
      <path d="M 10.59375 45.40625 
L 73.1875 45.40625 
L 73.1875 37.203125 
L 10.59375 37.203125 
z
M 10.59375 25.484375 
L 73.1875 25.484375 
L 73.1875 17.1875 
L 10.59375 17.1875 
z
" id="DejaVuSans-61"/>
      <path d="M 10.984375 1.515625 
L 10.984375 10.5 
Q 14.703125 8.734375 18.5 7.8125 
Q 22.3125 6.890625 25.984375 6.890625 
Q 35.75 6.890625 40.890625 13.453125 
Q 46.046875 20.015625 46.78125 33.40625 
Q 43.953125 29.203125 39.59375 26.953125 
Q 35.25 24.703125 29.984375 24.703125 
Q 19.046875 24.703125 12.671875 31.3125 
Q 6.296875 37.9375 6.296875 49.421875 
Q 6.296875 60.640625 12.9375 67.421875 
Q 19.578125 74.21875 30.609375 74.21875 
Q 43.265625 74.21875 49.921875 64.515625 
Q 56.59375 54.828125 56.59375 36.375 
Q 56.59375 19.140625 48.40625 8.859375 
Q 40.234375 -1.421875 26.421875 -1.421875 
Q 22.703125 -1.421875 18.890625 -0.6875 
Q 15.09375 0.046875 10.984375 1.515625 
z
M 30.609375 32.421875 
Q 37.25 32.421875 41.125 36.953125 
Q 45.015625 41.5 45.015625 49.421875 
Q 45.015625 57.28125 41.125 61.84375 
Q 37.25 66.40625 30.609375 66.40625 
Q 23.96875 66.40625 20.09375 61.84375 
Q 16.21875 57.28125 16.21875 49.421875 
Q 16.21875 41.5 20.09375 36.953125 
Q 23.96875 32.421875 30.609375 32.421875 
z
" id="DejaVuSans-57"/>
      <path d="M 8.015625 75.875 
L 15.828125 75.875 
Q 23.140625 64.359375 26.78125 53.3125 
Q 30.421875 42.28125 30.421875 31.390625 
Q 30.421875 20.453125 26.78125 9.375 
Q 23.140625 -1.703125 15.828125 -13.1875 
L 8.015625 -13.1875 
Q 14.5 -2 17.703125 9.0625 
Q 20.90625 20.125 20.90625 31.390625 
Q 20.90625 42.671875 17.703125 53.65625 
Q 14.5 64.65625 8.015625 75.875 
z
" id="DejaVuSans-41"/>
     </defs>
     <g transform="translate(731.038125 395.831875)scale(0.2 -0.2)">
      <use xlink:href="#DejaVuSans-76"/>
      <use x="55.697266" xlink:href="#DejaVuSans-111"/>
      <use x="116.878906" xlink:href="#DejaVuSans-103"/>
      <use x="180.355469" xlink:href="#DejaVuSans-105"/>
      <use x="208.138672" xlink:href="#DejaVuSans-115"/>
      <use x="260.238281" xlink:href="#DejaVuSans-116"/>
      <use x="299.447266" xlink:href="#DejaVuSans-105"/>
      <use x="327.230469" xlink:href="#DejaVuSans-99"/>
      <use x="382.210938" xlink:href="#DejaVuSans-32"/>
      <use x="413.998047" xlink:href="#DejaVuSans-82"/>
      <use x="483.417969" xlink:href="#DejaVuSans-101"/>
      <use x="544.941406" xlink:href="#DejaVuSans-103"/>
      <use x="608.417969" xlink:href="#DejaVuSans-114"/>
      <use x="649.5" xlink:href="#DejaVuSans-101"/>
      <use x="711.023438" xlink:href="#DejaVuSans-115"/>
      <use x="763.123047" xlink:href="#DejaVuSans-115"/>
      <use x="815.222656" xlink:href="#DejaVuSans-105"/>
      <use x="843.005859" xlink:href="#DejaVuSans-111"/>
      <use x="904.1875" xlink:href="#DejaVuSans-110"/>
      <use x="967.566406" xlink:href="#DejaVuSans-32"/>
      <use x="999.353516" xlink:href="#DejaVuSans-40"/>
      <use x="1038.367188" xlink:href="#DejaVuSans-65"/>
      <use x="1106.775391" xlink:href="#DejaVuSans-85"/>
      <use x="1179.96875" xlink:href="#DejaVuSans-67"/>
      <use x="1249.792969" xlink:href="#DejaVuSans-32"/>
      <use x="1281.580078" xlink:href="#DejaVuSans-61"/>
      <use x="1365.369141" xlink:href="#DejaVuSans-32"/>
      <use x="1397.15625" xlink:href="#DejaVuSans-48"/>
      <use x="1460.779297" xlink:href="#DejaVuSans-46"/>
      <use x="1492.566406" xlink:href="#DejaVuSans-54"/>
      <use x="1556.189453" xlink:href="#DejaVuSans-57"/>
      <use x="1619.8125" xlink:href="#DejaVuSans-41"/>
     </g>
    </g>
    <g id="line2d_20">
     <path d="M 675.038125 418.188125 
L 715.038125 418.188125 
" style="fill:none;stroke:#000000;stroke-linecap:square;stroke-width:2;"/>
    </g>
    <g id="line2d_21"/>
    <g id="text_17">
     <!-- Random Forest(AUC = 0.70) -->
     <defs>
      <path d="M 45.40625 46.390625 
L 45.40625 75.984375 
L 54.390625 75.984375 
L 54.390625 0 
L 45.40625 0 
L 45.40625 8.203125 
Q 42.578125 3.328125 38.25 0.953125 
Q 33.9375 -1.421875 27.875 -1.421875 
Q 17.96875 -1.421875 11.734375 6.484375 
Q 5.515625 14.40625 5.515625 27.296875 
Q 5.515625 40.1875 11.734375 48.09375 
Q 17.96875 56 27.875 56 
Q 33.9375 56 38.25 53.625 
Q 42.578125 51.265625 45.40625 46.390625 
z
M 14.796875 27.296875 
Q 14.796875 17.390625 18.875 11.75 
Q 22.953125 6.109375 30.078125 6.109375 
Q 37.203125 6.109375 41.296875 11.75 
Q 45.40625 17.390625 45.40625 27.296875 
Q 45.40625 37.203125 41.296875 42.84375 
Q 37.203125 48.484375 30.078125 48.484375 
Q 22.953125 48.484375 18.875 42.84375 
Q 14.796875 37.203125 14.796875 27.296875 
z
" id="DejaVuSans-100"/>
      <path d="M 52 44.1875 
Q 55.375 50.25 60.0625 53.125 
Q 64.75 56 71.09375 56 
Q 79.640625 56 84.28125 50.015625 
Q 88.921875 44.046875 88.921875 33.015625 
L 88.921875 0 
L 79.890625 0 
L 79.890625 32.71875 
Q 79.890625 40.578125 77.09375 44.375 
Q 74.3125 48.1875 68.609375 48.1875 
Q 61.625 48.1875 57.5625 43.546875 
Q 53.515625 38.921875 53.515625 30.90625 
L 53.515625 0 
L 44.484375 0 
L 44.484375 32.71875 
Q 44.484375 40.625 41.703125 44.40625 
Q 38.921875 48.1875 33.109375 48.1875 
Q 26.21875 48.1875 22.15625 43.53125 
Q 18.109375 38.875 18.109375 30.90625 
L 18.109375 0 
L 9.078125 0 
L 9.078125 54.6875 
L 18.109375 54.6875 
L 18.109375 46.1875 
Q 21.1875 51.21875 25.484375 53.609375 
Q 29.78125 56 35.6875 56 
Q 41.65625 56 45.828125 52.96875 
Q 50 49.953125 52 44.1875 
z
" id="DejaVuSans-109"/>
      <path d="M 8.203125 72.90625 
L 55.078125 72.90625 
L 55.078125 68.703125 
L 28.609375 0 
L 18.3125 0 
L 43.21875 64.59375 
L 8.203125 64.59375 
z
" id="DejaVuSans-55"/>
     </defs>
     <g transform="translate(731.038125 425.188125)scale(0.2 -0.2)">
      <use xlink:href="#DejaVuSans-82"/>
      <use x="69.451172" xlink:href="#DejaVuSans-97"/>
      <use x="130.730469" xlink:href="#DejaVuSans-110"/>
      <use x="194.109375" xlink:href="#DejaVuSans-100"/>
      <use x="257.585938" xlink:href="#DejaVuSans-111"/>
      <use x="318.767578" xlink:href="#DejaVuSans-109"/>
      <use x="416.179688" xlink:href="#DejaVuSans-32"/>
      <use x="447.966797" xlink:href="#DejaVuSans-70"/>
      <use x="505.439453" xlink:href="#DejaVuSans-111"/>
      <use x="566.621094" xlink:href="#DejaVuSans-114"/>
      <use x="607.703125" xlink:href="#DejaVuSans-101"/>
      <use x="669.226562" xlink:href="#DejaVuSans-115"/>
      <use x="721.326172" xlink:href="#DejaVuSans-116"/>
      <use x="760.535156" xlink:href="#DejaVuSans-40"/>
      <use x="799.548828" xlink:href="#DejaVuSans-65"/>
      <use x="867.957031" xlink:href="#DejaVuSans-85"/>
      <use x="941.150391" xlink:href="#DejaVuSans-67"/>
      <use x="1010.974609" xlink:href="#DejaVuSans-32"/>
      <use x="1042.761719" xlink:href="#DejaVuSans-61"/>
      <use x="1126.550781" xlink:href="#DejaVuSans-32"/>
      <use x="1158.337891" xlink:href="#DejaVuSans-48"/>
      <use x="1221.960938" xlink:href="#DejaVuSans-46"/>
      <use x="1253.748047" xlink:href="#DejaVuSans-55"/>
      <use x="1317.371094" xlink:href="#DejaVuSans-48"/>
      <use x="1380.994141" xlink:href="#DejaVuSans-41"/>
     </g>
    </g>
    <g id="line2d_22">
     <path d="M 675.038125 447.544375 
L 715.038125 447.544375 
" style="fill:none;stroke:#008000;stroke-linecap:square;stroke-width:2;"/>
    </g>
    <g id="line2d_23"/>
    <g id="text_18">
     <!-- Gradient Boosting Tree (AUC = 0.64) -->
     <defs>
      <path d="M 59.515625 10.40625 
L 59.515625 29.984375 
L 43.40625 29.984375 
L 43.40625 38.09375 
L 69.28125 38.09375 
L 69.28125 6.78125 
Q 63.578125 2.734375 56.6875 0.65625 
Q 49.8125 -1.421875 42 -1.421875 
Q 24.90625 -1.421875 15.25 8.5625 
Q 5.609375 18.5625 5.609375 36.375 
Q 5.609375 54.25 15.25 64.234375 
Q 24.90625 74.21875 42 74.21875 
Q 49.125 74.21875 55.546875 72.453125 
Q 61.96875 70.703125 67.390625 67.28125 
L 67.390625 56.78125 
Q 61.921875 61.421875 55.765625 63.765625 
Q 49.609375 66.109375 42.828125 66.109375 
Q 29.4375 66.109375 22.71875 58.640625 
Q 16.015625 51.171875 16.015625 36.375 
Q 16.015625 21.625 22.71875 14.15625 
Q 29.4375 6.6875 42.828125 6.6875 
Q 48.046875 6.6875 52.140625 7.59375 
Q 56.25 8.5 59.515625 10.40625 
z
" id="DejaVuSans-71"/>
      <path d="M 19.671875 34.8125 
L 19.671875 8.109375 
L 35.5 8.109375 
Q 43.453125 8.109375 47.28125 11.40625 
Q 51.125 14.703125 51.125 21.484375 
Q 51.125 28.328125 47.28125 31.5625 
Q 43.453125 34.8125 35.5 34.8125 
z
M 19.671875 64.796875 
L 19.671875 42.828125 
L 34.28125 42.828125 
Q 41.5 42.828125 45.03125 45.53125 
Q 48.578125 48.25 48.578125 53.8125 
Q 48.578125 59.328125 45.03125 62.0625 
Q 41.5 64.796875 34.28125 64.796875 
z
M 9.8125 72.90625 
L 35.015625 72.90625 
Q 46.296875 72.90625 52.390625 68.21875 
Q 58.5 63.53125 58.5 54.890625 
Q 58.5 48.1875 55.375 44.234375 
Q 52.25 40.28125 46.1875 39.3125 
Q 53.46875 37.75 57.5 32.78125 
Q 61.53125 27.828125 61.53125 20.40625 
Q 61.53125 10.640625 54.890625 5.3125 
Q 48.25 0 35.984375 0 
L 9.8125 0 
z
" id="DejaVuSans-66"/>
     </defs>
     <g transform="translate(731.038125 454.544375)scale(0.2 -0.2)">
      <use xlink:href="#DejaVuSans-71"/>
      <use x="77.490234" xlink:href="#DejaVuSans-114"/>
      <use x="118.603516" xlink:href="#DejaVuSans-97"/>
      <use x="179.882812" xlink:href="#DejaVuSans-100"/>
      <use x="243.359375" xlink:href="#DejaVuSans-105"/>
      <use x="271.142578" xlink:href="#DejaVuSans-101"/>
      <use x="332.666016" xlink:href="#DejaVuSans-110"/>
      <use x="396.044922" xlink:href="#DejaVuSans-116"/>
      <use x="435.253906" xlink:href="#DejaVuSans-32"/>
      <use x="467.041016" xlink:href="#DejaVuSans-66"/>
      <use x="535.644531" xlink:href="#DejaVuSans-111"/>
      <use x="596.826172" xlink:href="#DejaVuSans-111"/>
      <use x="658.007812" xlink:href="#DejaVuSans-115"/>
      <use x="710.107422" xlink:href="#DejaVuSans-116"/>
      <use x="749.316406" xlink:href="#DejaVuSans-105"/>
      <use x="777.099609" xlink:href="#DejaVuSans-110"/>
      <use x="840.478516" xlink:href="#DejaVuSans-103"/>
      <use x="903.955078" xlink:href="#DejaVuSans-32"/>
      <use x="935.742188" xlink:href="#DejaVuSans-84"/>
      <use x="996.607422" xlink:href="#DejaVuSans-114"/>
      <use x="1037.689453" xlink:href="#DejaVuSans-101"/>
      <use x="1099.212891" xlink:href="#DejaVuSans-101"/>
      <use x="1160.736328" xlink:href="#DejaVuSans-32"/>
      <use x="1192.523438" xlink:href="#DejaVuSans-40"/>
      <use x="1231.537109" xlink:href="#DejaVuSans-65"/>
      <use x="1299.945312" xlink:href="#DejaVuSans-85"/>
      <use x="1373.138672" xlink:href="#DejaVuSans-67"/>
      <use x="1442.962891" xlink:href="#DejaVuSans-32"/>
      <use x="1474.75" xlink:href="#DejaVuSans-61"/>
      <use x="1558.539062" xlink:href="#DejaVuSans-32"/>
      <use x="1590.326172" xlink:href="#DejaVuSans-48"/>
      <use x="1653.949219" xlink:href="#DejaVuSans-46"/>
      <use x="1685.736328" xlink:href="#DejaVuSans-54"/>
      <use x="1749.359375" xlink:href="#DejaVuSans-52"/>
      <use x="1812.982422" xlink:href="#DejaVuSans-41"/>
     </g>
    </g>
    <g id="line2d_24">
     <path d="M 675.038125 476.900625 
L 715.038125 476.900625 
" style="fill:none;stroke:#800080;stroke-linecap:square;stroke-width:2;"/>
    </g>
    <g id="line2d_25"/>
    <g id="text_19">
     <!-- Ensemble (AUC = 0.69) -->
     <defs>
      <path d="M 9.8125 72.90625 
L 55.90625 72.90625 
L 55.90625 64.59375 
L 19.671875 64.59375 
L 19.671875 43.015625 
L 54.390625 43.015625 
L 54.390625 34.71875 
L 19.671875 34.71875 
L 19.671875 8.296875 
L 56.78125 8.296875 
L 56.78125 0 
L 9.8125 0 
z
" id="DejaVuSans-69"/>
      <path d="M 48.6875 27.296875 
Q 48.6875 37.203125 44.609375 42.84375 
Q 40.53125 48.484375 33.40625 48.484375 
Q 26.265625 48.484375 22.1875 42.84375 
Q 18.109375 37.203125 18.109375 27.296875 
Q 18.109375 17.390625 22.1875 11.75 
Q 26.265625 6.109375 33.40625 6.109375 
Q 40.53125 6.109375 44.609375 11.75 
Q 48.6875 17.390625 48.6875 27.296875 
z
M 18.109375 46.390625 
Q 20.953125 51.265625 25.265625 53.625 
Q 29.59375 56 35.59375 56 
Q 45.5625 56 51.78125 48.09375 
Q 58.015625 40.1875 58.015625 27.296875 
Q 58.015625 14.40625 51.78125 6.484375 
Q 45.5625 -1.421875 35.59375 -1.421875 
Q 29.59375 -1.421875 25.265625 0.953125 
Q 20.953125 3.328125 18.109375 8.203125 
L 18.109375 0 
L 9.078125 0 
L 9.078125 75.984375 
L 18.109375 75.984375 
z
" id="DejaVuSans-98"/>
     </defs>
     <g transform="translate(731.038125 483.900625)scale(0.2 -0.2)">
      <use xlink:href="#DejaVuSans-69"/>
      <use x="63.183594" xlink:href="#DejaVuSans-110"/>
      <use x="126.5625" xlink:href="#DejaVuSans-115"/>
      <use x="178.662109" xlink:href="#DejaVuSans-101"/>
      <use x="240.185547" xlink:href="#DejaVuSans-109"/>
      <use x="337.597656" xlink:href="#DejaVuSans-98"/>
      <use x="401.074219" xlink:href="#DejaVuSans-108"/>
      <use x="428.857422" xlink:href="#DejaVuSans-101"/>
      <use x="490.380859" xlink:href="#DejaVuSans-32"/>
      <use x="522.167969" xlink:href="#DejaVuSans-40"/>
      <use x="561.181641" xlink:href="#DejaVuSans-65"/>
      <use x="629.589844" xlink:href="#DejaVuSans-85"/>
      <use x="702.783203" xlink:href="#DejaVuSans-67"/>
      <use x="772.607422" xlink:href="#DejaVuSans-32"/>
      <use x="804.394531" xlink:href="#DejaVuSans-61"/>
      <use x="888.183594" xlink:href="#DejaVuSans-32"/>
      <use x="919.970703" xlink:href="#DejaVuSans-48"/>
      <use x="983.59375" xlink:href="#DejaVuSans-46"/>
      <use x="1015.380859" xlink:href="#DejaVuSans-54"/>
      <use x="1079.003906" xlink:href="#DejaVuSans-57"/>
      <use x="1142.626953" xlink:href="#DejaVuSans-41"/>
     </g>
    </g>
   </g>
  </g>
 </g>
 <defs>
  <clipPath id="pb7f0499845">
   <rect height="465.62" width="1038.245" x="81.19" y="40.44"/>
  </clipPath>
 </defs>
</svg>
